<svg width="72" height="72" viewBox="0 0 72 72" fill="none" xmlns="http://www.w3.org/2000/svg">
<rect width="72" height="72" rx="7.36831" fill="#FFEFB7"/>
<path d="M38.4111 40.759V44.5133C36.7854 43.9385 35.0454 43.7622 33.3373 43.9991C31.6293 44.2361 30.0031 44.8795 28.5952 45.8752C27.1873 46.8709 26.0389 48.1899 25.2464 49.7215C24.4539 51.253 24.0405 52.9523 24.0408 54.6767L20.4482 54.6749C20.4477 52.4814 20.9493 50.3169 21.9146 48.3473C22.8798 46.3776 24.2832 44.6551 26.0171 43.3116C27.7511 41.9682 29.7695 41.0395 31.9178 40.5967C34.0661 40.154 36.2873 40.2107 38.4111 40.759ZM34.8186 38.5101C28.8639 38.5101 24.0408 33.687 24.0408 27.7323C24.0408 21.7776 28.8639 16.9546 34.8186 16.9546C40.7733 16.9546 45.5963 21.7776 45.5963 27.7323C45.5963 33.687 40.7733 38.5101 34.8186 38.5101ZM34.8186 34.9175C38.7884 34.9175 42.0037 31.7021 42.0037 27.7323C42.0037 23.7625 38.7884 20.5472 34.8186 20.5472C30.8488 20.5472 27.6334 23.7625 27.6334 27.7323C27.6334 31.7021 30.8488 34.9175 34.8186 34.9175Z" fill="#333333"/>
<rect x="43.5791" y="43.5791" width="3.7895" height="11.3685" fill="#333333"/>
<rect x="39.79" y="51.1582" width="3.7895" height="11.3685" transform="rotate(-90 39.79 51.1582)" fill="#333333"/>
</svg>
