<svg width="389" height="367" viewBox="0 0 389 367" fill="none" xmlns="http://www.w3.org/2000/svg">
<path fill-rule="evenodd" clip-rule="evenodd" d="M313.659 152.513C313.835 157.846 313.536 163.084 313.378 168.543C319.173 166.982 324.81 166.671 330.541 167.409C331.634 163.625 332.817 159.979 334.394 156.479C337.602 149.364 343.273 139.654 359.088 129.769C374.903 119.885 409.169 121.203 411.805 121.203C416.418 121.203 408.972 123.772 411.805 127.792C411.805 127.792 371.609 130.428 361.065 137.018C350.522 143.607 346.518 151.113 346.518 151.113C344.201 153.387 338.887 165.439 338.546 169.197C339.729 169.605 340.949 170.001 342.151 170.445C347.708 172.496 352.241 175.843 355.223 181.044C357.307 184.678 358.402 188.6 357.838 192.815C357.227 197.382 354.459 200.266 350.226 201.74C344.272 203.814 337.445 201.531 333.591 196.502C329.087 190.624 327.992 183.958 328.773 176.836C328.918 175.508 328.585 175.103 327.281 175.021C322.574 174.725 318 175.355 313.504 176.724C312.735 176.958 312.58 177.441 312.522 178.161C312.083 183.575 311.711 189.007 310.021 194.222C308.051 200.3 305.493 206.064 300.779 210.594C298.083 213.184 295.045 215.261 291.503 216.543C283.164 219.562 275.851 214.358 276.029 205.466C276.144 199.67 278.555 194.685 281.927 190.146C287.334 182.864 294.302 177.393 302.213 173.064C303.006 172.63 303.795 172.188 304.605 171.789C305.171 171.511 305.24 171.02 305.273 170.493C305.914 160.285 306.243 150.074 304.753 139.91C303.513 131.455 299.955 124.038 294.699 117.298C284.65 104.412 269.108 101.799 256.125 105.883C252.867 106.908 246.836 110.052 246.836 110.052L242.468 103.761C252.565 97.7659 263.326 94.8661 275.12 97.0241C284.202 98.6858 291.862 102.927 298.15 109.673C308.765 121.059 313.278 134.769 313.563 150.094C313.578 150.869 313.624 151.644 313.659 152.513ZM297.547 202.219C295.249 205.621 292.196 208.137 288.186 209.342C285.31 209.798 283.982 208.702 283.947 205.97C283.903 202.603 285.295 199.683 286.98 196.899C289.527 192.689 292.956 189.265 296.734 186.154C298.636 184.589 300.68 183.237 302.728 181.886C302.802 181.838 302.875 181.787 302.949 181.735C303.293 181.494 303.649 181.244 304.156 181.201C304.166 181.256 304.179 181.311 304.192 181.363C304.219 181.474 304.245 181.58 304.236 181.682C303.597 189.046 301.73 196.027 297.547 202.219ZM349.988 188.914C350.518 191.982 349.638 193.577 346.954 194.407C343.569 194.995 341.138 193.815 339.299 191.225C336.219 186.886 336.125 182.044 336.713 177.018C343.607 178.5 348.917 182.712 349.988 188.914Z" fill="#333333"/>
<path d="M232.317 100.176C237.061 100.085 241.542 101.779 244.865 104.979C248.189 108.178 250.052 112.591 250.143 117.335C250.233 122.078 248.539 126.559 245.34 129.883L234.288 141.363L228.245 135.547L220.102 144.006L215.872 139.935L224.016 131.475L219.182 126.822L211.038 135.281L206.809 131.21L214.952 122.75L208.91 116.933L219.665 105.458C223.166 102.426 227.574 100.266 232.317 100.176ZM234.13 133.062L240.819 126.113C243.146 123.696 244.275 120.709 244.219 117.744C244.162 114.779 242.92 111.837 240.503 109.51C235.971 105.148 228.263 105.295 223.9 109.827L217.217 117.072L234.13 133.062Z" fill="#333333"/>
<path d="M239.312 151.061C240.23 149.665 241.425 149.296 242.942 149.604C244.168 149.854 245.385 150.117 246.527 150.622C248.184 151.356 248.899 152.93 248.299 154.393C247.724 155.797 246.205 156.364 244.496 155.749C243.443 155.37 242.375 155.076 241.281 154.838C239.374 154.423 238.666 153.087 239.312 151.061Z" fill="#F2DD25"/>
<path d="M188.519 162.034C188.409 160.372 188.6 158.832 188.835 157.297C188.963 156.467 188.757 155.825 188.147 155.203C187.308 154.347 186.45 153.495 185.819 152.449C184.666 150.537 185.742 148.538 187.993 148.457C189.448 148.405 190.784 148.978 192.158 149.31C193.098 149.537 193.651 149.366 194.201 148.544C195.255 146.972 196.407 145.462 197.571 143.967C198.772 142.427 200.483 141.952 202.008 142.651C204.259 143.683 204.873 144.8 204.364 147.149C204.055 148.579 203.716 150.013 203.248 151.397C202.846 152.586 203.197 153.34 204.154 154.042C205.122 154.752 206.007 155.577 206.913 156.369C207.875 157.209 208.081 158.267 207.611 159.415C207.108 160.642 206.076 161.211 204.812 161.044C202.979 160.802 201.154 160.445 199.353 160.023C198.452 159.812 197.822 159.959 197.163 160.613C196.004 161.763 194.803 162.882 193.535 163.909C191.312 165.708 189.22 164.94 188.519 162.034ZM198.97 153.457C198.839 151.73 199.726 150.15 199.799 148.298C198.63 148.929 198.046 149.894 197.444 150.811C196.206 152.697 194.701 153.99 192.245 153.477C192.147 153.456 192.026 153.553 191.714 153.672C193.394 155.187 192.588 157.119 192.647 159.144C193.916 158.079 194.922 157.147 196.018 156.337C197.212 155.454 198.635 155.905 200.089 156.029C199.785 155.056 199.05 154.508 198.97 153.457Z" fill="#333333"/>
<path d="M198.97 153.457C198.839 151.73 199.726 150.15 199.799 148.298C198.63 148.929 198.046 149.894 197.444 150.811C196.206 152.697 194.701 153.99 192.245 153.477C192.147 153.456 192.026 153.553 191.714 153.672C193.394 155.187 192.588 157.119 192.647 159.144C193.916 158.079 194.922 157.147 196.018 156.337C197.212 155.454 198.635 155.905 200.089 156.029C199.785 155.056 199.05 154.508 198.97 153.457Z" fill="#FFD442"/>
<path d="M194.914 101.287C196.219 101.272 197.013 101.914 197.623 102.884C198.633 104.488 199.568 106.127 200.111 107.958C200.421 109.004 200.567 110.06 200.136 111.113C199.723 112.12 198.987 112.718 197.884 112.745C196.776 112.773 195.921 112.246 195.601 111.198C194.955 109.087 193.968 107.148 192.943 105.206C191.994 103.408 192.795 101.849 194.914 101.287Z" fill="#9087FC"/>
<path d="M170.16 218.362C171.779 218.774 172.519 219.784 172.722 221.319C172.886 222.558 173.035 223.795 172.93 225.039C172.777 226.845 171.522 228.034 169.943 227.945C168.429 227.859 167.398 226.608 167.421 224.793C167.436 223.673 167.365 222.567 167.233 221.456C167.003 219.518 168.035 218.413 170.16 218.362Z" fill="#F2DD25"/>
<path d="M138.085 178.131C138.273 180.377 137.152 181.496 135.038 181.184C133.788 180.999 132.548 181.126 131.304 181.094C130.09 181.062 129.222 180.56 128.905 179.348C128.6 178.182 129.122 176.946 130.277 176.433C132.53 175.432 134.805 175.653 137.016 176.627C137.587 176.878 137.914 177.414 138.085 178.131Z" fill="#048F4C"/>
<path d="M149.12 154.345C148.147 153.531 147.282 152.756 146.58 151.83C145.622 150.567 145.756 149.012 146.871 147.988C147.935 147.011 149.586 147.08 150.717 148.168C151.272 148.703 151.789 149.277 152.336 149.822C153.588 151.071 153.824 152.41 152.994 153.626C152.175 154.828 150.857 155.098 149.12 154.345Z" fill="#F2DD25"/>
<path fill-rule="evenodd" clip-rule="evenodd" d="M89.1975 148.694C89.0287 143.36 89.3348 138.124 89.4997 132.665C83.7026 134.217 78.066 134.521 72.3352 133.775C71.2373 137.557 70.0496 141.202 68.4674 144.699C65.25 151.811 59.5656 161.513 43.7371 171.376C27.9086 181.239 -6.35548 179.874 -8.99132 179.871C-13.604 179.864 -6.1549 177.306 -8.98235 173.281C-8.98235 173.281 31.2178 170.7 41.7701 164.125C52.3224 157.549 56.3368 150.049 56.3368 150.049C58.6561 147.778 63.9866 135.734 64.3334 131.976C63.1506 131.566 61.9312 131.169 60.7296 130.724C55.1757 128.665 50.6474 125.311 47.6721 120.107C45.593 116.47 44.5032 112.546 45.0729 108.332C45.69 103.766 48.4624 100.886 52.6974 99.4171C58.654 97.3513 65.4781 99.6436 69.3255 104.678C73.8214 110.562 74.9072 117.229 74.1167 124.35C73.9693 125.678 74.3018 126.084 75.6057 126.167C80.313 126.47 84.887 125.846 89.3848 124.483C90.1541 124.25 90.3099 123.768 90.3693 123.048C90.8157 117.634 91.1946 112.203 92.8919 106.99C94.8702 100.915 97.4365 95.1543 102.157 90.6311C104.856 88.0441 107.897 85.9716 111.44 84.6941C119.784 81.6864 127.089 86.9002 126.9 95.7922C126.776 101.588 124.358 106.57 120.981 111.105C115.563 118.378 108.588 123.84 100.671 128.159C99.8778 128.591 99.0881 129.032 98.2777 129.43C97.7114 129.708 97.6415 130.198 97.6077 130.725C96.9534 140.933 96.61 151.143 98.0864 161.309C99.3145 169.765 102.863 177.187 108.11 183.935C118.14 196.835 133.679 199.468 146.667 195.402C149.927 194.382 155.962 191.246 155.962 191.246L160.322 197.543C150.217 203.524 139.451 206.409 127.66 204.235C118.581 202.561 110.927 198.309 104.648 191.555C94.0487 180.155 89.5542 166.438 89.2897 151.114C89.2763 150.338 89.2309 149.563 89.1975 148.694ZM105.377 99.0095C107.68 95.6106 110.736 93.099 114.748 91.8997C117.624 91.4481 118.95 92.545 118.982 95.278C119.022 98.6448 117.626 101.563 115.937 104.345C113.384 108.551 109.951 111.97 106.168 115.076C104.264 116.639 102.218 117.987 100.168 119.335C100.094 119.384 100.021 119.435 99.9474 119.486C99.6032 119.727 99.2464 119.976 98.7389 120.019C98.7293 119.963 98.7161 119.909 98.7033 119.856C98.6765 119.746 98.6508 119.64 98.6599 119.538C99.309 112.175 101.185 105.196 105.377 99.0095ZM52.9177 112.244C52.3918 109.175 53.2742 107.581 55.9589 106.755C59.3447 106.171 61.7748 107.354 63.61 109.947C66.6845 114.291 66.7712 119.132 66.1767 124.158C59.2845 122.666 53.9807 118.447 52.9177 112.244Z" fill="#333333"/>
<path d="M170.468 201.142C165.724 201.226 161.245 199.526 157.926 196.322C154.607 193.118 152.75 188.702 152.666 183.959C152.582 179.215 154.282 174.736 157.486 171.417L168.553 159.951L174.588 165.776L178.812 169.854L183.639 174.514L187.864 178.591L193.898 184.416L183.127 195.876C179.622 198.904 175.211 201.058 170.468 201.142ZM168.7 168.253L162.001 175.193C159.671 177.607 158.538 180.592 158.59 183.557C158.643 186.522 159.881 189.466 162.295 191.796C166.821 196.165 174.529 196.028 178.898 191.502L185.591 184.266L168.7 168.253Z" fill="#333333"/>
</svg>
