<!-- Generated by IcoMoon.io -->
<svg version="1.1" xmlns="http://www.w3.org/2000/svg" width="32" height="32" viewBox="0 0 32 32">
<title>auth-long-line</title>
<path d="M18.444 26.519c0.074 0.060 0.134 0.11 0.201 0.156 0.353 0.231 0.742 0.339 1.162 0.387 0.587 0.063 1.16-0.009 1.727-0.149 0.935-0.233 1.8-0.644 2.598-1.171 1.185-0.781 2.176-1.757 2.991-2.91 0.455-0.649 0.833-1.331 1.070-2.083 0.086-0.272 0.144-0.548 0.191-0.827 0.025-0.163 0.001-0.336-0.012-0.506-0.003-0.060-0.007-0.12 0.050-0.148 0.046-0.014 0.113-0.021 0.156-0.006 0.099 0.039 0.145 0.131 0.148 0.227 0.017 0.195 0.051 0.389 0.022 0.58-0.040 0.311-0.109 0.619-0.205 0.923-0.162 0.583-0.436 1.134-0.764 1.649-1.15 1.796-2.666 3.191-4.595 4.128-0.861 0.418-1.768 0.69-2.731 0.725-0.842 0.028-1.627-0.113-2.308-0.685-0.057 0.046-0.103 0.095-0.153 0.137-0.611 0.567-1.274 1.081-2.005 1.495-0.709 0.404-1.457 0.713-2.271 0.815-0.258 0.031-0.52 0.037-0.775 0.022-1.248-0.097-2.094-0.879-2.316-2.111-0.080-0.446-0.071-0.892-0.019-1.341 0.106-0.873 0.375-1.704 0.718-2.509 0.093-0.223 0.2-0.434 0.3-0.66 0.021-0.046 0.036-0.088 0.064-0.156-0.081-0.004-0.156-0.011-0.219-0.015-0.612-0.024-1.209-0.143-1.76-0.418-0.689-0.339-1.207-0.85-1.508-1.566-0.175-0.425-0.248-0.857-0.246-1.317 0.003-0.725 0.183-1.414 0.451-2.086 0.036-0.088 0.071-0.177 0.118-0.279-0.074-0.025-0.145-0.043-0.209-0.064-0.654-0.197-1.211-0.539-1.609-1.11-0.292-0.412-0.442-0.876-0.504-1.375-0.079-0.641-0.006-1.26 0.156-1.878 0.219-0.859 0.583-1.657 1.050-2.409 0.032-0.060 0.071-0.124 0.114-0.198-0.081-0.022-0.141-0.036-0.212-0.054-0.725-0.162-1.439-0.356-2.117-0.656-0.314-0.136-0.614-0.296-0.911-0.467-0.219-0.121-0.416-0.288-0.571-0.494-0.12-0.153-0.151-0.269-0.133-0.429 0.011 0.004 0.028 0.004 0.028 0.004 0.095 0.227 0.274 0.376 0.472 0.508 0.303 0.203 0.632 0.349 0.968 0.474 0.858 0.325 1.749 0.555 2.65 0.736 0.018 0 0.035 0 0.074 0.007 0.032-0.042 0.071-0.088 0.107-0.141 0.921-1.259 2.044-2.309 3.37-3.125 0.702-0.436 1.45-0.78 2.268-0.928 0.29-0.055 0.573-0.072 0.867-0.050 0.223 0.022 0.435 0.076 0.633 0.172 0.438 0.225 0.67 0.586 0.682 1.075 0.009 0.34-0.095 0.647-0.244 0.951-0.31 0.621-0.765 1.111-1.312 1.523-1.228 0.908-2.613 1.32-4.134 1.225-0.601-0.038-1.209-0.143-1.811-0.216-0.067-0.011-0.134-0.022-0.202-0.033-0.018 0.018-0.032 0.025-0.043 0.039-0.577 0.886-1.026 1.832-1.243 2.875-0.123 0.59-0.16 1.174-0.025 1.769 0.23 0.981 0.966 1.667 2.020 1.869 0.028-0.049 0.068-0.113 0.1-0.173 0.642-1.183 1.452-2.22 2.492-3.079 0.433-0.356 0.887-0.669 1.405-0.889 0.298-0.13 0.606-0.238 0.928-0.247 0.18-0.010 0.371 0.002 0.545 0.048 0.403 0.101 0.653 0.409 0.701 0.827 0.020 0.237-0.016 0.467-0.091 0.69-0.129 0.382-0.339 0.724-0.591 1.034-0.59 0.733-1.325 1.282-2.168 1.682-0.943 0.449-1.927 0.672-2.981 0.575-0.018-0-0.035-0-0.071-0-0.021 0.046-0.050 0.095-0.071 0.141-0.236 0.54-0.415 1.106-0.484 1.696-0.055 0.46-0.035 0.909 0.097 1.355 0.178 0.609 0.544 1.081 1.073 1.419 0.406 0.267 0.858 0.432 1.342 0.501 0.276 0.040 0.552 0.045 0.828 0.067 0.12 0.011 0.191-0.042 0.252-0.151 0.406-0.748 0.869-1.454 1.385-2.124 0.779-1.030 1.646-1.989 2.658-2.798 0.493-0.394 1.011-0.739 1.596-0.984 0.294-0.119 0.595-0.206 0.917-0.198 0.52 0.016 0.851 0.347 0.87 0.867 0.010 0.145-0.005 0.294-0.041 0.435-0.058 0.223-0.129 0.435-0.222 0.639-0.207 0.456-0.495 0.872-0.819 1.253-1.127 1.343-2.5 2.35-4.148 2.98-0.609 0.231-1.247 0.388-1.895 0.452-0.092 0.010-0.163 0.028-0.209 0.13-0.403 0.809-0.757 1.628-0.965 2.508-0.122 0.502-0.199 1.007-0.183 1.52 0.006 0.297 0.047 0.595 0.142 0.874 0.234 0.723 0.721 1.17 1.452 1.364 0.527 0.137 1.054 0.096 1.578-0.022 0.698-0.16 1.336-0.458 1.942-0.838 0.628-0.39 1.196-0.848 1.728-1.358 0.032-0.025 0.053-0.053 0.078-0.092-0.021-0.043-0.032-0.081-0.056-0.113-0.257-0.394-0.389-0.822-0.391-1.289-0.002-0.308 0.010-0.622 0.064-0.923 0.239-1.283 0.827-2.395 1.726-3.343 0.21-0.219 0.447-0.416 0.717-0.549 0.085-0.042 0.17-0.084 0.259-0.119 0.556-0.196 1.001 0.061 1.14 0.627 0.056 0.237 0.051 0.478 0.018 0.715-0.044 0.375-0.155 0.739-0.294 1.099-0.347 0.904-0.849 1.727-1.443 2.489-0.327 0.427-0.697 0.822-1.042 1.23-0.029 0.067-0.075 0.116-0.128 0.169zM8.238 9.538c0.23 0.036 0.431 0.069 0.64 0.098 0.672 0.091 1.344 0.165 2.020 0.104 1.299-0.122 2.454-0.588 3.427-1.458 0.362-0.321 0.661-0.698 0.854-1.146 0.096-0.215 0.164-0.435 0.158-0.679-0.013-0.347-0.16-0.609-0.485-0.748-0.155-0.064-0.325-0.122-0.495-0.126-0.244-0.012-0.495-0.002-0.74 0.040-0.69 0.121-1.328 0.402-1.931 0.753-1.316 0.766-2.424 1.773-3.341 2.987-0.028 0.049-0.053 0.106-0.107 0.176zM12.423 22.041c0.060-0.003 0.088 0 0.12-0.007 0.485-0.073 0.956-0.191 1.413-0.355 1.159-0.424 2.194-1.060 3.114-1.877 0.618-0.553 1.165-1.159 1.575-1.883 0.132-0.233 0.235-0.487 0.321-0.742 0.054-0.159 0.065-0.332 0.059-0.506-0.010-0.251-0.168-0.393-0.416-0.412-0.12-0.011-0.237 0.003-0.357 0.027-0.347 0.066-0.662 0.213-0.964 0.389-0.461 0.264-0.89 0.573-1.288 0.929-1.417 1.24-2.565 2.7-3.52 4.32-0.014 0.025-0.032 0.060-0.057 0.117zM9.176 16.515c0.057 0.007 0.099 0.022 0.141 0.018 0.202-0.003 0.403 0.012 0.605-0.008 1.203-0.101 2.263-0.564 3.2-1.31 0.454-0.366 0.842-0.779 1.127-1.29 0.132-0.233 0.232-0.477 0.265-0.749 0.044-0.446-0.178-0.715-0.627-0.749-0.248-0.019-0.492 0.040-0.726 0.121-0.517 0.168-0.971 0.463-1.397 0.797-1.061 0.834-1.883 1.868-2.528 3.043-0.021 0.028-0.036 0.071-0.061 0.127zM18.187 26.249c0.043-0.039 0.075-0.063 0.099-0.085 0.839-0.892 1.575-1.865 2.128-2.96 0.232-0.459 0.432-0.929 0.533-1.438 0.047-0.226 0.069-0.467 0.052-0.697-0.033-0.495-0.333-0.656-0.787-0.449-0.287 0.133-0.525 0.33-0.738 0.56-0.789 0.849-1.316 1.834-1.569 2.965-0.094 0.417-0.124 0.838-0.055 1.263 0.048 0.294 0.15 0.57 0.336 0.84z"></path>
</svg>
