<!-- Generated by IcoMoon.io -->
<svg version="1.1" xmlns="http://www.w3.org/2000/svg" width="32" height="32" viewBox="0 0 32 32">
<title>auth-two-line</title>
<path d="M12.444 22.998c-0.496 0-1.020-0.028-1.516 0-0.965 0.055-1.654 0.524-1.985 1.461-0.524 1.433-0.551 2.95-0.386 4.438 0.055 0.579 0.193 1.13 0.276 1.682 0.028 0.221 0.083 0.441 0.083 0.662 0 0.386-0.193 0.634-0.469 0.717-0.358 0.083-0.606-0.083-0.799-0.358-0.11-0.138-0.193-0.303-0.248-0.469-0.882-2.481-0.992-5.017-0.083-7.498 0.551-1.516 1.737-2.316 3.308-2.481 0.551-0.055 1.158-0.055 1.709-0.028 2.426 0.11 4.714-0.496 6.919-1.489 1.296-0.579 2.288-1.544 3.005-2.784 0.772-1.351 1.351-2.784 1.847-4.218 1.13-3.143 2.26-6.313 3.446-9.428 0.331-0.855 0.799-1.682 1.213-2.481 0.11-0.221 0.303-0.441 0.496-0.606 0.083-0.083 0.303-0.11 0.413-0.055s0.193 0.248 0.193 0.386c-0.028 0.303-0.055 0.606-0.165 0.91-0.524 1.819-1.075 3.639-1.626 5.431-0.689 2.178-1.406 4.356-2.123 6.533-0.469 1.433-1.048 2.812-1.764 4.135-1.020 1.93-2.536 3.336-4.549 4.163-2.316 0.91-4.686 1.516-7.195 1.378z"></path>
<path d="M4.064 26.581c0 0.772 0 1.544 0 2.316 0 0.551-0.193 0.882-0.606 0.965-0.386 0.083-0.772-0.138-0.965-0.606-0.083-0.221-0.165-0.469-0.193-0.689-0.303-2.757-0.248-5.486 0.634-8.16 0.524-1.544 1.296-2.95 2.453-4.080 1.406-1.378 3.088-1.902 5.017-1.571 0.827 0.138 1.654 0.331 2.481 0.386 0.772 0.055 1.544 0.055 2.288-0.055 1.516-0.221 2.619-1.103 3.253-2.509 0.303-0.717 0.524-1.433 0.772-2.178 0.882-2.894 1.682-5.789 2.784-8.573 0.083-0.193 0.138-0.386 0.248-0.551 0.083-0.11 0.248-0.221 0.358-0.221s0.276 0.165 0.303 0.276c0.083 0.331 0.138 0.662 0.11 0.965-0.11 1.020-0.193 2.012-0.413 2.95-0.524 2.123-1.103 4.218-1.682 6.313-0.11 0.441-0.276 0.882-0.441 1.323-1.103 2.784-3.253 4.107-6.175 4.273-1.268 0.055-2.509-0.221-3.722-0.441-0.248-0.055-0.524-0.083-0.772-0.138-1.075-0.165-2.012 0.165-2.812 0.882-0.882 0.772-1.489 1.737-1.93 2.812-0.634 1.626-0.965 3.308-1.020 5.017 0 0.441 0 0.855 0.028 1.296-0.028 0-0.028 0 0 0z"></path>
</svg>
