<!-- Generated by IcoMoon.io -->
<svg version="1.1" xmlns="http://www.w3.org/2000/svg" width="32" height="32" viewBox="0 0 32 32">
<title>bin</title>
<path d="M12.020 4.524h-2.55c0-2.167 1.658-3.825 3.825-3.825v2.55c-0.765 0-1.275 0.51-1.275 1.275z"></path>
<path d="M22.226 4.524h-2.55c0-0.765-0.51-1.275-1.275-1.275v-2.55c2.168 0 3.825 1.658 3.825 3.825z"></path>
<path d="M22.22 8.35h-12.75v-3.825h2.55v1.275h7.65v-1.275h2.55v3.825z"></path>
<path d="M18.397 0.699h-5.1v2.55h5.1v-2.55z"></path>
<path d="M27.32 8.35h-22.95c-0.765 0-1.275-0.51-1.275-1.275s0.51-1.275 1.275-1.275h22.95c0.765 0 1.275 0.51 1.275 1.275s-0.51 1.275-1.275 1.275z"></path>
<path d="M24.776 31.3h-17.85c-0.765 0-1.275-0.51-1.275-1.275v-17.85c0-0.765 0.51-1.275 1.275-1.275h17.85c0.765 0 1.275 0.51 1.275 1.275v17.85c0 0.765-0.51 1.275-1.275 1.275zM8.201 28.75h15.3v-15.3h-15.3v15.3z"></path>
</svg>
