<!-- Generated by IcoMoon.io -->
<svg version="1.1" xmlns="http://www.w3.org/2000/svg" width="32" height="32" viewBox="0 0 32 32">
<title>calendar</title>
<path fill="#939bab" d="M25.883 4.243h-2.788v-1.394c0-0.37-0.147-0.724-0.408-0.986s-0.616-0.408-0.986-0.408-0.724 0.147-0.986 0.408c-0.261 0.261-0.408 0.616-0.408 0.986v1.394h-8.365v-1.394c0-0.37-0.147-0.724-0.408-0.986s-0.616-0.408-0.986-0.408c-0.37 0-0.724 0.147-0.986 0.408s-0.408 0.616-0.408 0.986v1.394h-2.788c-1.109 0-2.173 0.441-2.958 1.225s-1.225 1.848-1.225 2.957v16.73c0 1.109 0.441 2.173 1.225 2.958s1.848 1.225 2.958 1.225h19.519c1.109 0 2.173-0.441 2.958-1.225s1.225-1.848 1.225-2.958v-16.73c0-1.109-0.441-2.173-1.225-2.957s-1.848-1.225-2.958-1.225zM27.277 25.156c0 0.37-0.147 0.724-0.408 0.986s-0.616 0.408-0.986 0.408h-19.519c-0.37 0-0.724-0.147-0.986-0.408s-0.408-0.616-0.408-0.986v-9.759h22.307v9.759zM27.277 12.608h-22.307v-4.183c0-0.37 0.147-0.724 0.408-0.986s0.616-0.408 0.986-0.408h2.788v1.394c0 0.37 0.147 0.724 0.408 0.986s0.616 0.408 0.986 0.408c0.37 0 0.724-0.147 0.986-0.408s0.408-0.616 0.408-0.986v-1.394h8.365v1.394c0 0.37 0.147 0.724 0.408 0.986s0.616 0.408 0.986 0.408 0.724-0.147 0.986-0.408c0.261-0.261 0.408-0.616 0.408-0.986v-1.394h2.788c0.37 0 0.724 0.147 0.986 0.408s0.408 0.616 0.408 0.986v4.183z"></path>
</svg>
