<!-- Generated by IcoMoon.io -->
<svg version="1.1" xmlns="http://www.w3.org/2000/svg" width="32" height="32" viewBox="0 0 32 32">
<title>dots</title>
<path d="M7.529 16c0 2.079-1.686 3.765-3.765 3.765s-3.765-1.686-3.765-3.765c0-2.079 1.686-3.765 3.765-3.765s3.765 1.686 3.765 3.765z"></path>
<path d="M19.576 16c0 2.079-1.686 3.765-3.765 3.765s-3.765-1.686-3.765-3.765c0-2.079 1.686-3.765 3.765-3.765s3.765 1.686 3.765 3.765z"></path>
<path d="M31.624 16c0 2.079-1.686 3.765-3.765 3.765s-3.765-1.686-3.765-3.765c0-2.079 1.686-3.765 3.765-3.765s3.765 1.686 3.765 3.765z"></path>
</svg>
