<!-- Generated by IcoMoon.io -->
<svg version="1.1" xmlns="http://www.w3.org/2000/svg" width="32" height="32" viewBox="0 0 32 32">
<title>down-arrow</title>
<path d="M16.536 24.329l13.748-14.612c0.584-0.621 0.584-1.59-0-2.211l-0.794-0.844c-0.61-0.649-1.631-0.68-2.28-0.069-0.024 0.022-0.047 0.046-0.069 0.069l-11.779 12.521-11.78-12.52c-0.611-0.649-1.631-0.68-2.28-0.069-0.024 0.022-0.047 0.046-0.069 0.069l-0.794 0.843c-0.584 0.621-0.584 1.59 0 2.211l13.748 14.613c0.611 0.649 1.631 0.68 2.28 0.070 0.024-0.022 0.047-0.046 0.070-0.070z"></path>
</svg>
