<!-- Generated by IcoMoon.io -->
<svg version="1.1" xmlns="http://www.w3.org/2000/svg" width="32" height="32" viewBox="0 0 32 32">
<title>edit</title>
<path d="M4.057 19.491c-0.667 0.992-1.204 2.065-1.597 3.194-0.443 1.273-0.636 2.625-0.969 4.953l-0.121 0.846c-0.060 0.421 0.088 0.845 0.397 1.137s0.741 0.416 1.158 0.332l1.161-0.234c2.090-0.422 3.305-0.667 4.446-1.116 1.013-0.399 1.976-0.915 2.869-1.538l3.488-3.184 14.415-14.415c0 0 1.658-1.611 1.612-4.067s-1.612-3.727-1.612-3.727c-2.152-2.152-5.641-2.152-7.794 0l-17.453 17.819zM27.452 3.524c-1.129-1.129-2.96-1.129-4.090 0l-3.088 3.088 4.090 4.090 3.088-3.088c1.129-1.129 1.129-2.96 0-4.090zM18.422 8.464l4.090 4.090-9.475 9.474c-1.632 1.632-2.34 2.334-3.135 2.888-0.724 0.506-1.506 0.925-2.329 1.249-0.789 0.311-1.634 0.504-3.346 0.853 0.254-1.737 0.415-2.633 0.707-3.472 0.319-0.916 0.755-1.788 1.297-2.593 0.594-0.883 1.368-1.664 3.166-3.463l9.026-9.026z"></path>
</svg>
