<!-- Generated by IcoMoon.io -->
<svg version="1.1" xmlns="http://www.w3.org/2000/svg" width="32" height="32" viewBox="0 0 32 32">
<title>home</title>
<path d="M28.337 26.505c0 0.93-0.802 1.327-1.789 1.327h-3.389c-0.988 0-1.789-0.397-1.789-1.327v-8.084c0-1.861-1.602-3.726-3.579-3.726h-3.579c-1.977 0-3.579 1.864-3.579 3.726v8.084c0 0.93-0.802 1.327-1.789 1.327h-1.789c-0.988 0-3.389-0.397-3.389-1.327v-13.58c0-0.445 0.449-0.719 0.822-0.962l10.232-6.684c0.7-0.659 1.832-0.659 2.53 0l10.828 7.084c0.167 0.158 0.261 0.372 0.261 0.595v13.548zM31.916 12.042c0-0.446-0.188-0.872-0.521-1.189l-12.872-9.061c-1.396-1.319-3.663-1.324-5.064-0.010l-12.849 8.952c-0.336 0.317-0.526 0.744-0.526 1.192v16.263c0 1.861 1.602 3.011 3.579 3.011h6.968c1.977 0 3.579-1.15 3.579-3.011v-8.084c0-0.93 0.802-1.684 1.789-1.684s1.789 0.755 1.789 1.684v8.084c0 1.861 1.602 3.011 3.579 3.011h6.968c1.977 0 3.579-1.15 3.579-3.011v-16.147z"></path>
</svg>
