<!-- Generated by IcoMoon.io -->
<svg version="1.1" xmlns="http://www.w3.org/2000/svg" width="32" height="32" viewBox="0 0 32 32">
<title>instagram</title>
<path d="M7.479 4.4c-1.692 0-3.079 1.387-3.079 3.079v17.042c0 1.692 1.387 3.079 3.079 3.079h17.042c1.703 0 3.079-1.376 3.079-3.079v-17.042c0-1.692-1.387-3.079-3.079-3.079h-17.042zM2 7.479c0-3.018 2.461-5.479 5.479-5.479h17.042c3.018 0 5.479 2.461 5.479 5.479v17.042c0 3.028-2.451 5.479-5.479 5.479h-17.042c-3.018 0-5.479-2.461-5.479-5.479v-17.042z"></path>
<path d="M16.007 10.635c-1.438 0-2.783 0.557-3.798 1.572s-1.572 2.361-1.572 3.798c0 1.438 0.557 2.783 1.572 3.798s2.361 1.572 3.798 1.572c1.434 0 2.771-0.555 3.8-1.574 1.014-1.015 1.571-2.36 1.571-3.797s-0.557-2.783-1.572-3.798-2.361-1.572-3.798-1.572zM10.511 10.511c1.466-1.466 3.422-2.275 5.495-2.275s4.030 0.81 5.496 2.275c1.466 1.466 2.275 3.422 2.275 5.495s-0.81 4.030-2.275 5.496l-0.004 0.004c-1.473 1.46-3.415 2.272-5.492 2.272-2.074 0-4.030-0.81-5.495-2.275s-2.275-3.422-2.275-5.496c0-2.074 0.81-4.030 2.275-5.495z"></path>
<path d="M23.856 7.547c-0.226 0-0.408 0.183-0.408 0.408s0.183 0.408 0.408 0.408c0.225 0 0.408-0.183 0.408-0.408s-0.183-0.408-0.408-0.408zM21.741 7.956c0-1.168 0.947-2.115 2.115-2.115s2.115 0.947 2.115 2.115-0.947 2.115-2.115 2.115c-1.168 0-2.115-0.947-2.115-2.115z"></path>
</svg>
