<!-- Generated by IcoMoon.io -->
<svg version="1.1" xmlns="http://www.w3.org/2000/svg" width="32" height="32" viewBox="0 0 32 32">
<title>linkedin</title>
<path d="M9.052 10.124h-5.416v17.272h5.416v-17.272z"></path>
<path d="M23.706 9.747c-0.2-0.025-0.412-0.037-0.624-0.050-3.032-0.125-4.742 1.672-5.341 2.446-0.162 0.212-0.237 0.337-0.237 0.337v-2.309h-5.179v17.272h5.416c0-1.76 0-3.507 0-5.266 0-0.948 0-1.897 0-2.845 0-1.173-0.087-2.421 0.499-3.494 0.499-0.899 1.398-1.348 2.409-1.348 2.995 0 3.057 2.708 3.057 2.958 0 0.012 0 0.025 0 0.025v10.046h5.416v-11.269c0-3.856-1.959-6.127-5.416-6.502z"></path>
<path d="M6.345 7.89c1.737 0 3.145-1.408 3.145-3.145s-1.408-3.145-3.145-3.145c-1.737 0-3.145 1.408-3.145 3.145s1.408 3.145 3.145 3.145z"></path>
</svg>
