<!-- Generated by IcoMoon.io -->
<svg version="1.1" xmlns="http://www.w3.org/2000/svg" width="32" height="32" viewBox="0 0 32 32">
<title>live-text</title>
<path fill="#8a8ea0" d="M16.725 3.131c-7.039 0-12.745 5.706-12.745 12.745 0 2.037 0.479 3.965 1.331 5.676 0.089 0.178 0.097 0.339 0.066 0.454l-0.686 2.563c-0.543 2.029 1.313 3.884 3.342 3.342l2.563-0.686c0.115-0.031 0.275-0.022 0.454 0.066 1.71 0.852 3.639 1.33 5.675 1.33 7.039 0 12.745-5.706 12.745-12.745s-5.706-12.745-12.745-12.745zM7.517 20.453c-0.686-1.377-1.072-2.93-1.072-4.576 0-5.652 4.716-10.238 10.358-10.28 5.642 0.042 10.202 4.628 10.202 10.28 0 5.678-4.603 10.28-10.28 10.28-0.474 0-1.25-0.064-1.397-0.094-2.965-0.608-2.64-0.955-4.016-1.24-0.251-0.052-0.46-0.082-0.603-0.079-0.927 0.016-3.314 0.786-3.314 0.786-0.197 0.052-0.376-0.127-0.323-0.323l0.686-2.563c0 0 0.127-0.678 0.081-1.11-0.047-0.437-0.322-1.080-0.322-1.080z"></path>
<path fill="#8a8ea0" d="M10.888 15.877c0-0.681 0.552-1.232 1.233-1.232h0.010c0.681 0 1.233 0.552 1.233 1.232s-0.552 1.233-1.233 1.233h-0.010c-0.681 0-1.233-0.552-1.233-1.233zM15.482 15.877c0-0.681 0.552-1.232 1.233-1.232h0.010c0.681 0 1.233 0.552 1.233 1.232s-0.552 1.233-1.233 1.233h-0.010c-0.681 0-1.233-0.552-1.233-1.233zM20.088 15.877c0-0.681 0.552-1.232 1.233-1.232h0.010c0.681 0 1.233 0.552 1.233 1.232s-0.552 1.233-1.233 1.233h-0.010c-0.681 0-1.233-0.552-1.233-1.233z"></path>
</svg>
