<!-- Generated by IcoMoon.io -->
<svg version="1.1" xmlns="http://www.w3.org/2000/svg" width="32" height="32" viewBox="0 0 32 32">
<title>person</title>
<path fill="#8a8ea0" d="M6.419 20.479c1.212-1.212 2.856-1.894 4.571-1.894h10.342c1.714 0 3.359 0.681 4.571 1.894s1.893 2.857 1.893 4.571v2.586c0 0.714-0.579 1.293-1.293 1.293s-1.293-0.579-1.293-1.293v-2.586c0-1.029-0.409-2.015-1.136-2.743s-1.714-1.136-2.742-1.136h-10.342c-1.028 0-2.015 0.409-2.742 1.136s-1.136 1.714-1.136 2.743v2.586c0 0.714-0.579 1.293-1.293 1.293s-1.293-0.579-1.293-1.293v-2.586c0-1.714 0.681-3.359 1.893-4.571z"></path>
<path fill="#8a8ea0" d="M16.16 5.657c-2.142 0-3.878 1.736-3.878 3.879s1.736 3.879 3.878 3.879c2.142 0 3.878-1.736 3.878-3.879s-1.736-3.879-3.878-3.879zM9.696 9.536c0-3.57 2.894-6.465 6.464-6.465s6.464 2.894 6.464 6.465c0 3.57-2.894 6.465-6.464 6.465s-6.464-2.895-6.464-6.465z"></path>
</svg>
