<!-- Generated by IcoMoon.io -->
<svg version="1.1" xmlns="http://www.w3.org/2000/svg" width="32" height="32" viewBox="0 0 32 32">
<title>plus</title>
<path d="M14.259 14.259v-13.389c0-0.481 0.39-0.87 0.87-0.87l1.741 0c0.481 0 0.87 0.39 0.87 0.87l-0 13.389h13.389c0.481-0 0.87 0.39 0.87 0.87v1.741c0 0.481-0.39 0.87-0.87 0.87l-13.389 0-0 13.389c0 0.481-0.39 0.87-0.87 0.87h-1.741c-0.481 0-0.87-0.39-0.87-0.87v-13.389l-13.389 0c-0.481-0-0.87-0.39-0.87-0.87l-0-1.741c0-0.481 0.39-0.87 0.87-0.87h13.389z"></path>
</svg>
