<!-- Generated by IcoMoon.io -->
<svg version="1.1" xmlns="http://www.w3.org/2000/svg" width="1024" height="1024" viewBox="0 0 1024 1024">
<title></title>
<g id="icomoon-ignore">
</g>
<path fill="#000" d="M383.999 255.999c23.565 0 42.667 19.103 42.667 42.667s-19.103 42.667-42.667 42.667l-99.556 0.001c-15.709 0-28.444 12.735-28.444 28.444v369.778c0 15.707 12.735 28.444 28.444 28.444h369.778c15.707 0 28.444-12.737 28.444-28.444v-99.556c0-23.563 19.103-42.667 42.667-42.667s42.667 19.103 42.667 42.667v156.444c0 31.42-25.469 56.889-56.889 56.889h-483.556c-31.419 0-56.889-25.469-56.889-56.889v-483.556c0-31.419 25.47-56.888 56.889-56.888l156.444-0.001zM896 128v298.667c0 23.564-19.103 42.667-42.667 42.667s-42.667-19.103-42.667-42.667v-152.996l-323.66 323.663c-16.662 16.663-43.678 16.663-60.34 0s-16.662-43.678 0-60.34l323.658-323.661-152.991 0.001c-23.563 0.001-42.667-19.102-42.667-42.666s19.103-42.667 42.667-42.667h298.667z"></path>
</svg>
