<!-- Generated by IcoMoon.io -->
<svg version="1.1" xmlns="http://www.w3.org/2000/svg" width="32" height="32" viewBox="0 0 32 32">
<title>right-arrow</title>
<path d="M25.338 14.187l-14.612-13.748c-0.621-0.584-1.59-0.584-2.211 0l-0.844 0.794c-0.649 0.611-0.68 1.632-0.069 2.28 0.022 0.024 0.046 0.047 0.069 0.069l12.521 11.779-12.52 11.78c-0.649 0.61-0.68 1.631-0.069 2.28 0.022 0.024 0.046 0.047 0.069 0.069l0.843 0.794c0.621 0.584 1.59 0.584 2.211 0l14.613-13.749c0.649-0.611 0.68-1.631 0.069-2.28-0.022-0.024-0.046-0.047-0.069-0.069z"></path>
</svg>
