<!-- Generated by IcoMoon.io -->
<svg version="1.1" xmlns="http://www.w3.org/2000/svg" width="32" height="32" viewBox="0 0 32 32">
<title>send</title>
<path d="M31.358 2.629c-0.255-0.448-0.727-0.725-1.237-0.725h-28.574c-0.566 0-1.078 0.338-1.307 0.863s-0.131 1.137 0.25 1.561l7.458 8.315c0.395 0.441 1.016 0.591 1.564 0.379l10.358-3.993c0.121-0.046 0.175-0.027 0.199-0.018 0.042 0.017 0.102 0.061 0.149 0.141s0.056 0.155 0.050 0.2c-0.003 0.026-0.013 0.084-0.111 0.168l-8.504 7.317c-0.438 0.377-0.611 0.984-0.439 1.54l3.258 10.511c0.17 0.548 0.643 0.943 1.207 1.006s1.11-0.218 1.394-0.716l14.287-25.101c0.255-0.448 0.255-1.001 0-1.449z"></path>
</svg>
