<!-- Generated by IcoMoon.io -->
<svg version="1.1" xmlns="http://www.w3.org/2000/svg" width="32" height="32" viewBox="0 0 32 32" fill="#8a8ea0">
<title>settings</title>
<path fill="#8a8ea0" d="M14.286 3.2v-3.2c-1.767 0-3.2 1.433-3.2 3.2h3.2zM14.286 5.815v-2.615h-3.2v2.615h3.2zM11.439 9.348c0.291-0.195 0.596-0.372 0.913-0.528l-1.416-2.87c-0.444 0.219-0.87 0.466-1.278 0.739l1.781 2.658zM5.601 8.214l2.266 1.308 1.6-2.771-2.266-1.308-1.6 2.771zM5.601 8.214l1.6-2.771c-1.531-0.884-3.488-0.359-4.371 1.171l2.771 1.6zM4.001 10.986l1.6-2.771-2.771-1.6-1.6 2.771 2.771 1.6zM4.001 10.986l-2.771-1.6c-0.884 1.531-0.359 3.488 1.171 4.371l1.6-2.771zM6.267 12.294l-2.267-1.309-1.6 2.771 2.267 1.308 1.6-2.771zM7.886 16c0-0.178 0.006-0.355 0.017-0.53l-3.193-0.208c-0.016 0.244-0.024 0.491-0.024 0.738h3.2zM7.903 16.53c-0.011-0.175-0.017-0.352-0.017-0.53h-3.2c0 0.248 0.008 0.494 0.024 0.738l3.193-0.208zM4.001 21.014l2.267-1.309-1.6-2.771-2.267 1.308 1.6 2.771zM4.001 21.014l-1.6-2.771c-1.531 0.884-2.055 2.841-1.171 4.371l2.771-1.6zM5.601 23.786l-1.6-2.771-2.771 1.6 1.6 2.771 2.771-1.6zM5.601 23.786l-2.771 1.6c0.884 1.531 2.841 2.055 4.371 1.171l-1.6-2.771zM7.867 22.477l-2.266 1.308 1.6 2.771 2.266-1.308-1.6-2.771zM12.352 23.18c-0.316-0.156-0.621-0.333-0.913-0.528l-1.781 2.658c0.408 0.273 0.835 0.52 1.278 0.739l1.416-2.87zM14.286 28.8v-2.615h-3.2v2.615h3.2zM14.286 28.8h-3.2c0 1.767 1.433 3.2 3.2 3.2v-3.2zM17.486 28.8h-3.2v3.2h3.2v-3.2zM17.486 28.8v3.2c1.767 0 3.2-1.433 3.2-3.2h-3.2zM17.486 26.185v2.615h3.2v-2.615h-3.2zM20.332 22.652c-0.291 0.195-0.596 0.372-0.913 0.528l1.416 2.87c0.444-0.219 0.87-0.466 1.278-0.739l-1.781-2.658zM26.171 23.786l-2.266-1.308-1.6 2.771 2.266 1.308 1.6-2.771zM26.171 23.786l-1.6 2.771c1.53 0.884 3.488 0.359 4.371-1.171l-2.771-1.6zM27.771 21.014l-1.6 2.771 2.771 1.6 1.6-2.771-2.771-1.6zM27.771 21.014l2.771 1.6c0.884-1.531 0.359-3.488-1.171-4.371l-1.6 2.771zM25.504 19.706l2.267 1.309 1.6-2.771-2.267-1.308-1.6 2.771zM23.886 16c0 0.178-0.006 0.355-0.017 0.53l3.193 0.208c0.016-0.244 0.024-0.491 0.024-0.738h-3.2zM23.868 15.47c0.011 0.175 0.017 0.352 0.017 0.53h3.2c0-0.248-0.008-0.494-0.024-0.738l-3.193 0.208zM27.771 10.986l-2.267 1.309 1.6 2.771 2.267-1.308-1.6-2.771zM27.771 10.986l1.6 2.771c1.53-0.884 2.055-2.841 1.171-4.371l-2.771 1.6zM26.171 8.214l1.6 2.771 2.771-1.6-1.6-2.771-2.771 1.6zM26.171 8.214l2.771-1.6c-0.884-1.531-2.841-2.055-4.371-1.171l1.6 2.771zM23.904 9.523l2.266-1.308-1.6-2.771-2.266 1.308 1.6 2.771zM19.42 8.821c0.316 0.156 0.621 0.333 0.913 0.528l1.781-2.658c-0.408-0.273-0.835-0.52-1.278-0.739l-1.416 2.87zM17.486 3.2v2.615h3.2v-2.615h-3.2zM17.486 3.2h3.2c0-1.767-1.433-3.2-3.2-3.2v3.2zM14.286 3.2h3.2v-3.2h-3.2v3.2zM20.836 5.951c-0.068-0.034-0.113-0.078-0.135-0.11-0.020-0.028-0.015-0.036-0.015-0.026h-3.2c0 1.39 0.878 2.485 1.934 3.006l1.416-2.87zM22.304 6.752c0.009-0.005 0.005 0.003-0.029 0-0.039-0.003-0.099-0.019-0.162-0.061l-1.781 2.658c0.98 0.656 2.368 0.87 3.572 0.174l-1.6-2.771zM27.062 15.262c-0.005-0.076 0.011-0.136 0.028-0.171 0.015-0.031 0.024-0.030 0.015-0.025l-1.6-2.771c-1.202 0.694-1.712 2.001-1.636 3.176l3.193-0.208zM22.114 25.31c0.063-0.042 0.123-0.059 0.162-0.061 0.034-0.003 0.038 0.005 0.029 0l1.6-2.771c-1.204-0.695-2.593-0.482-3.572 0.174l1.781 2.658zM27.104 16.935c0.009 0.005 0 0.005-0.015-0.025-0.017-0.035-0.033-0.095-0.028-0.171l-3.193-0.208c-0.077 1.175 0.434 2.481 1.636 3.176l1.6-2.771zM10.936 26.049c0.068 0.034 0.113 0.078 0.135 0.11 0.019 0.028 0.015 0.036 0.015 0.026h3.2c0-1.39-0.878-2.485-1.934-3.006l-1.416 2.87zM9.467 25.248c-0.009 0.005-0.005-0.003 0.029 0 0.039 0.003 0.099 0.019 0.162 0.061l1.781-2.658c-0.98-0.656-2.368-0.869-3.572-0.174l1.6 2.771zM20.686 26.185c0 0.010-0.005 0.003 0.015-0.026 0.022-0.032 0.067-0.076 0.135-0.11l-1.416-2.87c-1.056 0.521-1.934 1.616-1.934 3.006h3.2zM4.71 16.738c0.005 0.075-0.011 0.136-0.028 0.171-0.015 0.031-0.023 0.030-0.015 0.025l1.6 2.771c1.202-0.694 1.712-2 1.636-3.176l-3.193 0.208zM4.667 15.065c-0.009-0.005-0-0.005 0.015 0.025 0.017 0.035 0.033 0.095 0.028 0.171l3.193 0.208c0.077-1.175-0.434-2.481-1.636-3.176l-1.6 2.771zM9.658 6.69c-0.063 0.042-0.123 0.059-0.162 0.061-0.034 0.003-0.038-0.005-0.029-0l-1.6 2.771c1.204 0.695 2.593 0.482 3.572-0.174l-1.781-2.658zM11.086 5.815c0-0.010 0.005-0.003-0.015 0.026-0.022 0.032-0.067 0.077-0.135 0.11l1.416 2.87c1.056-0.521 1.934-1.616 1.934-3.006h-3.2z"></path>
<path fill="none" stroke="#8a8ea0" stroke-linejoin="round" stroke-linecap="round" stroke-miterlimit="4" stroke-width="3.2" d="M15.885 20.8c2.651 0 4.8-2.149 4.8-4.8s-2.149-4.8-4.8-4.8c-2.651 0-4.8 2.149-4.8 4.8s2.149 4.8 4.8 4.8z"></path>
</svg>
