<!-- Generated by IcoMoon.io -->
<svg version="1.1" xmlns="http://www.w3.org/2000/svg" width="32" height="32" viewBox="0 0 32 32">
<title>share</title>
<path d="M16.346 8.423v-5.39c0-1.214 1.481-1.808 2.32-0.929l10.906 11.426c0.505 0.529 0.495 1.364-0.022 1.881l-10.906 10.906c-0.848 0.848-2.298 0.247-2.298-0.952l0-4.827c-0.916 0-1.807 0.051-2.692 0.178-2.949 0.422-5.836 1.684-9.393 4.701-1.125 0.954-2.796 0.279-2.553-1.175 0.011-0.067 0.023-0.135 0.035-0.202 1.223-6.814 6.742-14.494 14.602-15.617zM19.038 6.393v3.198c0 0.67-0.492 1.238-1.156 1.333l-1.156 0.165c-3.768 0.538-7.042 2.995-9.353 6.35-0.833 1.209-1.508 2.489-2.019 3.768 1.001-0.67 1.982-1.226 2.959-1.68 2.79-1.296 5.384-1.68 8.033-1.68h1.346c0.743 0 1.346 0.603 1.346 1.346v2.923l7.678-7.678-7.678-8.044z"></path>
</svg>
