<!-- Generated by IcoMoon.io -->
<svg version="1.1" xmlns="http://www.w3.org/2000/svg" width="32" height="32" viewBox="0 0 32 32">
<title>show</title>
<path opacity="0.6" fill="#000" d="M15.402 4.8c6.005 0.087 10.931 5.572 13.398 10.291 0 0-0.868 1.805-1.683 2.961-0.394 0.559-0.809 1.104-1.244 1.631-0.311 0.375-0.631 0.74-0.964 1.095-2.974 3.173-7.245 5.541-11.755 4.622-5.010-1.021-9.097-5.383-11.554-10.075 0 0 0.872-1.807 1.691-2.961 0.367-0.518 0.752-1.021 1.155-1.51 0.309-0.374 0.629-0.74 0.96-1.095 2.628-2.813 5.999-4.979 9.995-4.96zM15.381 7.108c-3.345-0.013-6.126 1.885-8.327 4.241-0.299 0.32-0.588 0.65-0.867 0.988-0.367 0.445-0.718 0.905-1.053 1.377s-0.677 1.065-0.949 1.57c2.166 3.698 5.417 7.038 9.416 7.853 3.727 0.76 7.205-1.328 9.663-3.95 0.3-0.32 0.591-0.651 0.871-0.99 0.398-0.481 0.776-0.977 1.135-1.488 0.333-0.472 0.675-1.068 0.947-1.573-2.248-3.822-6.093-7.953-10.836-8.028z"></path>
<path opacity="0.6" fill="#000" d="M15.2 10.583c2.513 0 4.553 2.073 4.553 4.626s-2.040 4.626-4.553 4.626c-2.512 0-4.553-2.072-4.553-4.626s2.040-4.626 4.553-4.626z"></path>
</svg>
