<!-- Generated by IcoMoon.io -->
<svg version="1.1" xmlns="http://www.w3.org/2000/svg" width="32" height="32" viewBox="0 0 32 32">
<title>tiktok</title>
<path d="M22.623 4.235l-0.656-1.035h-3.971v9.319l-0.014 9.103c0.007 0.068 0.014 0.142 0.014 0.21 0 2.279-1.854 4.139-4.14 4.139s-4.14-1.853-4.14-4.139c0-2.279 1.854-4.139 4.14-4.139 0.474 0 0.934 0.088 1.36 0.237v-4.545c-0.44-0.074-0.893-0.115-1.36-0.115-4.715 0.007-8.558 3.848-8.558 8.568s3.843 8.562 8.565 8.562c4.722 0 8.565-3.841 8.565-8.562v-10.827c1.712 1.711 3.924 3.381 6.373 3.916v-4.646c-2.659-1.177-5.304-4.653-6.177-6.046z"></path>
</svg>
