<!-- Generated by IcoMoon.io -->
<svg version="1.1" xmlns="http://www.w3.org/2000/svg" width="32" height="32" viewBox="0 0 32 32">
<title>time</title>
<path fill="#939bab" d="M16.001 4.267c-6.48 0-11.733 5.253-11.733 11.733s5.253 11.733 11.733 11.733c6.48 0 11.733-5.253 11.733-11.733s-5.253-11.733-11.733-11.733zM1.334 16c0-8.1 6.566-14.667 14.667-14.667s14.667 6.566 14.667 14.667c0 8.1-6.567 14.667-14.667 14.667s-14.667-6.567-14.667-14.667zM15.749 8.311c0.81 0 1.467 0.657 1.467 1.467v7.285l5.173 1.967c0.757 0.288 1.138 1.135 0.85 1.892s-1.135 1.138-1.892 0.85l-6.118-2.326c-0.569-0.216-0.946-0.762-0.946-1.371v-8.297c0-0.81 0.657-1.467 1.467-1.467z"></path>
</svg>
