<svg width="13" height="17" viewBox="0 0 13 17" fill="none" xmlns="http://www.w3.org/2000/svg">
<path fill-rule="evenodd" clip-rule="evenodd" d="M6.38345 0.0268477C6.72043 0.117959 6.95449 0.423694 6.95449 0.772794V6.18184H11.5908C11.8675 6.18184 12.1231 6.32977 12.2608 6.5697C12.3987 6.80962 12.3977 7.10488 12.2583 7.34388L6.84925 16.6165C6.6733 16.9181 6.31707 17.0643 5.98009 16.9731C5.64311 16.882 5.40905 16.5763 5.40905 16.2272V10.8182H0.772721C0.496033 10.8182 0.240471 10.6702 0.102664 10.4303C-0.0351428 10.1904 -0.0341539 9.8951 0.10526 9.6561L5.51429 0.383443C5.69024 0.0818963 6.04647 -0.0642569 6.38345 0.0268477ZM2.11806 9.27275H6.18177C6.60854 9.27275 6.95449 9.6187 6.95449 10.0455V13.3689L10.2455 7.72731H6.18177C5.755 7.72731 5.40905 7.38136 5.40905 6.95456V3.63103L2.11806 9.27275Z" fill="#333333"/>
<path d="M2.11806 9.27275H6.18177C6.60854 9.27275 6.95449 9.6187 6.95449 10.0455V13.3689L10.2455 7.72731H6.18177C5.755 7.72731 5.40905 7.38136 5.40905 6.95456V3.63103L2.11806 9.27275Z" fill="#333333"/>
</svg>
