<!-- Generated by IcoMoon.io -->
<svg version="1.1" xmlns="http://www.w3.org/2000/svg" width="32" height="32" viewBox="0 0 32 32">
<title>users</title>
<path fill="#8a8ea0" d="M1.953 20.619c1.25-1.25 2.946-1.953 4.714-1.953h10.667c1.768 0 3.464 0.702 4.714 1.953s1.953 2.946 1.953 4.714v2.667c0 0.736-0.597 1.333-1.333 1.333s-1.333-0.597-1.333-1.333v-2.667c0-1.061-0.421-2.078-1.172-2.828s-1.768-1.172-2.828-1.172h-10.667c-1.061 0-2.078 0.421-2.828 1.172s-1.172 1.768-1.172 2.828v2.667c0 0.736-0.597 1.333-1.333 1.333s-1.333-0.597-1.333-1.333v-2.667c0-1.768 0.702-3.464 1.953-4.714z"></path>
<path fill="#8a8ea0" d="M12 5.333c-2.209 0-4 1.791-4 4s1.791 4 4 4c2.209 0 4-1.791 4-4s-1.791-4-4-4zM5.333 9.333c0-3.682 2.985-6.667 6.667-6.667s6.667 2.985 6.667 6.667c0 3.682-2.985 6.667-6.667 6.667s-6.667-2.985-6.667-6.667z"></path>
<path fill="#8a8ea0" d="M30.602 21.253c-0.905-1.167-2.172-2.001-3.602-2.371-0.697-0.18-1.408 0.226-1.611 0.911-0.152 0.697 0.248 1.491 0.944 1.671 0.858 0.221 1.618 0.722 2.161 1.422s0.838 1.561 0.839 2.447v2.666c0 0.736 0.597 1.333 1.333 1.333s1.333-0.597 1.333-1.333v-2.668c-0.001-1.477-0.493-2.912-1.398-4.079z"></path>
<path fill="#8a8ea0" d="M20.042 3.843c0.183-0.713 0.909-1.144 1.622-0.961 1.434 0.367 2.705 1.201 3.613 2.371s1.4 2.608 1.4 4.088-0.493 2.918-1.4 4.088c-0.908 1.169-2.179 2.003-3.613 2.371-0.713 0.183-1.44-0.248-1.622-0.961s0.248-1.44 0.961-1.622c0.86-0.22 1.623-0.721 2.168-1.422s0.84-1.565 0.84-2.453-0.296-1.751-0.84-2.453c-0.545-0.702-1.307-1.202-2.168-1.422-0.713-0.183-1.144-0.909-0.961-1.622z"></path>
</svg>
