<!-- Generated by IcoMoon.io -->
<svg version="1.1" xmlns="http://www.w3.org/2000/svg" width="32" height="32" viewBox="0 0 32 32">
<title>video-call</title>
<path fill="#8a8ea0" d="M27.618 12.236l-3.236 1.618v4.292l3.236 1.618v-7.528zM26.935 9.487c1.584-0.792 3.447 0.36 3.447 2.13v8.764c0 1.771-1.863 2.922-3.447 2.13l-4-2c-0.807-0.404-1.317-1.228-1.317-2.13v-4.764c0-0.902 0.51-1.727 1.317-2.13l4-2z"></path>
<path fill="#8a8ea0" d="M1.618 10c0-1.315 1.066-2.382 2.382-2.382h18c1.316 0 2.382 1.066 2.382 2.382v12c0 1.316-1.066 2.382-2.382 2.382h-18c-1.315 0-2.382-1.066-2.382-2.382v-12zM4.382 10.382v11.236h17.236v-11.236h-17.236z"></path>
</svg>
