<!-- Generated by IcoMoon.io -->
<svg version="1.1" xmlns="http://www.w3.org/2000/svg" width="32" height="32" viewBox="0 0 32 32">
<title>voice-call</title>
<path fill="#8a8ea0" d="M16.098 6.878c-1.981 0-3.587 1.606-3.587 3.586v7.515c0 1.98 1.606 3.586 3.587 3.586s3.587-1.606 3.587-3.586v-7.515c0-1.98-1.606-3.586-3.587-3.586zM9.663 10.465c0-3.554 2.881-6.434 6.435-6.434s6.435 2.88 6.435 6.434v7.515c0 3.553-2.881 6.434-6.435 6.434s-6.435-2.88-6.435-6.434v-7.515zM6.076 15.303c0.786 0 1.424 0.638 1.424 1.424v1.253c0 4.747 3.849 8.596 8.598 8.596s8.598-3.849 8.598-8.596v-1.253c0-0.786 0.638-1.424 1.424-1.424s1.424 0.638 1.424 1.424v1.253c0 6.321-5.125 11.444-11.446 11.444s-11.446-5.123-11.446-11.444v-1.253c0-0.786 0.638-1.424 1.424-1.424z"></path>
</svg>
