<!-- Generated by IcoMoon.io -->
<svg version="1.1" xmlns="http://www.w3.org/2000/svg" width="32" height="32" viewBox="0 0 32 32">
<title>auth-red</title>
<path fill="#000" d="M23.682 29.347c-1.416 0.294-2.678 0.068-3.862-0.565-0.641-0.356-1.266-0.772-1.874-1.176-0.927-0.611-1.822-1.27-2.65-2.026-0.842-0.753-1.498-1.639-1.97-2.658-0.184-0.386-0.358-0.788-0.502-1.181-0.374-1.023-0.434-2.091-0.37-3.168 0.052-0.921 0.187-1.843 0.295-2.76 0.129-1.103 0.259-2.207 0.245-3.325-0.005-0.7-0.315-1.23-0.875-1.602-0.482-0.33-0.962-0.646-1.469-0.958-0.727-0.438-1.546-0.621-2.382-0.745-0.866-0.132-1.662-0.417-2.289-1.070-0.576-0.607-0.641-1.323-0.504-2.092 0.024-0.173 0.058-0.361 0.114-0.512 0.114-0.288 0.239-0.591 0.399-0.86 0.182-0.3 0.494-0.429 0.85-0.398 0.499 0.047 0.821 0.491 0.672 0.967-0.059 0.207-0.175 0.411-0.28 0.599-0.273 0.486-0.248 0.621 0.255 0.835 1.035 0.437 2.048 0.905 3.186 1.070 1.011 0.161 1.977 0.526 2.923 0.938 0.382 0.167 0.657 0.437 0.874 0.775 0.448 0.673 0.674 1.429 0.781 2.222 0.206 1.475 0.146 2.944 0.101 4.424-0.025 0.916-0.049 1.831-0.006 2.734 0.064 1.165 0.587 2.16 1.412 2.972 0.996 0.977 2.19 1.664 3.555 1.996 1.174 0.284 2.351 0.582 3.52 0.91 0.382 0.096 0.751 0.266 1.105 0.437 0.806 0.41 1.213 1.090 1.13 1.988-0.079 0.926-0.525 1.612-1.417 1.934-0.339 0.134-0.702 0.216-0.968 0.294zM14.095 20.368c-0.027 0.005-0.041 0.008-0.065 0.026 0.057 0.228 0.089 0.474 0.173 0.696 0.146 0.407 0.317 0.795 0.488 1.184 0.382 0.839 0.938 1.562 1.627 2.175 1.218 1.117 2.602 1.993 4.010 2.85 1.046 0.645 2.17 0.812 3.363 0.449 0.184-0.063 0.388-0.101 0.553-0.188 0.419-0.233 0.434-0.824 0.026-1.056-0.25-0.135-0.51-0.255-0.79-0.328-1.107-0.297-2.202-0.61-3.329-0.861-1.552-0.354-2.907-1.081-4.108-2.103-0.832-0.699-1.432-1.582-1.844-2.583-0.015-0.081-0.060-0.171-0.105-0.261z"></path>
<path fill="#ea552b" d="M19.402 10.334c0.037 0.722 0.084 1.568 0.144 2.411 0.081 1.106-0.051 2.196-0.124 3.302-0.081 1.136-0.052 2.266 0.091 3.402 0.050 0.341 0.127 0.677 0.242 0.992 0.084 0.223 0.235 0.432 0.406 0.596 0.36 0.353 0.795 0.58 1.255 0.788 0.992 0.431 1.972 0.877 2.953 1.324 0.322 0.15 0.634 0.316 0.912 0.53 0.862 0.637 1.409 1.46 1.406 2.567-0.001 1.416-1.094 2.686-2.491 2.934-0.937 0.162-1.851 0.067-2.719-0.303-1.126-0.476-2.222-1.013-3.237-1.719-0.565-0.398-1.081-0.834-1.54-1.337-0.091-0.109-0.195-0.216-0.296-0.309-0.864-0.721-1.431-1.652-1.927-2.652-0.72-1.449-0.904-2.956-0.613-4.538 0.116-0.652 0.286-1.315 0.445-1.961 0.216-0.867 0.418-1.732 0.432-2.631 0.022-0.705-0.067-1.403-0.294-2.089-0.342-1.001-0.976-1.765-1.877-2.311-0.316-0.193-0.657-0.367-0.993-0.514-1.508-0.642-3.044-1.139-4.699-1.291-0.070-0.001-0.129-0.018-0.2-0.019-1.083-0.021-1.633-1.235-1.347-2.102 0.216-0.643 0.547-1.196 0.982-1.712 0.518-0.602 1.174-0.991 1.956-1.152 0.338-0.063 0.677-0.127 1.007-0.161 1.255-0.109 2.49 0.052 3.668 0.503 0.468 0.179 0.925 0.373 1.371 0.584 2.342 1.13 3.865 2.975 4.676 5.43 0.138 0.437 0.249 0.878 0.41 1.437z"></path>
<path fill="#fbe8de" d="M12.622 4.29c-0.063-0.338-0.326-0.542-0.637-0.483-0.271 0.051-0.46 0.311-0.418 0.611 0.055 0.368 0.322 0.598 0.62 0.542 0.3-0.042 0.496-0.345 0.435-0.67zM18.098 9.205c0.061 0.325-0.162 0.633-0.5 0.696-0.327 0.047-0.617-0.151-0.664-0.478-0.045-0.314 0.167-0.606 0.492-0.667 0.309-0.072 0.612 0.124 0.673 0.448zM16.681 13.759c0.352-0.066 0.526-0.407 0.448-0.827-0.072-0.309-0.316-0.487-0.595-0.407-0.325 0.061-0.562 0.442-0.498 0.78 0.061 0.325 0.334 0.512 0.646 0.454zM18.38 15.641c0.074 0.393-0.133 0.712-0.463 0.745-0.314 0.045-0.622-0.178-0.642-0.51-0.014-0.151 0.023-0.327 0.079-0.477 0.084-0.226 0.258-0.343 0.509-0.348 0.238-0.003 0.352 0.158 0.431 0.354 0.031 0.092 0.063 0.184 0.086 0.236zM17.33 18.684c0.003-0.048 0.005-0.096 0.009-0.144-0.067-0.282-0.197-0.454-0.404-0.513-0.234-0.054-0.495 0.051-0.638 0.26s-0.2 0.43-0.138 0.685c0.067 0.282 0.297 0.463 0.564 0.469s0.515-0.167 0.575-0.444c0.020-0.101 0.026-0.205 0.032-0.312zM21.106 24.588l0 0.020 0.001 0.051c0.024 0.040 0.049 0.087 0.076 0.138v0c0.067 0.125 0.146 0.274 0.25 0.404 0.192 0.202 0.503 0.214 0.726 0.060 0.21-0.151 0.297-0.434 0.181-0.678-0.092-0.193-0.225-0.378-0.355-0.55-0.128-0.158-0.305-0.209-0.506-0.157-0.214 0.054-0.34 0.204-0.37 0.42-0.008 0.085-0.006 0.168-0.003 0.293zM18.625 23.078c0.071 0.379-0.133 0.712-0.469 0.788-0.338 0.064-0.646-0.159-0.701-0.527-0.060-0.395 0.15-0.771 0.477-0.818s0.624 0.191 0.693 0.557zM23.968 27.36c0.311-0.058 0.52-0.364 0.459-0.689-0.117-0.398-0.332-0.722-0.695-0.64-0.338 0.063-0.564 0.428-0.493 0.807 0.080 0.35 0.404 0.583 0.729 0.522zM14.017 6.649c0.289-0.026 0.568 0.188 0.597 0.491 0.031 0.316-0.194 0.611-0.524 0.645-0.289 0.026-0.536-0.166-0.578-0.466-0.034-0.33 0.191-0.624 0.505-0.669zM8.009 5.996c0.203-0.038 0.319-0.242 0.281-0.445-0.054-0.214-0.261-0.344-0.448-0.294s-0.311 0.283-0.262 0.47c0.049 0.187 0.239 0.305 0.429 0.27z"></path>
</svg>
