<svg width="22" height="27" viewBox="0 0 22 27" fill="none" xmlns="http://www.w3.org/2000/svg">
<path d="M8.07948 22.4357C8.14467 21.7494 8.20986 21.0631 8.23257 20.37C8.24224 18.9347 7.836 17.6512 6.87296 16.5843C5.87418 15.4682 4.9246 14.3163 3.48508 13.7835C3.27944 13.7074 3.04478 13.5396 2.94427 13.3495C2.81474 13.0677 2.61372 12.6875 2.69657 12.4394C2.77942 12.1913 3.17305 11.9053 3.4771 11.91C7.49916 11.8069 9.75622 9.3779 11.3699 6.06319C11.7593 5.25406 12.0347 4.33981 12.3459 3.47475C12.5205 3.19761 12.5251 2.89356 12.6929 2.6589C12.854 2.46671 13.1492 2.25224 13.3123 2.32163C13.4822 2.34854 13.6475 2.67951 13.7413 2.91207C13.7993 3.09543 13.7232 3.30107 13.6896 3.51345C13.5058 4.39869 13.3287 5.24145 13.145 6.12669C12.9477 7.09688 12.708 8.06035 12.5532 9.03727C12.2551 10.6446 13.1197 11.783 14.293 12.622C15.0395 13.1321 15.8978 13.4858 16.8949 13.5131C17.503 13.5224 18.0708 13.7865 18.6944 13.9723C18.9001 14.0485 19.1057 14.1246 19.2129 14.2722C19.3492 14.5115 19.5145 14.8425 19.4808 15.0548C19.4203 15.4371 19.0313 15.419 18.6982 15.3227C18.1528 15.1928 17.6498 15.0695 17.1111 14.8971C16.1119 14.6082 15.137 14.715 14.1488 14.9068C13.6971 15.0094 13.2185 15.2819 12.9456 15.6305C12.364 16.2786 11.7824 16.9266 11.4422 17.7C10.6364 19.4882 9.9938 21.3457 9.27298 23.1473C9.12747 23.5161 9.06691 23.8984 8.84318 24.2113C8.72459 24.4102 8.38689 24.6179 8.217 24.591C8.0471 24.5641 7.79687 24.2197 7.83052 24.0073C7.86879 23.4909 7.99874 22.9454 8.07948 22.4357Z" fill="#333333"/>
</svg>
