<svg width="47" height="45" viewBox="0 0 47 45" fill="none" xmlns="http://www.w3.org/2000/svg">
<g id="49">
<path id="Union" fill-rule="evenodd" clip-rule="evenodd" d="M18.6116 16.6185C18.694 16.8114 18.7778 17.0074 18.8541 17.2108C18.9679 17.1729 19.065 17.1516 19.1528 17.1323C19.2652 17.1077 19.3624 17.0864 19.4595 17.0378C19.479 16.9697 19.4984 16.9027 19.5176 16.8365C19.6692 16.3146 19.8054 15.8454 19.8054 15.3081C19.8054 10.8973 19.8054 6.48649 19.719 2.07568C19.719 1.64324 19.719 1.12432 19.4595 0.864865C19.0271 0.432432 18.5081 0 17.9892 0C17.6433 0 17.0379 0.518919 16.8649 1.03784C16.6054 1.55676 16.6054 2.24865 16.6919 2.85405C17.081 6.58957 17.5402 10.2551 18.0063 13.9766C18.0582 14.3908 18.1102 14.8058 18.1622 15.2216C18.2233 15.7101 18.4136 16.1554 18.6116 16.6185ZM44.9508 19.6734C45.4996 19.5033 46.0514 19.3322 46.616 19.1993C46.616 19.1128 46.5295 18.9399 46.443 18.7669H27.243C26.8971 18.7669 26.4647 18.7669 26.2052 18.9399C26.1656 18.9716 26.1245 19.004 26.0825 19.0372C25.6662 19.3658 25.1594 19.7658 25.0809 20.2372C24.9944 21.0155 25.5998 21.448 26.3782 21.6209C26.8971 21.7074 27.3295 21.7074 27.8484 21.7074C32.6917 21.275 37.5349 20.8426 42.2917 20.3236C43.1974 20.2171 44.0703 19.9465 44.9508 19.6734ZM21.7561 44.0213C21.8906 44.2807 22.0252 44.5402 22.1405 44.7997C22.3134 44.7997 22.4864 44.7132 22.6594 44.6267C22.6594 44.5402 22.7026 44.4537 22.7459 44.3672C22.7891 44.2807 22.8324 44.1943 22.8324 44.1078V30.1834C22.8324 29.578 22.7459 28.9726 22.6594 28.3672C22.4864 27.5024 21.881 26.897 20.9297 26.897C19.8918 26.897 19.4594 27.6753 19.3729 28.5402C19.3158 28.8828 19.3341 29.1877 19.3531 29.5047V29.5048V29.5048C19.3629 29.6679 19.3729 29.8342 19.3729 30.0105L19.3729 30.0106C19.4594 31.3078 19.5459 32.6051 19.7188 33.9024C20.1513 36.7564 20.5837 39.6105 21.1026 42.4645C21.2179 42.9834 21.487 43.5024 21.7561 44.0213ZM17.9354 21.8432L17.9354 21.8432L17.9353 21.8432C17.4686 22.0253 17.0111 22.2038 16.5189 22.3132C12.5824 22.9307 8.5769 23.4793 4.62553 24.0205L4.62549 24.0205L3.2 24.2159C2.50811 24.3024 1.72973 24.3889 1.12432 24.1294C0.691892 23.8699 0 23.351 0 22.9186C0 22.4861 0.518919 21.9672 0.951351 21.5348C1.12432 21.3618 1.55676 21.2753 1.9027 21.2753C6.65946 21.1024 11.4162 20.9294 16.173 20.8429C16.9514 20.8429 17.8162 20.9294 18.5946 21.0159C18.6378 21.1024 18.6595 21.1889 18.6811 21.2753C18.7027 21.3618 18.7243 21.4483 18.7676 21.5348C18.4813 21.6302 18.2068 21.7373 17.9354 21.8432Z" fill="#333333"/>
</g>
</svg>
