<svg width="129" height="235" viewBox="0 0 129 235" fill="none" xmlns="http://www.w3.org/2000/svg">
<path d="M128.122 133.969C128.195 148.361 126.893 159.208 123.566 169.694C118.576 185.532 109.464 198.621 96.8089 209.179C81.9116 221.618 64.917 229.79 45.8252 233.406C36.8579 235.069 27.8182 235.358 18.7063 234.418C6.26772 233.189 -6.02621 230.875 -17.9585 226.969C-23.31 225.161 -28.6615 223.209 -33.8683 221.039C-40.7385 218.291 -46.9578 214.459 -52.8155 209.975C-57.8777 206.07 -62.7952 202.092 -67.2789 197.536C-72.992 191.751 -77.7649 185.315 -81.3084 178.083C-86.3707 167.814 -90.5651 157.256 -93.3131 146.119C-94.4702 141.418 -95.121 136.573 -95.4103 131.728C-95.7719 126.159 -96.0612 120.518 -95.9888 114.95C-95.8442 102.15 -92.0114 90.2899 -85.8644 79.0807C-78.5604 65.702 -68.1467 55.1437 -55.4912 46.8272C-52.3092 44.73 -49.2719 42.4882 -46.3069 40.0294C-37.4842 32.5807 -28.2276 25.7829 -18.3925 19.7083C-3.56742 10.6686 12.3424 4.52164 29.4816 1.48432C37.9427 0.0379714 46.4761 -0.540567 55.0095 0.616509C68.9668 2.56907 79.959 9.22226 87.6246 21.2269C90.8066 26.2891 93.193 31.7129 95.2902 37.3537C96.375 40.3187 97.3874 43.2114 98.3999 46.1764C101.365 54.7098 104.836 63.0263 108.958 71.0535C111.706 76.405 114.31 81.8288 116.985 87.1802C124.723 103.018 128.412 119.795 128.122 133.969Z" fill="#55BBDA"/>
<mask id="mask0_1_11969" style="mask-type:alpha" maskUnits="userSpaceOnUse" x="-96" y="0" width="225" height="235">
<path d="M128.122 133.969C128.195 148.361 126.893 159.208 123.566 169.694C118.576 185.532 109.464 198.621 96.8089 209.179C81.9116 221.618 64.917 229.79 45.8252 233.406C36.8579 235.069 27.8182 235.358 18.7063 234.418C6.26772 233.189 -6.02621 230.875 -17.9585 226.969C-23.31 225.161 -28.6615 223.209 -33.8683 221.039C-40.7385 218.291 -46.9578 214.459 -52.8155 209.975C-57.8777 206.07 -62.7952 202.092 -67.2789 197.536C-72.992 191.751 -77.7649 185.315 -81.3084 178.083C-86.3707 167.814 -90.5651 157.256 -93.3131 146.119C-94.4702 141.418 -95.121 136.573 -95.4103 131.728C-95.7719 126.159 -96.0612 120.518 -95.9888 114.95C-95.8442 102.15 -92.0114 90.2899 -85.8644 79.0807C-78.5604 65.702 -68.1467 55.1437 -55.4912 46.8272C-52.3092 44.73 -49.2719 42.4882 -46.3069 40.0294C-37.4842 32.5807 -28.2276 25.7829 -18.3925 19.7083C-3.56742 10.6686 12.3424 4.52164 29.4816 1.48432C37.9427 0.0379714 46.4761 -0.540567 55.0095 0.616509C68.9668 2.56907 79.959 9.22226 87.6246 21.2269C90.8066 26.2891 93.193 31.7129 95.2902 37.3537C96.375 40.3187 97.3874 43.2114 98.3999 46.1764C101.365 54.7098 104.836 63.0263 108.958 71.0535C111.706 76.405 114.31 81.8288 116.985 87.1802C124.723 103.018 128.412 119.795 128.122 133.969Z" fill="black"/>
</mask>
<g mask="url(#mask0_1_11969)">
<path d="M9.40556 -108.438C8.39311 -108.149 7.30836 -107.859 6.29591 -107.57C0.00431824 -106.051 -5.34716 -102.869 -10.1924 -98.7474C-16.8456 -93.0343 -22.5587 -86.4534 -27.9824 -79.5833C-37.8176 -66.9278 -46.4957 -53.4045 -54.5952 -39.5919C-71.7344 -10.2311 -86.7764 20.1422 -99.3595 51.7448C-105.145 66.2083 -109.412 81.1779 -112.015 96.5815C-114.257 109.816 -115.197 123.122 -114.474 136.501C-113.678 152.627 -110.713 168.32 -104.422 183.218C-100.01 193.776 -94.1527 203.394 -86.2701 211.783C-85.547 212.506 -84.8238 213.229 -84.0283 213.952C-83.956 214.025 -83.8113 214.025 -83.5221 214.025C-83.739 212.361 -83.8837 210.843 -84.1006 209.252C-84.8961 202.382 -84.8238 195.511 -84.1729 188.641C-83.3774 180.108 -81.5695 171.719 -79.0384 163.547C-78.8215 162.824 -78.8215 161.956 -79.0384 161.161C-81.6418 149.373 -82.582 137.513 -82.0034 125.508C-80.8463 100.848 -74.1208 77.6344 -62.8394 55.8669C-46.4233 24.2643 -23.5711 -1.69763 6.07896 -21.5849C16.9989 -28.8889 28.5696 -35.1082 41.0805 -39.3749C44.9133 -40.6766 48.8908 -41.5444 52.7959 -42.4846C54.0253 -42.7738 55.327 -42.7738 56.5564 -42.7738C57.0626 -42.7738 57.6411 -42.5569 58.1474 -42.4122C58.1474 -42.2676 58.1474 -42.1953 58.1474 -42.0506C57.8581 -41.906 57.4965 -41.6167 57.2072 -41.6167C45.8534 -40.4597 35.5121 -36.193 25.46 -31.0584C8.17616 -22.308 -7.08277 -10.7373 -20.823 2.85835C-40.2764 22.0947 -55.7523 44.1515 -66.5275 69.3179C-72.7468 83.7813 -76.7966 98.751 -78.7491 114.372C-80.4124 128.184 -80.2678 141.924 -77.809 155.665C-77.6644 156.316 -77.5197 156.894 -77.3751 157.906C-77.0858 157.256 -76.8689 156.894 -76.7243 156.532C-71.3005 142.286 -63.8518 129.269 -54.3782 117.337C-53.7274 116.469 -53.5827 115.673 -53.5827 114.661C-53.7274 109.671 -54.1613 104.681 -53.7997 99.7634C-52.0641 74.0185 -42.7352 51.6002 -23.8604 33.5932C-14.3868 24.6258 -3.32227 18.4066 9.40556 15.5139C23.2181 12.4042 36.5245 13.6336 49.1077 20.5038C50.988 21.5162 52.7959 22.7456 54.6761 23.9027C56.7733 22.8902 58.9429 21.8778 61.1847 20.8653C61.9079 20.5761 61.8355 19.9252 61.8355 19.419C61.9079 16.9602 61.9802 14.4291 61.9802 11.9703C61.8355 1.99055 61.9079 -8.06155 61.474 -18.0413C61.0401 -30.2629 59.9553 -42.4846 57.4965 -54.5615C56.0502 -61.7933 53.8083 -68.7357 50.6264 -75.4612C50.3371 -76.0397 50.1202 -76.6183 50.1202 -77.2691C50.3371 -76.9076 50.6264 -76.546 50.771 -76.1844C54.8208 -68.3018 57.4965 -59.9853 59.1598 -51.3073C61.0401 -41.6167 62.0525 -31.8539 62.7034 -22.0911C63.6435 -8.92935 63.7158 4.23238 63.5712 17.4664C63.5712 18.045 63.5712 18.6235 63.5712 19.202C63.5712 19.2744 63.6435 19.419 63.7881 19.636C64.439 19.419 65.1621 19.202 65.8853 18.9128C73.8402 16.0201 82.0121 14.3568 90.5455 14.6461C111.228 15.2246 127.138 24.4812 138.347 41.8373C144.133 50.877 147.242 60.8568 148.327 71.4874C150.135 88.7712 146.519 105.115 139.143 120.663C136.973 125.219 134.297 129.558 131.694 133.969C131.115 135.054 130.971 135.85 131.332 137.007C134.514 146.697 135.31 156.677 134.225 166.802C131.911 189.003 122.799 208.312 108.769 225.451C99.9467 236.154 89.6054 245.049 77.3114 251.557C69.2842 255.824 60.7508 258.717 51.6388 259.585C40.9359 260.597 30.6668 258.861 21.0486 253.799C19.8192 253.148 18.9514 253.221 17.7944 253.944C8.17617 260.235 -2.1652 264.574 -13.519 266.455C-28.0548 268.841 -42.012 267.178 -54.8845 259.585C-65.949 253.076 -73.5423 243.53 -78.6045 231.815C-80.2678 227.91 -81.5695 223.932 -82.5096 219.81C-82.7266 218.942 -82.9435 218.219 -83.6667 217.568C-94.0081 208.167 -101.384 196.741 -106.736 183.941C-111.147 173.31 -113.895 162.246 -115.486 150.819C-117.367 137.513 -117.439 124.207 -116.209 110.828C-114.185 89.2775 -108.688 68.667 -100.517 48.7075C-85.9809 13.1997 -68.8417 -21.0063 -48.3759 -53.4768C-40.9995 -65.1922 -33.0447 -76.4736 -23.9327 -86.9596C-19.9552 -91.5156 -15.6885 -95.71 -11.0602 -99.6152C-4.98557 -104.316 1.66761 -107.57 9.40556 -108.438ZM129.669 132.379C129.814 132.379 130.031 132.451 130.175 132.451C130.537 131.945 130.898 131.438 131.188 130.932C133.357 126.955 135.671 123.122 137.624 119C144.856 103.452 148.327 87.1802 146.157 69.9687C144.711 58.6873 140.951 48.2736 134.08 39.1616C123.522 25.1321 109.493 17.6111 91.9195 16.8156C82.5906 16.3817 73.6233 18.2619 64.9452 21.5885C64.0051 21.9501 63.7158 22.4563 63.7158 23.3965C63.7158 25.8552 63.6435 28.2417 63.4988 30.7005C63.4265 31.6406 63.7881 32.3638 64.3667 33.0146C68.4164 37.7153 71.5261 42.9221 73.9848 48.6352C76.4436 54.2759 78.1069 60.1336 79.1194 66.2083C79.264 67.1484 79.6256 67.7269 80.638 68.0162C81.7951 68.3055 82.9522 68.8117 84.037 69.2456C95.2461 73.5846 105.154 79.9485 113.108 89.0605C123.161 100.559 128.078 114.155 129.018 129.269C129.163 130.281 129.524 131.366 129.669 132.379ZM52.4343 25.349C52.2897 25.1321 52.2174 25.0597 52.145 24.9874C52.0004 24.8428 51.7834 24.6982 51.5665 24.5535C43.9009 19.4913 35.5121 16.7433 26.3278 16.1647C14.5401 15.5139 3.47555 18.3342 -6.86582 23.9027C-20.0999 31.0621 -30.2243 41.4034 -37.8176 54.2759C-48.3036 71.9936 -52.7149 91.23 -51.6302 111.768C-51.6302 112.347 -51.4855 112.853 -51.4132 113.431C-51.1963 113.359 -51.0516 113.359 -50.9793 113.287C-50.6177 112.925 -50.2561 112.491 -49.9669 112.13C-34.5633 94.4843 -16.2671 80.744 5.57274 71.9936C6.44055 71.632 6.94677 71.0535 7.453 70.3303C10.2734 66.2082 13.0214 61.9415 16.0587 57.9641C25.8939 45.0193 37.537 34.0271 51.6388 25.8552C51.9281 25.6383 52.145 25.4937 52.4343 25.349ZM129.452 138.381C129.308 138.381 129.235 138.453 129.091 138.453C129.018 138.959 128.874 139.466 128.874 139.972C128.584 144.094 127.934 148.144 126.849 152.121C120.268 177.143 105.732 196.307 83.8923 209.975C73.7679 216.266 62.7034 220.027 50.6264 219.955C49.6862 219.955 49.3247 220.461 48.9631 221.184C42.5268 232.899 33.7765 242.662 23.0735 250.69C22.6396 250.979 22.278 251.34 21.7718 251.774C22.4227 252.136 22.9289 252.425 23.4351 252.642C33.8488 257.777 44.841 259.006 56.1948 256.909C66.1023 255.101 75.1419 251.051 83.5307 245.483C97.9218 235.937 109.276 223.498 118.026 208.746C126.776 193.92 132.056 177.938 132.562 160.655C132.779 153.64 131.911 146.697 129.958 139.9C129.814 139.321 129.669 138.815 129.452 138.381ZM78.7578 103.307C78.6131 103.886 78.5408 104.175 78.4685 104.464C77.0945 111.84 75.1419 119.144 72.6831 126.232C68.4887 138.598 62.9926 150.385 56.4841 161.667C55.9779 162.535 55.6886 163.258 55.9778 164.27C57.8581 170.562 58.7982 176.998 58.7259 183.579C58.7259 184.013 58.7982 184.447 58.8705 184.881C59.0875 184.881 59.2321 184.953 59.3044 184.953C59.8107 184.809 60.3169 184.736 60.8231 184.519C86.7127 176.781 107.685 161.956 124.318 140.767C126.849 137.513 126.776 137.513 126.849 133.391C126.849 132.234 126.776 131.149 126.198 130.064C117.52 113.359 103.78 104.392 84.9771 103.307C83.0245 103.162 80.9273 103.307 78.7578 103.307ZM26.4724 129.124C26.9787 128.546 27.4126 128.039 27.9188 127.533C34.7166 120.012 42.5268 113.865 51.4942 109.165C52.6513 108.586 54.1699 108.152 54.8208 107.14C55.4716 106.127 55.3993 104.609 55.5439 103.307C56.8457 91.9532 58.075 80.5271 59.3044 69.1733C59.4491 68.0162 59.4491 66.7868 59.5214 65.4851C59.0875 65.4128 58.7982 65.3404 58.5813 65.2681C56.1225 65.1235 53.5914 64.9065 51.1326 64.9065C36.9584 64.7619 23.3628 67.3653 10.0564 72.1383C8.89933 72.5722 8.10384 73.223 7.52531 74.3078C-2.67142 91.7362 -9.75851 110.322 -13.9529 130.064C-14.0252 130.426 -14.0252 130.86 -14.0975 131.438C-0.791176 125.002 12.5875 123.483 26.4724 129.124ZM4.84957 74.6694C4.77725 74.597 4.70493 74.5247 4.63261 74.4524C3.98176 74.7417 3.33091 74.9586 2.75237 75.2479C-7.66131 79.8039 -17.4241 85.5893 -26.3915 92.5317C-35.0695 99.1849 -42.8798 106.706 -49.8946 115.022C-50.7624 116.035 -51.0516 117.047 -50.8347 118.349C-50.6177 119.578 -50.4008 120.88 -50.1838 122.109C-48.3759 132.234 -44.977 141.78 -39.7702 150.602C-39.4809 151.109 -39.1193 151.615 -38.7577 152.266C-38.3961 151.832 -38.1069 151.615 -37.9622 151.326C-32.2492 144.239 -25.596 138.236 -17.7134 133.536C-16.9179 133.102 -16.6286 132.451 -16.484 131.655C-12.4342 111.913 -5.63643 93.1826 4.34335 75.6818C4.5603 75.3202 4.70493 74.9586 4.84957 74.6694ZM50.6987 217.857C51.4942 217.857 51.9281 217.857 52.362 217.857C59.883 217.641 66.9701 215.76 73.8402 212.795C84.7601 208.022 94.089 201.008 102.189 192.329C114.049 179.602 122.148 164.921 125.547 147.782C125.909 146.119 126.126 144.455 126.343 142.865C108.408 164.921 86.0618 180.108 58.7982 187.701C58.0751 198.187 55.3993 208.095 50.6987 217.857ZM-79.6893 220.895C-79.6169 221.473 -79.5446 221.763 -79.4723 222.052C-78.5322 224.872 -77.6644 227.693 -76.5796 230.368C-71.7344 241.939 -64.2134 251.34 -53.2935 257.704C-41.2888 264.719 -28.344 266.455 -14.7484 264.357C-3.53922 262.694 6.72981 258.427 16.2034 252.425C16.565 252.208 16.8542 251.919 17.2881 251.557C15.4802 250.256 13.7446 249.099 12.009 247.869C9.40556 249.532 6.58519 249.966 3.6925 249.894C1.88457 249.822 0.0766296 249.749 -1.65898 249.46C-13.4467 247.508 -24.1496 242.952 -33.3339 235.214C-34.0571 234.635 -34.708 234.346 -35.6481 234.49C-40.7103 234.997 -45.8448 234.635 -50.8347 233.84C-60.9591 232.104 -69.9988 227.982 -78.2429 221.907C-78.6045 221.618 -79.0384 221.329 -79.6893 220.895ZM9.04397 186.472C7.09141 176.203 8.03152 166.44 10.9965 156.822C13.9615 147.204 18.8791 138.598 25.0984 130.86C24.9538 130.643 24.8814 130.498 24.8091 130.498C24.5922 130.354 24.3752 130.281 24.1583 130.209C19.6746 128.401 14.974 127.389 10.1287 127.244C1.73993 126.955 -6.14265 129.124 -13.5913 132.885C-14.4591 133.319 -14.893 133.897 -14.9653 134.837C-15.6162 139.9 -16.5563 145.034 -17.0626 150.096C-17.9304 157.834 -18.2196 165.572 -17.7857 173.31C-17.7134 174.395 -17.3518 174.973 -16.484 175.552C-12.5066 178.155 -8.38448 180.397 -3.97313 182.277C0.148949 183.941 4.34335 185.387 9.04397 186.472ZM-52.9319 202.382C-52.7873 202.309 -52.7149 202.237 -52.5703 202.237C-55.1737 184.519 -50.3285 168.754 -40.2764 154.291C-47.0742 143.515 -51.124 131.8 -53.0042 119C-53.5827 119.723 -53.9443 120.085 -54.2336 120.446C-55.8969 122.688 -57.5602 124.93 -59.0789 127.172C-66.0936 137.513 -71.6621 148.578 -75.8565 160.365C-76.218 161.45 -76.2904 162.462 -76.0011 163.547C-74.6994 168.32 -73.1084 173.093 -71.1558 177.649C-67.7569 185.459 -63.2733 192.619 -57.1986 198.621C-55.7523 199.923 -54.3059 201.08 -52.9319 202.382ZM-13.3744 209.975C-13.519 209.396 -13.6636 208.962 -13.8083 208.529C-17.0626 198.332 -18.9428 187.918 -19.666 177.215C-19.7383 176.13 -20.2445 175.552 -21.04 174.973C-27.6932 169.983 -33.4786 164.053 -38.2515 157.256C-38.5408 156.822 -38.9024 156.46 -39.2639 156.026C-39.6255 156.532 -39.9871 156.966 -40.2764 157.4C-43.9646 162.969 -46.8572 168.971 -48.7375 175.407C-51.4132 184.447 -52.2087 193.559 -50.4731 202.815C-50.2562 203.973 -49.7499 204.623 -48.8098 205.274C-41.7227 209.686 -34.0571 211.855 -25.7406 211.783C-21.6185 211.711 -17.5688 211.204 -13.3744 209.975ZM-36.8775 232.321C-37.0221 232.032 -37.0221 231.959 -37.0221 231.887C-37.1667 231.742 -37.3114 231.525 -37.456 231.381C-44.0369 224.511 -48.8098 216.556 -51.2686 207.299C-51.4855 206.504 -51.9194 205.997 -52.498 205.564C-58.1387 201.586 -62.6947 196.524 -66.5275 190.811C-71.1558 183.941 -74.4101 176.492 -76.8689 168.609C-77.0135 168.031 -77.2305 167.525 -77.4474 166.946C-77.9537 167.597 -78.0983 168.176 -78.3152 168.754C-80.3401 176.275 -81.7141 183.868 -82.2204 191.606C-82.7989 199.706 -82.4373 207.805 -80.9187 215.76C-80.774 216.628 -80.4124 217.351 -79.6893 217.93C-67.7569 227.693 -54.1613 232.899 -38.6131 232.466C-38.1792 232.466 -37.6006 232.393 -36.8775 232.321ZM27.5572 131.438C26.9787 132.162 26.5447 132.595 26.1832 133.102C22.8566 137.296 20.0362 141.78 17.6497 146.553C12.2982 157.4 9.33324 168.826 10.5626 181.048C10.7796 183.073 11.1412 185.025 11.4304 187.123C13.9615 187.484 16.2757 187.846 18.6622 188.28C19.6746 188.497 20.3978 188.063 21.0486 187.34C31.5346 175.624 39.2003 162.318 44.841 147.71C45.1303 146.914 44.9856 146.336 44.4794 145.685C41.3698 141.707 37.7539 138.164 33.6318 135.271C31.6793 133.969 29.6544 132.812 27.5572 131.438ZM47.1552 219.882C36.5245 218.942 27.4849 215.109 20.0362 207.661C12.5152 214.386 4.5603 220.244 -4.33472 225.017C1.66761 235.503 9.18861 244.181 19.3853 250.4C30.9561 242.228 40.2127 232.321 47.1552 219.882ZM10.4903 69.8964C18.5175 67.293 26.5447 65.3404 34.7889 64.1834C43.0331 63.0263 51.3495 62.954 59.666 63.5325C59.8107 62.2308 59.883 61.146 59.9553 60.0613C60.3169 55.0714 60.6062 50.1538 60.9677 45.1639C61.1847 41.6204 61.3293 38.0045 61.474 34.3887C61.474 33.8101 61.474 33.1593 61.1124 32.7977C59.0875 30.4835 56.8457 28.4586 54.3146 26.5784C35.8013 37.0644 21.8441 52.1064 10.4903 69.8964ZM126.27 124.713C124.896 111.551 120.051 99.8358 111.228 89.9283C102.767 80.3101 92.1365 73.8739 79.7702 69.6795C81.1442 80.3824 80.638 90.7238 79.1194 101.137C99.2959 100.342 115.061 107.863 126.27 124.713ZM54.7485 160.004C55.1824 159.281 55.4716 158.774 55.7609 158.268C56.918 156.099 58.1474 153.929 59.3044 151.687C66.8254 137.079 72.6108 121.893 75.8651 105.693C76.0097 105.043 76.0097 104.392 76.1544 103.669C69.6458 104.392 63.6435 106.127 57.8581 108.514C56.9903 108.875 56.8457 109.454 56.701 110.249C54.8931 122.254 52.0727 134.042 48.0229 145.54C47.7337 146.336 47.806 146.914 48.2399 147.637C49.7586 150.096 51.2049 152.627 52.5789 155.158C53.3021 156.605 53.953 158.196 54.7485 160.004ZM48.3122 217.713C52.9405 208.529 55.9055 198.766 56.6287 188.207C55.9055 188.352 55.3993 188.424 54.9654 188.497C49.1077 189.798 43.1777 190.811 37.1754 191.1C36.2352 191.172 35.729 191.534 35.1505 192.185C30.9561 196.669 26.6894 201.08 22.495 205.491C22.278 205.708 22.0611 205.997 21.8441 206.214C27.8465 213.085 39.0556 217.785 48.3122 217.713ZM61.7632 65.702C60.3169 79.2977 58.9429 92.7487 57.4965 106.344C63.6435 103.813 70.0074 102.15 76.4436 101.354C78.3962 93.0379 78.8301 75.7541 77.0945 68.8117C72.1046 67.3653 67.0424 66.2806 61.7632 65.702ZM-48.8821 208.022C-48.8821 208.384 -48.9544 208.601 -48.8821 208.746C-48.5929 209.541 -48.3759 210.409 -48.0866 211.204C-45.2663 218.87 -40.8549 225.451 -35.0695 231.236C-34.3464 231.959 -33.6232 232.321 -32.6107 232.104C-32.2492 232.032 -31.8876 232.032 -31.5983 231.959C-23.4988 230.73 -15.7608 228.199 -8.45679 224.583C-8.09521 224.438 -7.80594 224.149 -7.51667 224.004C-9.25228 220.099 -10.9879 216.267 -12.6512 212.361C-25.3067 215.688 -37.3837 214.531 -48.8821 208.022ZM-11.2772 209.252C-4.91326 207.878 8.68239 199.995 11.9367 195.801C11.1412 193.631 10.3457 191.389 9.55019 189.075C0.0766296 186.833 -8.8907 183.145 -17.4965 177.577C-16.701 188.569 -14.7484 198.983 -11.2772 209.252ZM11.0688 247.074C3.83714 241.071 -1.73129 233.984 -6.07033 226.174C-10.337 227.837 -14.3868 229.645 -18.5089 231.019C-22.7033 232.393 -26.97 233.261 -31.3814 234.418C-30.8751 234.852 -30.5135 235.214 -30.0073 235.575C-22.631 241.288 -14.3145 245.049 -5.34715 247.291C-1.94824 248.086 1.45066 248.737 4.92189 248.665C6.94677 248.592 8.97166 248.303 11.0688 247.074ZM23.0012 188.569C23.6521 188.641 23.9413 188.786 24.1583 188.786C27.4125 188.858 30.5945 188.858 33.8488 188.931C34.7166 188.931 35.0782 188.424 35.5121 187.918C41.8037 180.253 47.5167 172.081 52.6513 163.547C53.1575 162.679 53.1575 162.029 52.8682 161.088C51.4219 157.256 49.6139 153.567 47.4444 150.096C47.2275 149.807 47.0105 149.518 46.6489 149.156C41.0082 163.692 33.4149 176.854 23.0012 188.569ZM54.5315 110.322C47.6614 112.564 31.2454 125.436 28.9312 130.209C30.2329 130.932 31.5346 131.655 32.764 132.523C33.9934 133.319 35.1505 134.114 36.3076 134.982C37.4646 135.922 38.6217 136.862 39.7788 137.875C40.8636 138.815 41.876 139.899 42.8884 140.912C43.9009 141.997 44.841 143.081 45.9981 144.311C49.9755 133.174 52.6513 121.965 54.5315 110.322ZM-37.8176 153.929C-32.9723 161.305 -27.187 167.452 -20.2445 172.732C-20.0276 166.295 -20.0276 160.076 -19.5937 153.857C-19.1598 147.637 -18.2196 141.418 -17.4241 134.982C-25.5237 140.044 -32.1768 146.336 -37.8176 153.929ZM18.3006 205.925C16.565 203.322 14.8293 200.863 13.0214 198.26C6.00665 204.117 -1.65897 208.746 -10.4094 211.638C-8.89069 215.616 -7.37203 219.304 -5.34715 222.847C0.872131 219.955 13.8892 210.626 18.3006 205.925ZM76.7329 66.4975C76.8052 59.0488 68.1272 38.9447 63.4988 35.9073C62.9926 45.1639 62.4141 54.4205 61.9079 63.5325C66.8978 64.545 71.743 65.5574 76.7329 66.4975ZM54.1699 165.717C49.3247 173.672 44.0455 181.193 38.1878 188.424C41.659 188.641 53.6637 186.689 56.6287 185.459C57.2796 181.048 55.9055 169.55 54.1699 165.717ZM19.9639 204.334C22.6396 202.526 31.6069 192.98 32.1855 191.317C30.9561 191.317 29.7267 191.317 28.4973 191.317C27.2679 191.317 26.0385 191.172 24.8814 191.172C23.5797 191.1 22.1334 190.738 20.9763 191.172C19.8916 191.534 19.0961 192.763 18.1559 193.704C17.0712 194.716 16.0587 195.801 14.974 196.885C16.348 199.561 18.0113 202.02 19.9639 204.334ZM61.6909 29.8327C61.6909 27.3739 61.6909 25.2767 61.6909 22.9625C60.0276 23.758 58.4366 24.4812 56.6287 25.349C58.3643 26.8677 59.883 28.2417 61.6909 29.8327ZM12.009 189.581C12.6598 191.317 13.1661 192.763 13.8169 194.427C15.1909 193.053 16.6373 192.04 17.6497 190.522C15.7695 190.232 14.1062 189.943 12.009 189.581Z" fill="black"/>
</g>
</svg>
