<svg width="25" height="25" viewBox="0 0 25 25" fill="none" xmlns="http://www.w3.org/2000/svg">
<path d="M1.04175 12.5002C1.04175 11.9249 1.50812 11.4585 2.08341 11.4585H22.9167C23.4921 11.4585 23.9584 11.9249 23.9584 12.5002C23.9584 13.0755 23.4921 13.5418 22.9167 13.5418H2.08341C1.50812 13.5418 1.04175 13.0755 1.04175 12.5002Z" fill="#0F0F0F"/>
<path d="M1.04175 4.16667C1.04175 3.59137 1.50812 3.125 2.08341 3.125H22.9167C23.4921 3.125 23.9584 3.59137 23.9584 4.16667C23.9584 4.74196 23.4921 5.20833 22.9167 5.20833H2.08341C1.50812 5.20833 1.04175 4.74196 1.04175 4.16667Z" fill="#0F0F0F"/>
<path d="M1.04175 20.8332C1.04175 20.2579 1.50812 19.7915 2.08341 19.7915H22.9167C23.4921 19.7915 23.9584 20.2579 23.9584 20.8332C23.9584 21.4085 23.4921 21.8748 22.9167 21.8748H2.08341C1.50812 21.8748 1.04175 21.4085 1.04175 20.8332Z" fill="#0F0F0F"/>
</svg>
