<svg width="63" height="63" viewBox="0 0 63 63" fill="none" xmlns="http://www.w3.org/2000/svg">
<g filter="url(#filter0_d_1233_196)">
<path d="M57.6494 15.6369C61.532 31.3714 57.9902 46.671 43.682 53.3473C28.3945 57.5563 12.429 53.9648 5.83476 39.8142C1.3608 23.8682 5.49398 8.78015 19.8021 2.1038C33.9068 -2.52808 51.7744 -0.142643 57.6494 15.6369Z" fill="#FFFBEF"/>
</g>
<path d="M18.0845 35.0211C18.0845 35.0211 31.2903 28.3599 44.3127 35.0211" stroke="#333333" stroke-width="4.72465" stroke-linecap="round"/>
<path d="M26.2179 23.7307C27.4911 23.7307 28.5232 22.6986 28.5232 21.4254C28.5232 20.1522 27.4911 19.1201 26.2179 19.1201C24.9447 19.1201 23.9126 20.1522 23.9126 21.4254C23.9126 22.6986 24.9447 23.7307 26.2179 23.7307Z" fill="#333333"/>
<path d="M35.4391 23.7307C36.7123 23.7307 37.7444 22.6986 37.7444 21.4254C37.7444 20.1522 36.7123 19.1201 35.4391 19.1201C34.1659 19.1201 33.1338 20.1522 33.1338 21.4254C33.1338 22.6986 34.1659 23.7307 35.4391 23.7307Z" fill="#333333"/>
<defs>
<filter id="filter0_d_1233_196" x="0.428727" y="0" width="62.3769" height="62.3769" filterUnits="userSpaceOnUse" color-interpolation-filters="sRGB">
<feFlood flood-opacity="0" result="BackgroundImageFix"/>
<feColorMatrix in="SourceAlpha" type="matrix" values="0 0 0 0 0 0 0 0 0 0 0 0 0 0 0 0 0 0 127 0" result="hardAlpha"/>
<feOffset dy="3.68847"/>
<feGaussianBlur stdDeviation="1.84423"/>
<feComposite in2="hardAlpha" operator="out"/>
<feColorMatrix type="matrix" values="0 0 0 0 0 0 0 0 0 0 0 0 0 0 0 0 0 0 0.25 0"/>
<feBlend mode="normal" in2="BackgroundImageFix" result="effect1_dropShadow_1233_196"/>
<feBlend mode="normal" in="SourceGraphic" in2="effect1_dropShadow_1233_196" result="shape"/>
</filter>
</defs>
</svg>
