<svg width="82" height="80" viewBox="0 0 82 80" fill="none" xmlns="http://www.w3.org/2000/svg">
<g id="39">
<path id="Vector" d="M71.3944 41.3951C70.4731 41.4599 69.9622 41.4847 69.4427 41.6107C68.1024 41.8168 66.7707 41.9216 65.4304 42.1277C64.9109 42.2538 64.3829 42.481 63.9007 42.7665C63.3641 43.0951 63.0571 43.715 63.307 44.3684C63.6027 45.0801 64.1969 45.2731 64.8628 45.2207C67.2622 45.1246 69.7535 45.1451 72.1529 45.049C73.1201 45.0425 74.096 44.9347 75.0259 44.7686C77.9619 44.344 78.9202 42.6439 77.5276 39.8677C75.5636 36.0302 73.3356 32.3064 71.208 28.5978C70.8117 27.8708 70.051 27.2421 69.3822 26.73C68.8138 26.2332 68.1651 26.0831 67.4477 26.7431C67.8499 28.5992 68.4071 30.4276 69.2743 32.2006C70.0496 33.8571 70.8708 35.5719 71.428 37.4003C70.6042 36.9159 69.7344 36.3732 68.856 35.9317C66.2755 34.5643 63.7035 33.0957 61.0512 31.9738C55.5084 29.5399 50.4198 30.1495 45.7192 33.3822C43.2283 35.1566 41.1048 37.3972 39.1278 39.7114C38.2297 40.7028 37.3315 41.6942 36.4334 42.6856C34.2009 45.0122 31.4429 46.3357 28.2888 46.9322C23.2203 47.9038 18.1888 47.24 13.3492 44.9132C9.92763 43.2639 6.69539 41.1819 3.68984 38.8268C3.25924 38.5048 2.99222 38.0539 2.56163 37.7319C2.22291 37.5265 1.63733 37.2322 1.3733 37.3458C1.05475 37.5024 0.601389 38.0487 0.667491 38.469C0.670483 39.0336 1.02078 39.7023 1.38826 40.1685C2.07729 41.0427 2.92988 41.7879 3.78248 42.5331C8.82336 46.6854 14.352 49.8863 20.7985 50.6631C25.6836 51.2532 30.3532 50.785 34.6494 48.7214C37.3528 47.4409 39.3672 45.2862 41.3357 43.0733C42.5695 41.7228 43.7115 40.2557 44.9914 38.9635C46.1535 37.8585 47.4535 36.9283 48.7994 36.0564C51.2186 34.5275 53.9452 34.1735 56.8327 34.921C58.1301 35.2212 59.3644 35.6655 60.59 36.2112C63.7734 37.6703 66.9481 39.2308 70.1314 40.6899C70.4787 40.7941 70.7629 41.0425 71.3944 41.3951Z" fill="#333333"/>
</g>
</svg>
