<svg width="388" height="268" viewBox="0 0 388 268" fill="none" xmlns="http://www.w3.org/2000/svg">
<mask id="mask0_3_42" style="mask-type:alpha" maskUnits="userSpaceOnUse" x="0" y="0" width="388" height="268">
<path d="M0.382538 250.645C0.382538 250.645 85.5104 255.661 140.199 261.5C176.854 265.414 239.262 272.49 300.652 264.007C330.852 259.835 361.274 251.813 387.795 237.881C387.795 157.741 387.794 0 387.794 0H0.382538V250.645Z" fill="#FFDC66"/>
</mask>
<g mask="url(#mask0_3_42)">
<path d="M0.382538 250.645C0.382538 250.645 85.5104 255.661 140.199 261.5C176.854 265.414 239.262 272.49 300.652 264.007C330.852 259.835 361.274 251.813 387.795 237.881C387.795 157.741 387.794 0 387.794 0H0.382538V250.645Z" fill="#FFDC66"/>
<path d="M44.4263 204.064V212.464H43.3223V205.9L40.5743 210.472H40.4303L37.6823 205.912V212.464H36.5663V204.064H37.8263L40.5023 208.504L43.1663 204.064H44.4263Z" fill="#D6B646"/>
<path d="M105.394 204.064V205.12H102.91V212.464H101.806V205.12H99.3344V204.064H105.394Z" fill="#D6B646"/>
<path d="M160.935 212.464L158.523 204.064H159.699L161.619 210.976L163.659 204.064H164.787L166.827 210.976L168.747 204.064H169.923L167.511 212.464H166.215L164.223 205.756L162.231 212.464H160.935Z" fill="#D6B646"/>
<path d="M229.123 204.064V205.12H226.639V212.464H225.535V205.12H223.063V204.064H229.123Z" fill="#D6B646"/>
<path d="M290.594 205.12H286.874V207.844H290.438V208.9H286.874V212.464H285.758V204.064H290.594V205.12Z" fill="#D6B646"/>
<path d="M349.959 212.62C349.175 212.62 348.503 212.436 347.943 212.068C347.391 211.7 347.003 211.196 346.779 210.556L347.739 210.004C348.067 211.02 348.815 211.528 349.983 211.528C350.559 211.528 350.999 211.412 351.303 211.18C351.607 210.94 351.759 210.624 351.759 210.232C351.759 209.832 351.607 209.532 351.303 209.332C350.999 209.132 350.491 208.92 349.779 208.696C349.427 208.584 349.159 208.496 348.975 208.432C348.791 208.36 348.559 208.256 348.279 208.12C348.007 207.976 347.803 207.832 347.667 207.688C347.531 207.536 347.407 207.34 347.295 207.1C347.191 206.86 347.139 206.588 347.139 206.284C347.139 205.556 347.395 204.98 347.907 204.556C348.419 204.124 349.043 203.908 349.779 203.908C350.443 203.908 351.019 204.076 351.507 204.412C352.003 204.748 352.375 205.192 352.623 205.744L351.687 206.284C351.327 205.42 350.691 204.988 349.779 204.988C349.323 204.988 348.955 205.1 348.675 205.324C348.395 205.548 348.255 205.852 348.255 206.236C348.255 206.604 348.387 206.884 348.651 207.076C348.915 207.268 349.371 207.468 350.019 207.676C350.251 207.748 350.415 207.8 350.511 207.832C350.607 207.864 350.755 207.92 350.955 208C351.163 208.08 351.315 208.144 351.411 208.192C351.507 208.24 351.635 208.308 351.795 208.396C351.963 208.484 352.087 208.568 352.167 208.648C352.247 208.728 352.339 208.828 352.443 208.948C352.555 209.06 352.635 209.176 352.683 209.296C352.731 209.416 352.771 209.556 352.803 209.716C352.843 209.868 352.863 210.032 352.863 210.208C352.863 210.944 352.595 211.532 352.059 211.972C351.523 212.404 350.823 212.62 349.959 212.62Z" fill="#D6B646"/>
<path d="M-7.30682 175.831C-7.30682 175.831 99.6334 175.586 115.618 175.831C325.47 179.059 306.136 18.3055 510.812 21.4536C525.327 21.6768 556.011 22.1488 556.011 22.1488" stroke="#333333" stroke-opacity="0.1" stroke-width="4" stroke-linecap="round"/>
<g filter="url(#filter0_d_3_42)">
<path d="M-1.72956 138.138C-1.72956 138.138 -0.715236 138.138 43.4011 138.138C87.5174 138.138 150.395 121.242 201.104 107.826C251.812 94.4109 326.859 57.1257 360.327 44.9603C393.795 32.7949 396.838 25.8388 444.504 14.907" stroke="white" stroke-width="4" stroke-linecap="round"/>
</g>
<g filter="url(#filter1_d_3_42)">
<path d="M180.82 98.6863C180.82 101.448 178.582 103.686 175.82 103.686H162.724C161.417 103.686 160.161 104.199 159.227 105.113L154.931 109.318L150.636 105.113C149.702 104.199 148.446 103.686 147.138 103.686H133.084C130.322 103.686 128.084 101.448 128.084 98.6863V63.6341C128.084 60.8727 130.322 58.6341 133.084 58.6341L175.82 58.6341C178.582 58.6341 180.82 60.8727 180.82 63.6341V98.6863Z" fill="#FFEEB3"/>
</g>
<g filter="url(#filter2_d_3_42)">
<path d="M170.132 65.2986C173.215 69.0461 174.201 73.6091 171.123 77.2032C167.461 80.2561 162.612 81.2946 158.987 78.314C155.715 74.5838 154.918 70.0035 157.996 66.4093C161.28 63.3911 166.496 61.7891 170.132 65.2986Z" fill="#FFFBEF"/>
</g>
<ellipse cx="163.222" cy="70.104" rx="0.774006" ry="0.75846" fill="#333333"/>
<ellipse cx="165.803" cy="70.104" rx="0.774006" ry="0.75846" fill="#333333"/>
<path d="M160.493 73.2598C160.493 73.2598 164.284 73.2598 168.592 73.2598" stroke="#333333" stroke-width="1.43854" stroke-linecap="round"/>
<path d="M138.351 95.6471C137.031 95.6471 136.107 95.1151 135.579 94.0511L137.007 93.2351C137.271 93.7631 137.719 94.0271 138.351 94.0271C138.791 94.0271 139.119 93.9231 139.335 93.7151C139.551 93.5071 139.659 93.2231 139.659 92.8631V87.0791H141.303V92.8631C141.303 93.7431 141.027 94.4271 140.475 94.9151C139.923 95.4031 139.215 95.6471 138.351 95.6471ZM145.927 95.6471C144.991 95.6471 144.223 95.3831 143.623 94.8551C143.023 94.3271 142.723 93.6191 142.723 92.7311V87.0791H144.367V92.5991C144.367 93.0391 144.491 93.3871 144.739 93.6431C144.995 93.8991 145.391 94.0271 145.927 94.0271C146.463 94.0271 146.855 93.8991 147.103 93.6431C147.359 93.3871 147.487 93.0391 147.487 92.5991V87.0791H149.143V92.7311C149.143 93.6191 148.843 94.3271 148.243 94.8551C147.643 95.3831 146.871 95.6471 145.927 95.6471ZM155.495 87.0791H157.151V95.4791H155.891L152.291 90.3431V95.4791H150.635V87.0791H151.895L155.495 92.2031V87.0791ZM163.269 87.0791H164.709V95.4791H163.053V88.8311L161.469 89.2751L161.061 87.8591L163.269 87.0791ZM165.893 95.4791V94.2431L168.761 91.2911C169.401 90.6191 169.721 90.0591 169.721 89.6111C169.721 89.2831 169.617 89.0191 169.409 88.8191C169.209 88.6191 168.949 88.5191 168.629 88.5191C167.997 88.5191 167.529 88.8471 167.225 89.5031L165.833 88.6871C166.097 88.1111 166.477 87.6711 166.973 87.3671C167.469 87.0631 168.013 86.9111 168.605 86.9111C169.365 86.9111 170.017 87.1511 170.561 87.6311C171.105 88.1031 171.377 88.7431 171.377 89.5511C171.377 90.4231 170.917 91.3191 169.997 92.2391L168.353 93.8831H171.509V95.4791H165.893Z" fill="#A1A2A6"/>
<path d="M136.683 78.5969V76.7429L140.985 72.3149C141.945 71.3069 142.425 70.4669 142.425 69.7949C142.425 69.3029 142.269 68.9069 141.957 68.6069C141.657 68.3069 141.267 68.1569 140.787 68.1569C139.839 68.1569 139.137 68.6489 138.681 69.6329L136.593 68.4089C136.989 67.5449 137.559 66.8849 138.303 66.4289C139.047 65.9729 139.863 65.7449 140.751 65.7449C141.891 65.7449 142.869 66.1049 143.685 66.8249C144.501 67.5329 144.909 68.4929 144.909 69.7049C144.909 71.0129 144.219 72.3569 142.839 73.7369L140.373 76.2029H145.107V78.5969H136.683Z" fill="#333333"/>
<path d="M154.452 116.268C156.105 116.268 157.48 117.587 157.48 119.256C157.48 120.925 156.105 122.243 154.452 122.243C152.799 122.243 151.424 120.925 151.424 119.256C151.424 117.587 152.799 116.268 154.452 116.268Z" fill="#333333" stroke="white" stroke-width="2"/>
<path d="M32.7517 135.178C34.405 135.178 35.7801 136.496 35.7801 138.165C35.7801 139.834 34.405 141.153 32.7517 141.153C31.0984 141.153 29.7234 139.834 29.7234 138.165C29.7234 136.496 31.0984 135.178 32.7517 135.178Z" fill="#333333" stroke="white" stroke-width="2"/>
<path d="M342.073 48.6899C343.726 48.6899 345.101 50.0085 345.101 51.6775C345.101 53.3465 343.726 54.6651 342.073 54.6651C340.42 54.6651 339.045 53.3465 339.045 51.6775C339.045 50.0085 340.42 48.6899 342.073 48.6899Z" fill="#333333" stroke="white" stroke-width="2"/>
</g>
<defs>
<filter id="filter0_d_3_42" x="-11.8313" y="9.01343" width="466.437" height="143.018" filterUnits="userSpaceOnUse" color-interpolation-filters="sRGB">
<feFlood flood-opacity="0" result="BackgroundImageFix"/>
<feColorMatrix in="SourceAlpha" type="matrix" values="0 0 0 0 0 0 0 0 0 0 0 0 0 0 0 0 0 0 127 0" result="hardAlpha"/>
<feOffset dy="4"/>
<feGaussianBlur stdDeviation="4"/>
<feComposite in2="hardAlpha" operator="out"/>
<feColorMatrix type="matrix" values="0 0 0 0 0 0 0 0 0 0 0 0 0 0 0 0 0 0 0.3 0"/>
<feBlend mode="normal" in2="BackgroundImageFix" result="effect1_dropShadow_3_42"/>
<feBlend mode="normal" in="SourceGraphic" in2="effect1_dropShadow_3_42" result="shape"/>
</filter>
<filter id="filter1_d_3_42" x="116.083" y="48.6341" width="76.7368" height="74.6837" filterUnits="userSpaceOnUse" color-interpolation-filters="sRGB">
<feFlood flood-opacity="0" result="BackgroundImageFix"/>
<feColorMatrix in="SourceAlpha" type="matrix" values="0 0 0 0 0 0 0 0 0 0 0 0 0 0 0 0 0 0 127 0" result="hardAlpha"/>
<feOffset dy="2"/>
<feGaussianBlur stdDeviation="6"/>
<feColorMatrix type="matrix" values="0 0 0 0 0 0 0 0 0 0 0 0 0 0 0 0 0 0 0.15 0"/>
<feBlend mode="normal" in2="BackgroundImageFix" result="effect1_dropShadow_3_42"/>
<feBlend mode="normal" in="SourceGraphic" in2="effect1_dropShadow_3_42" result="shape"/>
</filter>
<filter id="filter2_d_3_42" x="154.941" y="63.3042" width="19.1788" height="19.0335" filterUnits="userSpaceOnUse" color-interpolation-filters="sRGB">
<feFlood flood-opacity="0" result="BackgroundImageFix"/>
<feColorMatrix in="SourceAlpha" type="matrix" values="0 0 0 0 0 0 0 0 0 0 0 0 0 0 0 0 0 0 127 0" result="hardAlpha"/>
<feOffset dy="1.12305"/>
<feGaussianBlur stdDeviation="0.561524"/>
<feComposite in2="hardAlpha" operator="out"/>
<feColorMatrix type="matrix" values="0 0 0 0 0 0 0 0 0 0 0 0 0 0 0 0 0 0 0.25 0"/>
<feBlend mode="normal" in2="BackgroundImageFix" result="effect1_dropShadow_3_42"/>
<feBlend mode="normal" in="SourceGraphic" in2="effect1_dropShadow_3_42" result="shape"/>
</filter>
</defs>
</svg>
