<svg width="23" height="23" viewBox="0 0 23 23" fill="none" xmlns="http://www.w3.org/2000/svg">
<g clip-path="url(#clip0_6022_4760)">
<path d="M11.3775 0C5.09395 0 0 5.09395 0 11.3775C0 16.7131 3.67358 21.1904 8.62918 22.4201V14.8545H6.28313V11.3775H8.62918V9.87934C8.62918 6.00688 10.3818 4.21196 14.1837 4.21196C14.9046 4.21196 16.1484 4.3535 16.6572 4.49458V7.64616C16.3887 7.61794 15.9222 7.60383 15.3428 7.60383C13.4774 7.60383 12.7565 8.3106 12.7565 10.1478V11.3775H16.4728L15.8343 14.8545H12.7565V22.6718C18.3902 21.9914 22.7555 17.1946 22.7555 11.3775C22.7551 5.09395 17.6611 0 11.3775 0Z" fill="#4E4E4E"/>
</g>
<defs>
<clipPath id="clip0_6022_4760">
<rect width="22.7551" height="22.7551" fill="white"/>
</clipPath>
</defs>
</svg>
