<svg width="28" height="28" viewBox="0 0 28 28" fill="none" xmlns="http://www.w3.org/2000/svg">
<rect width="28" height="28" rx="8" fill="white"/>
<path fill-rule="evenodd" clip-rule="evenodd" d="M16.7801 4.3999C17.0232 4.3999 17.2555 4.49505 17.4218 4.66277L22.1621 9.44375C22.3149 9.5979 22.4 9.80128 22.4 10.0126V21.1745C22.4 22.5025 20.7716 23.5999 19.4 23.5999H8.05967C6.68808 23.5999 5.65967 22.5025 5.65967 21.1745L5.59998 6.82526C5.59998 5.49734 6.68808 4.3999 8.05967 4.3999H16.7801ZM18.0295 17.5899L9.97045 17.5999L9.91542 17.6019C9.51558 17.6316 9.19998 17.982 9.19998 18.4099C9.19998 18.8573 9.54493 19.2199 9.97045 19.2199L18.0295 19.2099L18.0845 19.2079C18.4844 19.1782 18.8 18.8278 18.8 18.3999C18.8 17.9526 18.455 17.5899 18.0295 17.5899ZM18.0295 14.3899L9.97045 14.3999L9.91542 14.4019C9.51558 14.4316 9.19998 14.782 9.19998 15.2099C9.19998 15.6573 9.54493 16.0199 9.97045 16.0199L18.0295 16.0099L18.0845 16.0079C18.4844 15.9782 18.8 15.6278 18.8 15.1999C18.8 14.7526 18.455 14.3899 18.0295 14.3899ZM13.6016 11.1999H10.0016L9.94433 11.2019C9.52834 11.2316 9.19998 11.582 9.19998 12.0099C9.19998 12.4573 9.55886 12.8199 10.0016 12.8199H13.6016L13.6588 12.8179C14.0748 12.7882 14.4032 12.4378 14.4032 12.0099C14.4032 11.5626 14.0443 11.1999 13.6016 11.1999Z" fill="#FFD442"/>
<path d="M13.6016 11.1999H10.0016L9.94433 11.2019C9.52834 11.2316 9.19998 11.582 9.19998 12.0099C9.19998 12.4573 9.55886 12.8199 10.0016 12.8199H13.6016L13.6588 12.8179C14.0748 12.7882 14.4032 12.4378 14.4032 12.0099C14.4032 11.5626 14.0443 11.1999 13.6016 11.1999Z" fill="#333333"/>
<path d="M18.0295 14.3899L9.97045 14.3999L9.91542 14.4019C9.51558 14.4316 9.19998 14.782 9.19998 15.2099C9.19998 15.6573 9.54493 16.0199 9.97045 16.0199L18.0295 16.0099L18.0845 16.0079C18.4844 15.9782 18.8 15.6278 18.8 15.1999C18.8 14.7526 18.455 14.3899 18.0295 14.3899Z" fill="#333333"/>
<path d="M18.0295 17.5899L9.97045 17.5999L9.91542 17.6019C9.51558 17.6316 9.19998 17.982 9.19998 18.4099C9.19998 18.8573 9.54493 19.2199 9.97045 19.2199L18.0295 19.2099L18.0845 19.2079C18.4844 19.1782 18.8 18.8278 18.8 18.3999C18.8 17.9526 18.455 17.5899 18.0295 17.5899Z" fill="#333333"/>
</svg>
