<svg width="22" height="22" viewBox="0 0 22 22" fill="none" xmlns="http://www.w3.org/2000/svg">
<path fill-rule="evenodd" clip-rule="evenodd" d="M8.78307 8.50118C8.82199 8.59221 8.86152 8.68469 8.89752 8.78069C8.95121 8.7628 8.99705 8.75275 9.03848 8.74367C9.09155 8.73203 9.13739 8.72198 9.18324 8.69906C9.19242 8.66692 9.20161 8.63529 9.21067 8.60406C9.28221 8.35772 9.3465 8.1363 9.3465 7.88273C9.3465 5.80109 9.3465 3.71944 9.30569 1.6378C9.30569 1.43372 9.30569 1.18882 9.18324 1.06637C8.97915 0.862286 8.73425 0.658203 8.48936 0.658203C8.32609 0.658203 8.04037 0.903102 7.95874 1.148C7.83629 1.3929 7.83629 1.71943 7.87711 2.00515C8.06075 3.7681 8.27744 5.498 8.49744 7.25432C8.52193 7.44983 8.54646 7.64567 8.57099 7.84191C8.5998 8.07244 8.68965 8.28262 8.78307 8.50118ZM21.2142 9.94256C21.4732 9.86225 21.7336 9.7815 22.0001 9.71881C22.0001 9.67799 21.9593 9.59636 21.9184 9.51473H12.8572C12.6939 9.51473 12.4898 9.51473 12.3674 9.59636C12.3487 9.61132 12.3293 9.62663 12.3094 9.64228C12.113 9.79738 11.8738 9.98615 11.8367 10.2086C11.7959 10.576 12.0816 10.78 12.449 10.8617C12.6939 10.9025 12.898 10.9025 13.1429 10.9025L13.1429 10.9025L13.1429 10.9025L13.143 10.9025C15.4287 10.6984 17.7144 10.4943 19.9592 10.2494C20.3867 10.1991 20.7986 10.0714 21.2142 9.94256ZM10.2674 21.4338C10.3309 21.5562 10.3944 21.6787 10.4488 21.8011C10.5304 21.8011 10.612 21.7603 10.6937 21.7195C10.6937 21.6787 10.7141 21.6379 10.7345 21.5971C10.7549 21.5562 10.7753 21.5154 10.7753 21.4746V14.9031C10.7753 14.6174 10.7345 14.3317 10.6937 14.046C10.612 13.6378 10.3263 13.3521 9.87734 13.3521C9.38754 13.3521 9.18346 13.7195 9.14264 14.1276C9.11569 14.2893 9.12433 14.4332 9.13331 14.5828C9.13793 14.6598 9.14264 14.7383 9.14264 14.8215C9.18346 15.4338 9.22428 16.046 9.30591 16.6583C9.50999 18.0052 9.71408 19.3521 9.95897 20.6991C10.0134 20.944 10.1404 21.1889 10.2674 21.4338ZM8.46446 10.9665L8.46443 10.9665C8.24417 11.0524 8.02822 11.1367 7.79596 11.1883C5.93812 11.4797 4.04776 11.7386 2.18293 11.994L2.18285 11.994L1.51021 12.0862C1.18368 12.1271 0.816331 12.1679 0.530615 12.0454C0.326532 11.923 0 11.6781 0 11.474C0 11.2699 0.244899 11.025 0.448982 10.8209C0.530615 10.7393 0.734698 10.6985 0.897964 10.6985L0.898119 10.6985C3.14298 10.6168 5.38784 10.5352 7.63269 10.4944C8.00004 10.4944 8.40821 10.5352 8.77556 10.576C8.79597 10.6168 8.80617 10.6577 8.81637 10.6985C8.82658 10.7393 8.83678 10.7801 8.85719 10.8209C8.72211 10.8659 8.59256 10.9165 8.46446 10.9665Z" fill="#D9B435"/>
</svg>
