<svg width="11" height="16" viewBox="0 0 11 16" fill="#D9B435" xmlns="http://www.w3.org/2000/svg">
<path d="M4.45753 14.1989C4.42969 13.7535 4.40185 13.3081 4.34617 12.8626C4.20697 11.9439 3.8172 11.1643 3.09335 10.5797C2.34167 9.96721 1.61782 9.32689 0.643408 9.13201C0.504207 9.10417 0.337165 9.02065 0.253644 8.90928C0.142283 8.74224 -0.0247592 8.51952 0.00308114 8.35248C0.0309214 8.18544 0.253644 7.96271 0.448526 7.93487C3.00983 7.46159 4.20697 5.67981 4.90297 3.3969C5.07002 2.8401 5.15354 2.22761 5.2649 1.64297C5.34842 1.44808 5.32058 1.2532 5.4041 1.08616C5.48762 0.946958 5.65466 0.779917 5.76602 0.807757C5.87738 0.807757 6.01659 1.00264 6.10011 1.14184C6.15579 1.2532 6.12795 1.3924 6.12795 1.5316C6.10011 2.11625 6.07227 2.67306 6.04443 3.2577C6.01659 3.89803 5.9609 4.53836 5.9609 5.17868C5.93306 6.23662 6.60123 6.87694 7.43644 7.29455C7.96541 7.54511 8.55005 7.68431 9.19038 7.60079C9.58014 7.54511 9.96991 7.65647 10.3875 7.71215C10.5267 7.73999 10.6659 7.76783 10.7494 7.85135C10.8608 7.99055 11 8.18544 11 8.32464C11 8.5752 10.7494 8.60304 10.5267 8.5752C10.1648 8.54736 9.83071 8.51952 9.46878 8.46384C8.80062 8.38032 8.18813 8.54736 7.57564 8.77008C7.29724 8.88144 7.01884 9.10417 6.87963 9.35473C6.57339 9.82801 6.26715 10.3013 6.12795 10.8303C5.79386 12.0552 5.57114 13.3081 5.29274 14.533C5.23706 14.7836 5.23706 15.0342 5.1257 15.2569C5.07001 15.3961 4.87513 15.5631 4.76377 15.5631C4.65241 15.5631 4.45753 15.3682 4.45753 15.229C4.42969 14.8949 4.45753 14.533 4.45753 14.1989Z" />
</svg>
