<svg width="56" height="63" viewBox="0 0 56 63" fill="none" xmlns="http://www.w3.org/2000/svg">
<path d="M48.7432 45.2792C48.8744 45.4771 48.9825 45.6379 49.0821 45.8112C49.579 46.715 49.7927 47.6091 49.8678 48.5292C49.9635 49.8101 49.7555 50.9693 49.3955 52.0677C48.7935 53.8777 47.7954 55.4175 46.5373 56.7358C44.675 58.6943 42.385 60.1092 39.7062 61.0299C38.1991 61.5416 36.6252 61.8672 34.9007 61.8458C34.2772 61.8391 33.6477 61.7703 33.0109 61.6766C32.6403 61.6178 32.249 61.4472 31.865 61.3014C31.7288 61.2529 31.5927 61.2044 31.5247 61.3045C31.4894 61.392 31.4687 61.5291 31.4979 61.6283C31.5792 61.864 31.7846 62.0239 32.0009 62.0966C32.4408 62.2667 32.8795 62.4742 33.3145 62.5449C34.023 62.6752 34.7255 62.7434 35.4219 62.7494C36.7563 62.8118 38.0263 62.6134 39.2198 62.2788C43.3813 61.0955 46.662 58.8626 48.9366 55.4443C49.9505 53.9168 50.6387 52.1931 50.7935 50.1882C50.9239 48.4324 50.6655 46.6801 49.4214 44.8499C49.5296 44.7618 49.645 44.6985 49.7447 44.6229C51.0781 43.727 52.2949 42.683 53.2917 41.4293C54.263 40.2133 55.0205 38.8499 55.3174 37.2045C55.4074 36.681 55.4416 36.1332 55.4271 35.5857C55.305 32.8865 53.5992 30.5627 50.8237 29.2444C49.8187 28.7684 48.8076 28.479 47.7856 28.2769C45.7974 27.8971 43.8942 27.8897 42.0421 28.0562C41.5304 28.0982 41.0418 28.1774 40.5217 28.232C40.4159 28.2454 40.3187 28.2463 40.1644 28.2602C40.162 28.086 40.1511 27.9243 40.1474 27.7875C40.1417 26.4809 39.9183 25.139 39.3389 23.7879C38.6247 22.1021 37.5057 20.6565 35.9066 19.5264C34.9564 18.8632 33.983 18.4117 32.9403 18.0978C31.2961 17.6028 29.7199 17.5053 28.1776 17.6067C27.9747 17.621 27.7717 17.6353 27.5359 17.6624C27.4849 17.4886 27.4497 17.3272 27.406 17.1783C27.0101 15.6637 26.2788 14.2518 25.0152 13.0191C24.1051 12.1191 23.0649 11.4816 21.9384 11.0067C20.4923 10.3978 19.0838 10.1246 17.6692 10.0381C15.7053 9.9069 13.8677 10.123 12.1273 10.587C11.9887 10.6132 11.8417 10.6519 11.6703 10.6908C11.6278 10.5045 11.5999 10.3679 11.5647 10.2065C11.2539 8.56671 10.8702 6.92763 10.2435 5.29078C9.96049 4.5343 9.62036 3.79079 9.25593 3.04751C8.99841 2.50234 8.63514 1.9706 8.18072 1.50192C7.84416 1.14414 7.58168 0.997236 7.21953 0.925917C7.22682 0.950737 7.2256 0.988084 7.2256 0.988084C7.73231 1.34428 8.05669 1.82661 8.33974 2.33421C8.77587 3.11416 9.08195 3.90776 9.33942 4.70181C10.0098 6.73646 10.4615 8.77313 10.8001 10.7984C10.7989 10.8358 10.7977 10.8731 10.811 10.9601C10.7126 10.9983 10.6056 11.0491 10.4828 11.0876C7.55612 12.1599 5.08867 13.8004 3.13638 16.0335C2.09338 17.2129 1.25573 18.5521 0.854319 20.1736C0.705924 20.7474 0.646241 21.3328 0.674054 21.9672C0.70676 22.4522 0.812384 22.9366 1.01524 23.42C1.49019 24.4983 2.29213 25.2375 3.39799 25.6006C4.16723 25.8549 4.87211 25.8484 5.57216 25.7423C7.00506 25.5176 8.15125 24.8972 9.12734 24.0296C11.2813 22.0684 12.3234 19.433 12.2281 16.1611C12.1895 14.8673 11.999 13.5126 11.8802 12.1946C11.8608 12.0455 11.8414 11.8963 11.822 11.7472C11.8633 11.7219 11.8803 11.6969 11.9131 11.6841C13.9659 11.0803 16.1463 10.7864 18.527 11.0506C19.8748 11.1999 21.2006 11.5237 22.5385 12.2206C24.7441 13.3825 26.2409 15.4095 26.6171 17.7704C26.5029 17.7964 26.3558 17.835 26.2173 17.8612C23.4863 18.3966 21.0725 19.3896 19.0438 20.9887C18.2038 21.656 17.4587 22.3971 16.9177 23.3354C16.6003 23.8734 16.3304 24.4484 16.2841 25.1208C16.2475 25.4944 16.2584 25.905 16.3507 26.3024C16.5473 27.2214 17.2278 27.9618 18.1708 28.3513C18.7067 28.5579 19.2305 28.6402 19.7409 28.6354C20.6159 28.6274 21.4083 28.4209 22.1315 28.1032C23.8404 27.3656 25.1423 26.1963 26.1149 24.694C27.2066 23.0164 27.7879 21.0946 27.6523 18.8062C27.6536 18.7688 27.6548 18.7315 27.6572 18.6568C27.763 18.6434 27.8772 18.6174 27.9829 18.604C29.2262 18.4805 30.5218 18.4934 31.8658 18.7548C32.9122 18.9567 33.9293 19.3082 34.9306 19.8963C36.2977 20.6925 37.339 21.7904 38.0642 23.1401C38.6376 24.1802 38.9752 25.2472 39.0941 26.3163C39.1632 26.9255 39.1522 27.5104 39.1812 28.1075C39.1969 28.3687 39.0717 28.4818 38.8189 28.5339C37.0907 28.8734 35.4548 29.3614 33.8954 29.9856C31.4998 30.9161 29.2585 32.0817 27.344 33.6549C26.4117 34.4226 25.59 35.2764 24.9881 36.3397C24.6951 36.8775 24.4738 37.452 24.4676 38.1365C24.4637 39.244 25.1866 40.1707 26.3642 40.5704C26.6923 40.6919 27.0301 40.7634 27.3534 40.7853C27.8626 40.8179 28.3487 40.8135 28.8203 40.7593C29.8691 40.6376 30.8354 40.3176 31.7238 39.8987C34.8572 38.4512 37.2458 36.2514 38.8033 33.2131C39.3748 32.0878 39.7797 30.8521 39.9769 29.5312C40.0073 29.3443 40.0523 29.207 40.2881 29.1799C42.1525 28.8889 44.0375 28.7097 46.0488 28.8778C47.196 28.9668 48.3481 29.1553 49.5099 29.5427C50.1831 29.7605 50.8539 30.053 51.4809 30.4454C53.1007 31.4384 54.0775 32.7734 54.46 34.4498C54.7283 35.6544 54.5956 36.7383 54.2867 37.7616C53.8695 39.1218 53.1437 40.2609 52.2356 41.2773C51.302 42.3312 50.2202 43.2123 49.0205 43.9825C48.9622 44.0328 48.8966 44.0583 48.8066 44.084C48.7118 44.0102 48.6243 43.9613 48.5539 43.8872C47.6815 43.074 46.7203 42.498 45.6618 42.1718C44.9643 41.9542 44.2497 41.7617 43.5643 41.6685C40.6367 41.2849 38.0698 41.7566 35.8504 42.9966C35.3387 43.2875 34.8731 43.6527 34.5497 44.1286C34.4476 44.2788 34.3455 44.4291 34.2592 44.5917C33.7716 45.629 34.3182 46.744 35.5917 47.4291C36.1252 47.7104 36.6708 47.8671 37.2104 47.9617C38.0635 48.128 38.8972 48.1452 39.7249 48.1002C41.8019 47.9939 43.7052 47.5035 45.4785 46.7778C46.4715 46.3829 47.3952 45.8766 48.3494 45.4322C48.5037 45.4183 48.6192 45.3551 48.7432 45.2792ZM11.0514 12.0281C11.1157 12.5377 11.1739 12.9851 11.2237 13.4451C11.3777 14.9245 11.4916 16.3919 11.3005 17.775C10.9219 20.4291 9.77542 22.5427 7.7273 23.9927C6.97247 24.5348 6.09371 24.9038 5.06189 25.0004C4.56603 25.0548 4.0641 25.0469 3.51117 24.8654C2.72614 24.5989 2.1429 24.1065 1.85261 23.3252C1.71901 22.9531 1.60243 22.556 1.60615 22.195C1.59897 21.6725 1.64041 21.1494 1.75354 20.6631C2.08198 19.2912 2.76767 18.14 3.61133 17.1118C5.4506 14.8673 7.82083 13.2276 10.643 12.1314C10.7573 12.1054 10.8873 12.0918 11.0514 12.0281ZM39.063 29.4899C39.0508 29.6144 39.0569 29.6766 39.0386 29.739C38.8367 30.7115 38.5314 31.6227 38.1229 32.4727C37.0724 34.6228 35.5492 36.3666 33.6251 37.7408C32.3233 38.6612 30.906 39.3961 29.2337 39.76C28.6953 39.8769 28.1107 39.9197 27.5274 39.9251C27.1628 39.9284 26.769 39.8325 26.3765 39.6992C25.8078 39.5054 25.498 39.0727 25.475 38.5378C25.4592 38.2766 25.4994 38.0398 25.5639 37.8028C25.7402 37.1167 26.0989 36.5534 26.5207 36.0393C27.1541 35.2495 27.8895 34.5583 28.727 33.9657C31.6478 31.8356 35.0474 30.4229 38.7944 29.5297C38.8515 29.5167 38.933 29.5035 39.063 29.4899ZM26.7931 18.8265C26.8052 18.9509 26.8344 19.0502 26.8234 19.1374C26.8014 19.5607 26.8196 19.996 26.7575 20.4073C26.4337 22.8742 25.3018 24.7886 23.5368 26.2484C22.6714 26.9533 21.7063 27.4849 20.5237 27.7322C19.9853 27.8492 19.4251 27.8917 18.8053 27.773C17.7918 27.5584 17.1976 26.9043 17.1565 25.934C17.1335 25.3991 17.2868 24.9248 17.4874 24.4875C17.9081 23.5129 18.6132 22.7598 19.4045 22.0929C21.3785 20.4321 23.7851 19.4143 26.5002 18.8666C26.5658 18.8411 26.6631 18.8402 26.7931 18.8265ZM48.1515 44.5505C48.0603 44.6136 48.0019 44.6639 47.9521 44.7017C45.8652 45.8534 43.6008 46.7329 41.0765 47.142C40.018 47.3135 38.9375 47.4106 37.7757 47.272C37.2592 47.2146 36.7123 47.0952 36.1922 46.9009C35.0718 46.4881 34.7317 45.7446 35.2362 44.9311C35.5608 44.4179 36.0264 44.0527 36.5624 43.7615C38.5497 42.6854 40.8236 42.2538 43.4073 42.5037C44.3601 42.5944 45.3165 42.8221 46.2741 43.2612C46.9364 43.5662 47.5549 43.9711 48.1515 44.5505Z" fill="#D9B435"/>
</svg>
