<svg width="21" height="21" viewBox="0 0 21 21" fill="none" xmlns="http://www.w3.org/2000/svg">
<g clip-path="url(#clip0_6022_4763)">
<path d="M18.9619 0H1.51183C0.675925 0 0 0.659927 0 1.47584V18.9979C0 19.8138 0.675925 20.4777 1.51183 20.4777H18.9619C19.7978 20.4777 20.4777 19.8138 20.4777 19.0019V1.47584C20.4777 0.659927 19.7978 0 18.9619 0ZM6.07532 17.4501H3.03566V7.67514H6.07532V17.4501ZM4.55549 6.34329C3.5796 6.34329 2.79169 5.55538 2.79169 4.58349C2.79169 3.6116 3.5796 2.82369 4.55549 2.82369C5.52738 2.82369 6.3153 3.6116 6.3153 4.58349C6.3153 5.55138 5.52738 6.34329 4.55549 6.34329ZM17.4501 17.4501H14.4144V12.6986C14.4144 11.5667 14.3944 10.1069 12.8346 10.1069C11.2547 10.1069 11.0148 11.3427 11.0148 12.6186V17.4501H7.98311V7.67514H10.8948V9.011H10.9348C11.3387 8.24308 12.3306 7.43117 13.8065 7.43117C16.8821 7.43117 17.4501 9.45495 17.4501 12.0867V17.4501Z" fill="#4E4E4E"/>
</g>
<defs>
<clipPath id="clip0_6022_4763">
<rect width="20.4777" height="20.4777" fill="white"/>
</clipPath>
</defs>
</svg>
