<!-- Generated by IcoMoon.io -->
<svg version="1.1" xmlns="http://www.w3.org/2000/svg" width="32" height="32" viewBox="0 0 32 32">
<title>logo</title>
<path fill="#333" d="M15.596 31.886c-1.253 0.024-2.679-0.221-4.055-0.762-1.302-0.516-2.58-1.155-3.858-1.769-0.442-0.221-0.836-0.516-1.229-0.786-1.745-1.253-2.875-2.9-3.367-5.013-0.541-2.408-0.565-4.792 0.172-7.176 0.491-1.573 1.302-2.949 2.31-4.202 0.27-0.319 0.663-0.565 0.983-0.835 0.197-0.172 0.442-0.344 0.59-0.565 1.794-2.679 4.3-4.423 7.274-5.554 2.531-0.934 5.112-1.352 7.815-1.278 6.316 0.172 9.51 5.947 8.945 10.419-0.172 1.352-0.393 2.728-0.713 4.055-0.541 2.359-1.597 4.497-3.047 6.463-1.081 1.474-2.335 2.801-3.735 4.006-2.261 1.941-4.841 3.023-8.085 2.998z"></path>
<path fill="#fff" d="M13.336 27.369c-3.858 0.025-6.242-0.885-8.306-2.605-1.13-0.909-1.941-2.064-2.507-3.367-0.934-2.212-1.573-4.497-1.892-6.856-0.246-1.745-0.221-3.49 0.246-5.21 0.885-3.219 2.801-5.701 5.48-7.593 1.72-1.204 3.686-1.622 5.726-1.72 1.548-0.074 3.072 0.172 4.546 0.614 1.474 0.467 2.924 1.008 4.374 1.597 1.278 0.516 2.335 1.376 3.146 2.507 1.671 2.285 2.703 4.817 3.023 7.643 0.172 1.597-0.074 3.145-0.713 4.595-1.45 3.268-3.637 5.947-6.561 7.937-2.335 1.597-4.915 2.457-6.561 2.457z"></path>
<path fill="#0fcec5" d="M28.499 14.307c0 1.253-0.098 2.482-0.418 3.686-0.27 1.057-0.663 2.064-1.302 2.949-1.868 2.58-4.104 4.743-7.053 6.070-2.408 1.081-4.915 1.72-7.569 1.843-2.236 0.098-4.227-0.59-5.922-2.064-1.376-1.18-2.58-2.531-3.367-4.202-0.197-0.418-0.491-0.811-0.713-1.229-1.057-2.040-1.548-4.227-1.892-6.463-0.246-1.548-0.369-3.121-0.147-4.694 0.467-3.318 2.236-5.824 4.915-7.741 2.58-1.819 5.505-2.531 8.675-2.457 1.622 0.049 3.195 0.319 4.718 0.909 1.278 0.491 2.556 1.032 3.784 1.622 1.892 0.885 3.318 2.261 4.325 4.104 1.352 2.384 1.966 4.939 1.966 7.667zM25.845 14.356c-0.074-2.457-0.59-4.423-1.696-6.438-0.713-1.302-1.696-2.261-3.023-2.875-1.376-0.639-2.752-1.278-4.202-1.72-3.49-1.057-6.905-0.811-10.026 1.204-2.777 1.794-4.325 4.325-4.153 7.692 0.123 2.212 0.27 4.423 1.376 6.438 0.369 0.663 0.614 1.401 0.909 2.113 0.614 1.597 1.72 2.851 2.973 3.956 1.18 1.032 2.556 1.499 4.128 1.401 0.369-0.025 0.737-0.049 1.106-0.098 4.546-0.565 8.306-2.531 11.034-6.291 0.59-0.835 1.057-1.72 1.229-2.703 0.147-0.885 0.221-1.794 0.344-2.679z"></path>
<path fill="#ffd442" d="M8.35 15.118c0.025-1.966 0.516-3.76 1.868-5.259 0.565-0.614 1.204-1.13 1.966-1.45 0.688-0.295 1.401-0.369 2.138-0.172 0.369 0.098 0.762 0.098 1.155 0.123 0.958 0.098 1.843 0.393 2.605 0.983 1.45 1.106 1.991 2.629 1.892 4.399-0.172 2.974-2.408 5.947-5.234 6.881-1.597 0.541-3.121 0.246-4.399-0.885-1.401-1.229-2.015-2.777-1.991-4.62zM11.078 15.094c-0.025 0.958 0.246 1.769 0.934 2.457 0.59 0.565 1.302 0.737 2.064 0.393 1.72-0.811 2.801-2.113 3.145-4.006 0.344-1.868-0.811-3.072-2.703-2.875-0.221 0.025-0.467 0.123-0.688 0.172-0.295 0.049-0.59 0.147-0.86 0.123-0.344-0.025-0.541 0.123-0.762 0.344-0.86 0.983-1.081 2.163-1.13 3.391z"></path>
</svg>
