<svg width="56" height="55" viewBox="0 0 56 55" fill="none" xmlns="http://www.w3.org/2000/svg">
<path d="M53.6494 15.6369C57.532 31.3714 53.9902 46.671 39.682 53.3473C24.3945 57.5563 8.42899 53.9648 1.83476 39.8142C-2.6392 23.8682 1.49398 8.78015 15.8021 2.1038C29.9068 -2.52808 47.7744 -0.142643 53.6494 15.6369Z" fill="#FFDC66"/>
<path d="M14.0859 35.0211C14.0859 35.0211 27.2917 28.3599 40.3141 35.0211" stroke="#333333" stroke-width="4.72465" stroke-linecap="round"/>
<path d="M22.2194 23.7307C23.4925 23.7307 24.5246 22.6986 24.5246 21.4254C24.5246 20.1522 23.4925 19.1201 22.2194 19.1201C20.9462 19.1201 19.9141 20.1522 19.9141 21.4254C19.9141 22.6986 20.9462 23.7307 22.2194 23.7307Z" fill="#333333"/>
<path d="M31.4381 23.7307C32.7113 23.7307 33.7434 22.6986 33.7434 21.4254C33.7434 20.1522 32.7113 19.1201 31.4381 19.1201C30.1649 19.1201 29.1328 20.1522 29.1328 21.4254C29.1328 22.6986 30.1649 23.7307 31.4381 23.7307Z" fill="#333333"/>
</svg>
