<svg width="56" height="55" viewBox="0 0 56 55" fill="none" xmlns="http://www.w3.org/2000/svg">
<path d="M23.0413 0C39.0277 0.312043 52.7027 7.51928 55.4091 22.7061C55.5139 38.1934 48.0119 52.3499 32.8421 54.9965C16.5031 55.1889 3.18062 47.4772 0.474198 32.2903C-0.335856 17.8121 6.50275 1.55635 23.0413 0Z" fill="#FFDC66"/>
<path d="M14.5938 29.7446C14.5938 29.7446 27.786 42.9089 40.822 29.7446" stroke="#333333" stroke-width="4.72465" stroke-linecap="round"/>
<path d="M23.1764 23.7307C24.4496 23.7307 25.4817 22.6986 25.4817 21.4254C25.4817 20.1522 24.4496 19.1201 23.1764 19.1201C21.9032 19.1201 20.8711 20.1522 20.8711 21.4254C20.8711 22.6986 21.9032 23.7307 23.1764 23.7307Z" fill="#333333"/>
<path d="M32.3951 23.7307C33.6683 23.7307 34.7004 22.6986 34.7004 21.4254C34.7004 20.1522 33.6683 19.1201 32.3951 19.1201C31.122 19.1201 30.0898 20.1522 30.0898 21.4254C30.0898 22.6986 31.122 23.7307 32.3951 23.7307Z" fill="#333333"/>
</svg>
