<svg width="63" height="63" viewBox="0 0 63 63" fill="none" xmlns="http://www.w3.org/2000/svg">
<g filter="url(#filter0_d_1233_251)">
<path d="M49.6094 6.5341C59.622 18.812 62.8253 33.7616 52.8286 45.5368C40.9312 55.5391 25.1829 58.9414 13.4084 49.176C2.77984 36.9549 0.192481 21.9486 10.1891 10.1733C20.8547 0.284796 37.7992 -4.96386 49.6094 6.5341Z" fill="#FFDC66"/>
</g>
<path d="M18.2534 32.0464C18.2534 32.0464 30.5309 32.0465 44.4816 32.0464" stroke="#333333" stroke-width="4.72465" stroke-linecap="round"/>
<path d="M26.8439 23.7327C28.117 23.7327 29.1492 22.7005 29.1492 21.4274C29.1492 20.1542 28.117 19.1221 26.8439 19.1221C25.5707 19.1221 24.5386 20.1542 24.5386 21.4274C24.5386 22.7005 25.5707 23.7327 26.8439 23.7327Z" fill="#333333"/>
<path d="M36.0651 23.7327C37.3382 23.7327 38.3703 22.7005 38.3703 21.4274C38.3703 20.1542 37.3382 19.1221 36.0651 19.1221C34.7919 19.1221 33.7598 20.1542 33.7598 21.4274C33.7598 22.7005 34.7919 23.7327 36.0651 23.7327Z" fill="#333333"/>
<defs>
<filter id="filter0_d_1233_251" x="0.224138" y="0" width="62.3769" height="62.3769" filterUnits="userSpaceOnUse" color-interpolation-filters="sRGB">
<feFlood flood-opacity="0" result="BackgroundImageFix"/>
<feColorMatrix in="SourceAlpha" type="matrix" values="0 0 0 0 0 0 0 0 0 0 0 0 0 0 0 0 0 0 127 0" result="hardAlpha"/>
<feOffset dy="3.68847"/>
<feGaussianBlur stdDeviation="1.84423"/>
<feComposite in2="hardAlpha" operator="out"/>
<feColorMatrix type="matrix" values="0 0 0 0 0 0 0 0 0 0 0 0 0 0 0 0 0 0 0.25 0"/>
<feBlend mode="normal" in2="BackgroundImageFix" result="effect1_dropShadow_1233_251"/>
<feBlend mode="normal" in="SourceGraphic" in2="effect1_dropShadow_1233_251" result="shape"/>
</filter>
</defs>
</svg>
