<svg width="55" height="55" viewBox="0 0 55 55" fill="none" xmlns="http://www.w3.org/2000/svg">
<path d="M54.9206 27.5C51.9171 42.9688 42.6262 55 27.4603 55C12.443 52.4219 0 42.6878 0 27.5C2.5744 11.6015 12.2944 0 27.4603 0C41.6195 1.71875 56.2079 11.1719 54.9206 27.5Z" fill="#FFDC66"/>
<path d="M14.5898 36.1774C14.5898 36.1774 25.7062 25.0062 40.2436 36.1774" stroke="#333333" stroke-width="4.72465" stroke-linecap="round"/>
<path d="M22.997 23.6895C24.2423 23.6895 25.2518 22.6666 25.2518 21.4048C25.2518 20.143 24.2423 19.1201 22.997 19.1201C21.7517 19.1201 20.7422 20.143 20.7422 21.4048C20.7422 22.6666 21.7517 23.6895 22.997 23.6895Z" fill="#333333"/>
<path d="M32.0165 23.6895C33.2618 23.6895 34.2713 22.6666 34.2713 21.4048C34.2713 20.143 33.2618 19.1201 32.0165 19.1201C30.7712 19.1201 29.7617 20.143 29.7617 21.4048C29.7617 22.6666 30.7712 23.6895 32.0165 23.6895Z" fill="#333333"/>
</svg>
