<svg width="55" height="55" viewBox="0 0 55 55" fill="none" xmlns="http://www.w3.org/2000/svg">
<path d="M34.7156 1.34907C48.8635 8.16717 58.0441 20.1543 54.0685 34.7302C47.6428 48.5081 34.9828 57.9931 20.319 54.133C5.64394 47.6181 -3.00942 35.3277 0.966115 20.7518C6.33719 7.58023 19.2883 -4.03791 34.7156 1.34907Z" fill="#FFDC66"/>
<path d="M14.5898 31.5249C14.5898 31.5249 28.2471 40.5394 40.818 31.5249" stroke="#333333" stroke-width="4.72465" stroke-linecap="round"/>
<path d="M22.7115 23.7307C23.9847 23.7307 25.0168 22.6986 25.0168 21.4254C25.0168 20.1522 23.9847 19.1201 22.7115 19.1201C21.4384 19.1201 20.4062 20.1522 20.4062 21.4254C20.4062 22.6986 21.4384 23.7307 22.7115 23.7307Z" fill="#333333"/>
<path d="M31.9342 23.7307C33.2074 23.7307 34.2395 22.6986 34.2395 21.4254C34.2395 20.1522 33.2074 19.1201 31.9342 19.1201C30.661 19.1201 29.6289 20.1522 29.6289 21.4254C29.6289 22.6986 30.661 23.7307 31.9342 23.7307Z" fill="#333333"/>
</svg>
