<svg width="63" height="63" viewBox="0 0 63 63" fill="none" xmlns="http://www.w3.org/2000/svg">
<g filter="url(#filter0_d_1233_257)">
<path d="M38.7156 1.34907C52.8635 8.16717 62.0441 20.1543 58.0685 34.7302C51.6428 48.5081 38.9828 57.9931 24.319 54.133C9.64394 47.6181 0.990579 35.3277 4.96612 20.7518C10.3372 7.58023 23.2883 -4.03791 38.7156 1.34907Z" fill="#FFDC66"/>
</g>
<path d="M18.5884 31.5249C18.5884 31.5249 32.2457 40.5394 44.8166 31.5249" stroke="#333333" stroke-width="4.72465" stroke-linecap="round"/>
<path d="M26.7125 23.7307C27.9857 23.7307 29.0178 22.6986 29.0178 21.4254C29.0178 20.1522 27.9857 19.1201 26.7125 19.1201C25.4393 19.1201 24.4072 20.1522 24.4072 21.4254C24.4072 22.6986 25.4393 23.7307 26.7125 23.7307Z" fill="#333333"/>
<path d="M35.9337 23.7307C37.2069 23.7307 38.239 22.6986 38.239 21.4254C38.239 20.1522 37.2069 19.1201 35.9337 19.1201C34.6605 19.1201 33.6284 20.1522 33.6284 21.4254C33.6284 22.6986 34.6605 23.7307 35.9337 23.7307Z" fill="#333333"/>
<defs>
<filter id="filter0_d_1233_257" x="0.31154" y="0" width="62.3769" height="62.3769" filterUnits="userSpaceOnUse" color-interpolation-filters="sRGB">
<feFlood flood-opacity="0" result="BackgroundImageFix"/>
<feColorMatrix in="SourceAlpha" type="matrix" values="0 0 0 0 0 0 0 0 0 0 0 0 0 0 0 0 0 0 127 0" result="hardAlpha"/>
<feOffset dy="3.68847"/>
<feGaussianBlur stdDeviation="1.84423"/>
<feComposite in2="hardAlpha" operator="out"/>
<feColorMatrix type="matrix" values="0 0 0 0 0 0 0 0 0 0 0 0 0 0 0 0 0 0 0.25 0"/>
<feBlend mode="normal" in2="BackgroundImageFix" result="effect1_dropShadow_1233_257"/>
<feBlend mode="normal" in="SourceGraphic" in2="effect1_dropShadow_1233_257" result="shape"/>
</filter>
</defs>
</svg>
