<svg width="56" height="55" viewBox="0 0 56 55" fill="none" xmlns="http://www.w3.org/2000/svg">
<path d="M46.6109 6.5341C56.6235 18.812 59.8268 33.7616 49.8301 45.5368C37.9326 55.5391 22.1844 58.9414 10.4099 49.176C-0.218691 36.9549 -2.80605 21.9486 7.19056 10.1733C17.8561 0.284796 34.8007 -4.96386 46.6109 6.5341Z" fill="#FFDC66"/>
<path d="M15.2539 32.0464C15.2539 32.0464 27.5314 32.0465 41.4821 32.0464" stroke="#333333" stroke-width="4.72465" stroke-linecap="round"/>
<path d="M23.8444 23.7327C25.1175 23.7327 26.1496 22.7005 26.1496 21.4274C26.1496 20.1542 25.1175 19.1221 23.8444 19.1221C22.5712 19.1221 21.5391 20.1542 21.5391 21.4274C21.5391 22.7005 22.5712 23.7327 23.8444 23.7327Z" fill="#333333"/>
<path d="M33.067 23.7327C34.3402 23.7327 35.3723 22.7005 35.3723 21.4274C35.3723 20.1542 34.3402 19.1221 33.067 19.1221C31.7938 19.1221 30.7617 20.1542 30.7617 21.4274C30.7617 22.7005 31.7938 23.7327 33.067 23.7327Z" fill="#333333"/>
</svg>
