<svg width="112" height="112" viewBox="0 0 112 112" fill="none" xmlns="http://www.w3.org/2000/svg">
<path d="M84.35 7.25195L103.824 27.552V104.748H31.0765V105H104.072V27.8075L84.35 7.25195Z" fill="#909090"/>
<path d="M84.1085 7H30.828V104.748H103.824V27.5555L84.1085 7Z" fill="#F4F4F4"/>
<path d="M30.2925 12.25H7.92749V36.1445H78.2775V12.25H30.2925Z" fill="#7A7B7C"/>
<path d="M78.652 35.7384H8.38251V11.8264H78.652V35.7384Z" fill="#DD2025"/>
<path d="M31.682 15.8689H31.577H30.8525H27.1075V32.6689H30.7055V27.0024L31.5 27.0479C32.272 27.0346 33.0367 26.8963 33.7645 26.6384C34.4025 26.4189 34.9895 26.0725 35.49 25.6199C35.9992 25.1888 36.4007 24.6446 36.6625 24.0309C37.0135 23.0106 37.1389 21.9263 37.03 20.8529C37.0081 20.0861 36.8737 19.3266 36.631 18.5989C36.41 18.0736 36.0822 17.6 35.6682 17.2083C35.2542 16.8166 34.7632 16.5154 34.2265 16.3239C33.7624 16.1559 33.2829 16.034 32.795 15.9599C32.4255 15.9029 32.0523 15.8725 31.6785 15.8689M31.017 23.8979H30.7055V18.7179H31.381C31.6791 18.6964 31.9783 18.7422 32.2563 18.8518C32.5344 18.9615 32.7843 19.1322 32.9875 19.3514C33.4086 19.9149 33.6336 20.6009 33.628 21.3044C33.628 22.1654 33.628 22.9459 32.851 23.4954C32.2912 23.8033 31.6541 23.9454 31.017 23.8979Z" fill="#464648"/>
<path d="M43.8655 15.8234C43.477 15.8234 43.099 15.8514 42.833 15.8619L42 15.8829H39.27V32.6829H42.483C43.7109 32.7166 44.9334 32.5085 46.081 32.0704C47.0047 31.704 47.8226 31.1134 48.461 30.3519C49.0818 29.5835 49.5273 28.6888 49.7665 27.7304C50.0415 26.645 50.1756 25.5286 50.1655 24.4089C50.2334 23.0865 50.1311 21.7608 49.861 20.4644C49.6048 19.5102 49.1248 18.6307 48.461 17.8989C47.9402 17.308 47.3026 16.8313 46.5885 16.4989C45.9752 16.2151 45.3301 16.006 44.667 15.8759C44.4033 15.8324 44.1363 15.8124 43.869 15.8164M43.232 29.5959H42.882V18.8719H42.9275C43.6491 18.7889 44.3791 18.9191 45.0275 19.2464C45.5023 19.6256 45.8892 20.1032 46.1615 20.6464C46.4554 21.2181 46.6247 21.8455 46.6585 22.4874C46.69 23.2574 46.6585 23.8874 46.6585 24.4089C46.6728 25.0096 46.6341 25.6105 46.543 26.2044C46.4351 26.8142 46.2357 27.4042 45.9515 27.9544C45.6298 28.466 45.1952 28.897 44.681 29.2144C44.2492 29.4937 43.7378 29.624 43.225 29.5854" fill="#464648"/>
<path d="M61.005 15.8831H52.5V32.6831H56.098V26.0191H60.648V22.8971H56.098V19.0051H60.998V15.8831" fill="#464648"/>
<path d="M76.2335 70.8925C76.2335 70.8925 87.3915 68.8695 87.3915 72.681C87.3915 76.4925 80.479 74.942 76.2335 70.8925ZM67.984 71.183C66.2112 71.5747 64.4836 72.1483 62.8285 72.8945L64.2285 69.7445C65.6285 66.5945 67.081 62.3 67.081 62.3C68.7516 65.1117 70.6953 67.7518 72.884 70.182C71.2335 70.4282 69.5977 70.7647 67.984 71.19V71.183ZM63.567 48.433C63.567 45.1115 64.6415 44.205 65.478 44.205C66.3145 44.205 67.256 44.6075 67.2875 47.4915C67.015 50.3915 66.4078 53.2502 65.478 56.0105C64.2044 53.693 63.5453 51.0879 63.5635 48.4435L63.567 48.433ZM47.2955 85.239C43.8725 83.1915 54.474 76.888 56.3955 76.685C56.385 76.6885 50.8795 87.381 47.2955 85.239ZM90.65 73.1325C90.615 72.7825 90.3 68.908 83.405 69.0725C80.5311 69.0262 77.6585 69.2288 74.8195 69.678C72.0694 66.9074 69.7012 63.7824 67.7775 60.3855C68.9895 56.8835 69.7229 53.2339 69.958 49.5355C69.8565 45.3355 68.852 42.9275 65.632 42.9625C62.412 42.9975 61.943 45.815 62.3665 50.008C62.7814 52.8257 63.5639 55.5768 64.694 58.191C64.694 58.191 63.2065 62.8215 61.2395 67.4275C59.2725 72.0335 57.9285 74.4485 57.9285 74.4485C54.5081 75.562 51.2881 77.2163 48.391 79.3485C45.507 82.033 44.3345 84.0945 45.8535 86.156C47.1625 87.934 51.744 88.3365 55.839 82.971C58.0148 80.1998 60.0026 77.2859 61.789 74.249C61.789 74.249 68.033 72.5375 69.9755 72.0685C71.918 71.5995 74.2665 71.2285 74.2665 71.2285C74.2665 71.2285 79.968 76.965 85.4665 76.762C90.965 76.559 90.699 73.4755 90.664 73.1395" fill="#DD2025"/>
<path d="M83.839 7.26953V27.825H103.554L83.839 7.26953Z" fill="#909090"/>
<path d="M84.1085 7V27.5555H103.824L84.1085 7Z" fill="#F4F4F4"/>
<path d="M31.4125 15.5996H31.3075H30.583H26.838V32.3996H30.45V26.7366L31.248 26.7821C32.02 26.7688 32.7848 26.6305 33.5125 26.3726C34.1505 26.1531 34.7375 25.8066 35.238 25.3541C35.7434 24.9218 36.1413 24.3778 36.4 23.7651C36.751 22.7449 36.8764 21.6606 36.7675 20.5871C36.7457 19.8203 36.6112 19.0608 36.3685 18.3331C36.1476 17.8078 35.8197 17.3342 35.4057 16.9425C34.9917 16.5509 34.5008 16.2497 33.964 16.0581C33.4978 15.8885 33.016 15.7654 32.5255 15.6906C32.156 15.6336 31.7829 15.6032 31.409 15.5996M30.7475 23.6286H30.436V18.4486H31.115C31.4131 18.4271 31.7123 18.4729 31.9904 18.5825C32.2684 18.6922 32.5183 18.8629 32.7215 19.0821C33.1426 19.6457 33.3676 20.3316 33.362 21.0351C33.362 21.8961 33.362 22.6766 32.585 23.2261C32.0252 23.534 31.3881 23.6726 30.751 23.6251" fill="white"/>
<path d="M43.596 15.5539C43.2075 15.5539 42.8295 15.5819 42.5635 15.5924L41.741 15.6134H39.011V32.4134H42.224C43.4519 32.447 44.6744 32.2389 45.822 31.8009C46.7457 31.4345 47.5636 30.8439 48.202 30.0824C48.8228 29.314 49.2683 28.4193 49.5075 27.4609C49.7825 26.3754 49.9166 25.2591 49.9065 24.1394C49.9744 22.8169 49.872 21.4912 49.602 20.1949C49.3457 19.2407 48.8658 18.3612 48.202 17.6294C47.6812 17.0385 47.0436 16.5618 46.3295 16.2294C45.7162 15.9456 45.0711 15.7364 44.408 15.6064C44.1443 15.5628 43.8772 15.5429 43.61 15.5469M42.973 29.3264H42.623V18.6024H42.6685C43.39 18.5194 44.1201 18.6496 44.7685 18.9769C45.2433 19.356 45.6302 19.8337 45.9025 20.3769C46.1963 20.9486 46.3657 21.576 46.3995 22.2179C46.431 22.9879 46.3995 23.6179 46.3995 24.1394C46.4137 24.7401 46.3751 25.3409 46.284 25.9349C46.1761 26.5447 45.9767 27.1347 45.6925 27.6849C45.3708 28.1964 44.9362 28.6275 44.422 28.9449C43.9902 29.2242 43.4788 29.3545 42.966 29.3159" fill="white"/>
<path d="M60.7355 15.6135H52.2305V32.4135H55.8285V25.7495H60.3785V22.6275H55.8285V18.7355H60.7285V15.6135" fill="white"/>
</svg>
