<svg width="81" height="145" viewBox="0 0 105 149" fill="none" xmlns="http://www.w3.org/2000/svg">
<path d="M88.2691 136.649C81.6739 138.016 75.7996 136.964 70.2879 134.017C67.3015 132.358 64.3939 130.424 61.5612 128.54C57.2432 125.696 53.0789 122.627 49.2218 119.108C45.3018 115.602 42.2445 111.477 40.0501 106.733C39.1912 104.937 38.3836 103.065 37.7138 101.233C35.9725 96.4702 35.6928 91.4981 35.9923 86.4827C36.2327 82.1962 36.8631 77.9018 37.3674 73.6311C37.9703 68.4936 38.5731 63.3561 38.5101 58.1476C38.4865 54.8894 37.0446 52.4191 34.4364 50.6895C32.1908 49.153 29.9569 47.6795 27.597 46.2296C24.2127 44.1887 20.399 43.3377 16.5064 42.7624C12.476 42.1478 8.76867 40.82 5.84931 37.7785C3.16632 34.9536 2.86693 31.6166 3.50128 28.0392C3.6116 27.2355 3.77314 26.3569 4.03318 25.6557C4.56507 24.3161 5.14817 22.9017 5.89281 21.6528C6.73988 20.2542 8.19368 19.6554 9.85234 19.8012C12.1768 20.0179 13.6739 22.0863 12.9805 24.3044C12.7047 25.2696 12.1649 26.2191 11.6764 27.0938C10.4038 29.3552 10.522 29.9856 12.8622 30.9824C17.6806 33.0154 22.3965 35.1981 27.6956 35.9664C32.4036 36.715 36.899 38.417 41.3036 40.3318C43.0805 41.108 44.3609 42.3688 45.3734 43.9407C47.4615 47.0729 48.5134 50.5951 49.0098 54.2867C49.971 61.1538 49.6873 67.9933 49.4784 74.8841C49.3641 79.1469 49.2498 83.4098 49.4507 87.6136C49.7501 93.0387 52.1848 97.672 56.0261 101.454C60.6632 106.001 66.2222 109.2 72.5811 110.748C78.0495 112.072 83.5298 113.459 88.9706 114.984C90.7514 115.433 92.4652 116.221 94.116 117.021C97.8667 118.928 99.7657 122.095 99.3756 126.279C99.0091 130.59 96.9328 133.785 92.7763 135.282C91.1964 135.904 89.5062 136.286 88.2691 136.649ZM43.6276 94.8392C43.5015 94.8628 43.4385 94.8746 43.3242 94.9613C43.5882 96.0211 43.7379 97.1676 44.1279 98.2038C44.8095 100.099 45.6053 101.907 46.4011 103.716C48.1779 107.624 50.7663 110.989 53.9773 113.845C59.6505 119.046 66.0921 123.123 72.6479 127.114C77.5175 130.117 82.7535 130.897 88.3086 129.203C89.1675 128.911 90.113 128.734 90.8853 128.328C92.8355 127.245 92.9064 124.491 91.0074 123.411C89.8452 122.781 88.6317 122.225 87.3277 121.882C82.1744 120.5 77.0724 119.042 71.8285 117.872C64.6029 116.225 58.2914 112.84 52.7008 108.081C48.828 104.827 46.0347 100.717 44.1161 96.0526C44.0452 95.6744 43.8364 95.2568 43.6276 94.8392Z" fill="black"/>
<path d="M68.3428 48.1171C68.5161 51.4777 68.7328 55.4175 69.0125 59.3455C69.3906 64.4949 68.776 69.5693 68.4371 74.7226C68.0588 80.0138 68.1967 85.2734 68.8624 90.5646C69.0949 92.1523 69.4534 93.7165 69.9892 95.1821C70.3792 96.2182 71.0844 97.1953 71.8803 97.9596C73.5586 99.6026 75.5836 100.658 77.723 101.628C82.3404 103.633 86.9066 105.713 91.4728 107.794C92.9739 108.491 94.4237 109.263 95.7199 110.26C99.7346 113.227 102.28 117.056 102.268 122.213C102.264 128.805 97.1735 134.718 90.6688 135.873C86.3074 136.625 82.0485 136.184 78.0063 134.462C72.7624 132.248 67.6604 129.746 62.9326 126.456C60.3009 124.601 57.8976 122.571 55.7623 120.231C55.3407 119.723 54.8561 119.227 54.3833 118.793C50.3608 115.436 47.7212 111.103 45.4125 106.446C42.0598 99.7007 41.201 92.6839 42.5603 85.3165C43.1001 82.2789 43.892 79.194 44.6328 76.184C45.6374 72.1457 46.5791 68.1193 46.6422 63.9312C46.7447 60.6494 46.331 57.399 45.2752 54.2038C43.6835 49.543 40.7326 45.9853 36.5368 43.4441C35.0633 42.5458 33.4756 41.7342 31.9115 41.0487C24.8908 38.0583 17.7361 35.7455 10.0338 35.0363C9.70675 35.0323 9.43097 34.9535 9.10396 34.9496C4.061 34.851 1.50019 29.1974 2.83188 25.163C3.83657 22.1688 5.37706 19.5961 7.40609 17.1929C9.81728 14.3917 12.8707 12.5794 16.515 11.8309C18.0909 11.5354 19.6668 11.2399 21.2034 11.0823C27.0461 10.5742 32.7982 11.3228 38.2824 13.4267C40.4611 14.258 42.5886 15.1642 44.6649 16.1453C55.5702 21.409 62.6618 29.9978 66.436 41.4272C67.0782 43.4602 67.5943 45.5168 68.3428 48.1171Z" fill="#EA552B"/>
<mask id="mask0_468_629" style="mask-type:alpha" maskUnits="userSpaceOnUse" x="2" y="10" width="101" height="127">
<path d="M68.3428 48.1171C68.5161 51.4777 68.7328 55.4175 69.0125 59.3455C69.3906 64.4949 68.776 69.5693 68.4371 74.7226C68.0588 80.0138 68.1967 85.2734 68.8624 90.5646C69.0949 92.1523 69.4534 93.7165 69.9892 95.1821C70.3792 96.2182 71.0844 97.1953 71.8803 97.9596C73.5586 99.6026 75.5836 100.658 77.723 101.628C82.3404 103.633 86.9066 105.713 91.4728 107.794C92.9739 108.491 94.4237 109.263 95.7199 110.26C99.7346 113.227 102.28 117.056 102.268 122.213C102.264 128.805 97.1735 134.718 90.6688 135.873C86.3074 136.625 82.0485 136.184 78.0063 134.462C72.7624 132.248 67.6604 129.746 62.9326 126.456C60.3009 124.601 57.8976 122.571 55.7623 120.231C55.3407 119.723 54.8561 119.227 54.3833 118.793C50.3608 115.436 47.7212 111.103 45.4125 106.446C42.0598 99.7007 41.201 92.6839 42.5603 85.3165C43.1001 82.2789 43.892 79.194 44.6328 76.184C45.6374 72.1457 46.5791 68.1193 46.6422 63.9312C46.7447 60.6494 46.331 57.399 45.2752 54.2038C43.6835 49.543 40.7326 45.9853 36.5368 43.4441C35.0633 42.5458 33.4756 41.7342 31.9115 41.0487C24.8908 38.0583 17.7361 35.7455 10.0338 35.0363C9.70675 35.0323 9.43097 34.9535 9.10396 34.9496C4.061 34.851 1.50019 29.1974 2.83188 25.163C3.83657 22.1688 5.37706 19.5961 7.40609 17.1929C9.81728 14.3917 12.8707 12.5794 16.515 11.8309C18.0909 11.5354 19.6668 11.2399 21.2034 11.0823C27.0461 10.5742 32.7982 11.3228 38.2824 13.4267C40.4611 14.258 42.5886 15.1642 44.6649 16.1453C55.5702 21.409 62.6618 29.9978 66.436 41.4272C67.0782 43.4602 67.5943 45.5168 68.3428 48.1171Z" fill="#EA552B"/>
</mask>
<g mask="url(#mask0_468_629)">
<path fill-rule="evenodd" clip-rule="evenodd" d="M36.769 19.9748C36.4735 18.3988 35.2522 17.4533 33.8024 17.7251C32.5416 17.9615 31.6591 19.171 31.8561 20.5696C32.1121 22.2834 33.3571 23.3551 34.7439 23.0951C36.1426 22.8981 37.0527 21.4876 36.769 19.9748ZM62.2673 42.8615C62.551 44.3744 61.5148 45.8084 59.9389 46.1039C58.4142 46.3245 57.0668 45.4026 56.8461 43.8779C56.6373 42.4162 57.6223 41.057 59.1352 40.7733C60.5732 40.4385 61.9837 41.3486 62.2673 42.8615ZM55.6721 64.0654C57.311 63.7581 58.1226 62.1703 57.7563 60.2162C57.4214 58.7782 56.2867 57.9468 54.9866 58.3211C53.4737 58.6048 52.3705 60.3777 52.666 61.9536C52.9497 63.4665 54.2222 64.3372 55.6721 64.0654ZM63.5791 72.8275C63.9219 74.6556 62.9605 76.1409 61.424 76.2984C59.9623 76.5072 58.5282 75.4711 58.4337 73.9227C58.3667 73.2175 58.5401 72.402 58.8001 71.7007C59.1902 70.6487 60.0018 70.1051 61.1719 70.0814C62.279 70.0696 62.8109 70.8182 63.1773 71.7283C63.323 72.1577 63.4688 72.5872 63.5791 72.8275ZM58.6944 86.999C58.7065 86.7774 58.7188 86.5539 58.737 86.3293C58.4257 85.0174 57.819 84.2176 56.8538 83.9418C55.7624 83.6896 54.549 84.1781 53.8831 85.1513C53.2173 86.1244 52.9533 87.1527 53.2409 88.3386C53.5521 89.6505 54.6238 90.4936 55.8688 90.5212C57.1137 90.5488 58.2681 89.7451 58.5478 88.4529C58.6405 87.9841 58.6672 87.4964 58.6944 86.999ZM76.2735 114.486L76.2756 114.581L76.2807 114.818C76.3912 115.005 76.5077 115.224 76.634 115.461L76.634 115.461C76.9441 116.043 77.3131 116.735 77.7975 117.34C78.6918 118.281 80.1377 118.336 81.1778 117.619C82.1549 116.914 82.5607 115.598 82.021 114.46C81.5915 113.561 80.973 112.699 80.3663 111.899C79.7714 111.162 78.944 110.926 78.0103 111.166C77.0135 111.418 76.4265 112.115 76.2886 113.12C76.2518 113.515 76.2604 113.901 76.2735 114.486ZM64.7214 107.459C65.0523 109.224 64.1028 110.772 62.5387 111.13C60.9628 111.426 59.5287 110.39 59.2726 108.676C58.9929 106.836 59.97 105.087 61.4947 104.866C63.0194 104.646 64.4023 105.757 64.7214 107.459ZM89.6009 127.394C91.0508 127.122 92.0239 125.7 91.7403 124.187C91.1966 122.332 90.1959 120.823 88.5057 121.205C86.9298 121.5 85.8779 123.198 86.2088 124.963C86.5791 126.591 88.0881 127.678 89.6009 127.394ZM43.2658 30.959C44.6133 30.8369 45.9094 31.8337 46.0434 33.2441C46.1891 34.7176 45.1411 36.0887 43.6046 36.2463C42.2572 36.3684 41.1107 35.474 40.9137 34.0754C40.7562 32.5389 41.8042 31.1678 43.2658 30.959ZM15.2892 27.917C16.2348 27.7397 16.7745 26.7902 16.5972 25.8447C16.3451 24.8479 15.3838 24.2451 14.5131 24.4736C13.6424 24.7021 13.0632 25.7895 13.2917 26.6602C13.5202 27.5309 14.4067 28.0825 15.2892 27.917Z" fill="#FBE8DE"/>
</g>
</svg>
