<svg width="93" height="96" viewBox="0 0 93 96" fill="none" xmlns="http://www.w3.org/2000/svg">
<rect width="93" height="96" fill="#E1E1E1"/>
<g id="Exercise" clip-path="url(#clip0_0_1)">
<rect width="1440" height="834" transform="translate(-585 -184)" fill="white"/>
<g id="7">
<path id="Shape" d="M39.5551 46.3199C39.7366 45.701 39.9181 45.1337 40.0736 44.5665C40.8256 41.6527 41.5516 38.739 42.5369 35.8768C44.326 30.694 46.4004 25.6143 48.5266 20.5604C50.8861 14.965 53.1938 9.36957 55.5275 3.77417C55.8905 2.87168 56.3313 2.02077 56.7721 1.14407C56.9277 0.808862 57.161 0.499439 57.4203 0.241586C57.8611 -0.196764 58.4315 -0.0162667 58.4834 0.60258C58.5353 1.11829 58.5353 1.63399 58.4315 2.1497C58.0426 4.34144 57.6537 6.53319 57.1869 8.69916C55.9423 14.604 54.6718 20.5088 53.6865 26.4652C53.1161 29.972 52.6234 33.4788 52.1307 36.9856C51.6899 40.0798 51.3269 43.1483 50.938 46.2425C50.8861 46.7066 50.8602 47.1708 50.8083 47.7638C51.0676 47.6091 51.1973 47.5318 51.3269 47.4286C51.8455 46.9645 52.39 46.5004 52.8568 45.9847C57.887 40.776 63.5655 36.3152 69.5552 32.2411C69.9182 32.009 70.2812 31.777 70.6702 31.5707C70.8776 31.4676 71.111 31.416 71.3184 31.3902C71.7333 31.3644 72.0444 31.6481 72.0444 32.0606C72.0444 32.37 71.9925 32.731 71.837 33.0147C71.474 33.7624 71.111 34.5102 70.6442 35.1806C69.0885 37.3466 67.5327 39.5126 65.9251 41.6269C63.5137 44.7985 61.0504 47.9443 58.6131 51.1159C58.1463 51.709 57.7315 52.3536 57.3425 53.024C56.7721 53.9781 56.8758 54.4422 57.8352 55.0353C58.5612 55.4736 59.3131 55.8604 60.091 56.1956C62.8914 57.3817 65.7955 58.31 68.6995 59.1867C76.0894 61.4558 83.4014 63.957 90.5579 66.8707C90.9987 67.0512 91.4654 67.2059 91.9062 67.3864C92.0877 67.4638 92.2433 67.5412 92.3989 67.6701C92.7359 67.9795 92.6322 68.521 92.1914 68.6757C92.0359 68.7273 91.8544 68.7531 91.6988 68.7531C89.9615 68.7788 88.2243 68.8304 86.487 68.7788C82.079 68.5984 77.6711 68.1342 73.289 67.5927C66.8586 66.8192 60.48 65.762 54.1532 64.4469C53.2976 64.2664 52.4419 64.1375 51.5862 63.9828C51.4047 63.957 51.2232 63.9312 51.0158 63.957C50.3416 63.957 50.0564 64.1117 49.8749 64.7821C49.6415 65.6846 49.4341 66.5871 49.2785 67.4896C48.5784 71.3832 48.008 75.3025 47.5672 79.2477C47.282 81.8004 47.0745 84.3789 46.7634 86.9317C46.53 88.9429 46.1929 90.9284 45.9077 92.9396C45.8299 93.378 45.6744 93.8163 45.5188 94.2289C45.3632 94.6673 45.078 95.054 44.5335 95.054C44.0408 95.0283 43.7556 94.6673 43.6259 94.2289C43.3926 93.5327 43.1592 92.8107 43.0555 92.0887C42.7962 90.3611 42.5369 88.6077 42.4332 86.8801C42.1739 82.6513 41.9665 78.4483 41.8368 74.2195C41.759 71.6668 41.8368 69.1141 41.8628 66.5613C41.8628 66.3292 41.8628 66.0714 41.8628 65.7362C41.4738 65.7878 41.1367 65.7878 40.7997 65.8393C37.0658 66.4582 33.4098 67.3091 29.7279 68.1858C23.453 69.6298 17.1781 71.2027 10.8254 72.4661C8.12881 73.0076 5.40623 73.4718 2.68366 73.9617C2.21694 74.039 1.72428 74.0648 1.25755 74.1164C1.12791 74.1164 0.998262 74.1422 0.894545 74.1164C0.350031 74.0906 0.0648091 73.9359 0.0129506 73.6007C-0.0648371 73.1623 0.220385 72.9561 0.531536 72.7756C1.23163 72.3888 1.90579 72.0278 2.60588 71.6668C9.21783 68.1858 15.9854 65.0142 22.701 61.7652C25.8385 60.2439 28.9241 58.5679 32.0096 56.9434C32.3986 56.7371 32.7357 56.5051 33.2024 56.2214C32.969 55.912 32.7875 55.6026 32.5542 55.3705C31.2577 53.9781 30.0131 52.5341 28.6129 51.2449C25.8126 48.6663 22.9603 46.1652 20.0822 43.664C16.5817 40.6213 13.1332 37.5271 9.96978 34.1492C9.26969 33.4014 8.59553 32.6021 7.9473 31.8028C7.7658 31.5965 7.61022 31.3386 7.45464 31.0808C7.24721 30.7198 7.27314 30.3846 7.5065 30.1525C7.71394 29.9204 8.05102 29.8947 8.41403 30.0751C8.54367 30.1267 8.67332 30.2299 8.80297 30.2814C10.5402 31.2613 12.2256 32.2927 13.9888 33.221C19.2265 35.9542 24.4902 38.6874 29.6242 41.6527C32.0874 43.0709 34.6544 44.257 37.3511 45.2111C37.7659 45.3658 38.1289 45.5721 38.5179 45.7784C38.855 45.9331 39.1661 46.1136 39.5551 46.3199Z" fill="#EA552B"/>
</g>
</g>
<defs>
<clipPath id="clip0_0_1">
<rect width="1440" height="834" fill="white" transform="translate(-585 -184)"/>
</clipPath>
</defs>
</svg>
