<svg width="246" height="380" viewBox="0 0 246 380" fill="none" xmlns="http://www.w3.org/2000/svg">
<path d="M268.62 161.259C273.607 169.229 278.943 179.057 283.064 189.514C287.757 201.455 289.887 213.967 290.666 226.658C291.96 248.041 287.624 268.351 278.144 287.504C270.035 303.997 259.738 318.893 246.4 331.585C238.9 338.737 230.925 345.27 221.926 350.457C213.78 355.171 205.146 358.888 195.924 360.978C189.951 362.362 183.921 362.703 177.881 361.352C175.193 360.772 172.655 359.708 170.211 358.43C165.092 355.637 162.28 351.279 161.232 345.706C160.619 342.244 160.762 338.757 161.353 335.367C162.499 328.533 164.667 321.966 167.782 315.791C170.505 310.563 173.407 305.374 176.04 300.127C181.21 290.08 186.29 280.015 191.3 269.84C193.898 264.538 196.032 258.996 197.932 253.45C201.962 241.516 203.533 229.239 202.914 216.677C202.372 206.148 199.428 196.321 194.552 186.967C187.352 173.173 176.974 162.585 163.66 154.74C161.539 153.485 159.289 152.39 157.021 151.385C143.085 145.329 128.484 141.708 113.309 140.309C100.254 139.086 87.3525 139.538 74.3671 140.816C64.2093 141.813 54.0005 142.611 43.8814 143.429C39.4879 143.794 35.047 143.727 30.6993 143.445C29.4955 143.373 28.3497 143.032 27.3709 142.352C25.7332 141.248 24.0955 140.144 22.4032 139.075C20.1417 137.602 18.6622 135.548 17.7118 132.998C14.7041 124.985 14.5399 116.836 17.7183 108.846C21.2341 99.9434 26.8675 92.5297 33.7642 85.9983C45.9707 74.4222 60.5841 67.7741 77.2338 65.5987C91.0365 63.7938 104.784 64.4159 118.356 67.1573C129.688 69.4152 140.678 72.8188 151.649 76.3121C165.554 80.767 179.126 85.9003 192.337 92.2689C212.137 101.795 229.475 114.682 244.555 130.646C253.014 139.694 260.854 149.218 268.62 161.259Z" fill="#EA552B"/>
<mask id="mask0_1_11965" style="mask-type:alpha" maskUnits="userSpaceOnUse" x="15" y="64" width="276" height="299">
<path d="M268.62 161.259C273.607 169.229 278.943 179.057 283.064 189.514C287.757 201.455 289.887 213.967 290.666 226.658C291.96 248.041 287.624 268.351 278.144 287.504C270.035 303.997 259.738 318.893 246.4 331.585C238.9 338.737 230.925 345.27 221.926 350.457C213.78 355.171 205.146 358.888 195.924 360.978C189.951 362.362 183.921 362.703 177.881 361.352C175.193 360.772 172.655 359.708 170.211 358.43C165.092 355.637 162.28 351.279 161.232 345.706C160.619 342.244 160.762 338.757 161.353 335.367C162.499 328.533 164.667 321.966 167.782 315.791C170.505 310.563 173.407 305.374 176.04 300.127C181.21 290.08 186.29 280.015 191.3 269.84C193.898 264.538 196.032 258.996 197.932 253.45C201.962 241.516 203.533 229.239 202.914 216.677C202.372 206.148 199.428 196.321 194.552 186.967C187.352 173.173 176.974 162.585 163.66 154.74C161.539 153.485 159.289 152.39 157.021 151.385C143.085 145.329 128.484 141.708 113.309 140.309C100.254 139.086 87.3525 139.538 74.3671 140.816C64.2093 141.813 54.0005 142.611 43.8814 143.429C39.4879 143.794 35.047 143.727 30.6993 143.445C29.4955 143.373 28.3497 143.032 27.3709 142.352C25.7332 141.248 24.0955 140.144 22.4032 139.075C20.1417 137.602 18.6622 135.548 17.7118 132.998C14.7041 124.985 14.5399 116.836 17.7183 108.846C21.2341 99.9434 26.8675 92.5297 33.7642 85.9983C45.9707 74.4222 60.5841 67.7741 77.2338 65.5987C91.0365 63.7938 104.784 64.4159 118.356 67.1573C129.688 69.4152 140.678 72.8188 151.649 76.3121C165.554 80.767 179.126 85.9003 192.337 92.2689C212.137 101.795 229.475 114.682 244.555 130.646C253.014 139.694 260.854 149.218 268.62 161.259Z" fill="black"/>
</mask>
<g mask="url(#mask0_1_11965)">
<path d="M131.755 241.131C131.789 241.652 131.842 241.85 131.805 242.03C131.319 251.756 133.297 261.096 136.192 270.296C139.691 281.584 144.271 292.39 149.211 303.036C152.921 310.998 156.901 318.782 161.133 326.476C165.097 333.648 169.224 340.713 173.873 347.509C178.146 353.855 183.123 359.503 189.382 363.914C202.24 372.901 216.062 374.41 230.613 368.676C243.435 363.618 253.036 354.629 259.897 342.787C269.201 326.765 271.065 309.6 266.71 291.728C265.382 286.31 263.388 281.178 260.8 276.205C260.657 275.989 260.514 275.772 260.263 275.394C259.686 275.931 259.108 276.468 258.585 276.97C247.793 287.214 235.643 295.169 221.58 300.114C212.055 303.458 202.285 305.02 192.201 303.993C182.944 303.04 174.433 300.04 167.083 294.096C161.347 289.417 157.198 283.611 155.661 276.233C153.771 267.378 156.068 259.332 161.49 252.25C163.279 249.901 165.481 247.824 167.539 245.53C167.449 245.512 167.144 245.402 166.875 245.347C161.068 244.912 157.286 241.894 155.473 236.331C154.62 233.63 154.343 230.86 154.444 228.073C154.587 223.704 155.556 219.411 156.956 215.298C160.175 205.942 165.224 197.708 171.456 190.09C180.381 179.137 191.061 170.134 203.44 163.348C209.243 160.134 215.42 157.604 221.793 155.723C222.297 155.545 222.747 155.403 223.233 155.315C223.324 155.099 223.396 154.974 223.379 154.83C224.625 143.902 224.397 133.094 221.525 122.402C219.699 115.76 216.881 109.617 212.604 104.206C204.606 94.1058 194.159 89.1208 181.284 89.1612C177.257 89.1817 173.298 89.7779 169.464 90.914C169.122 90.9846 168.762 91.1451 168.401 91.3055C168.436 91.5933 168.381 91.8629 168.47 92.1149C171.081 105.234 171.084 118.522 169.559 131.732C167.96 145.302 164.673 158.434 159.338 171.055C156.471 177.769 152.958 184.211 148.297 189.857C145.389 193.334 142.104 196.361 138.122 198.683C136.157 199.826 133.978 200.645 131.747 201.032C125.99 201.963 121.358 199.895 117.725 195.458C115.022 192.193 113.509 188.375 112.373 184.307C110.478 176.855 110.381 169.302 111.363 161.736C113.049 148.886 117.572 137.035 124.016 125.857C129.012 117.191 135.228 109.429 142.716 102.769C148.868 97.3802 155.61 93.0006 163.228 90.0629C163.732 89.885 164.146 89.6888 164.704 89.4752C164.652 89.0434 164.581 88.7015 164.511 88.3596C162.846 81.8438 160.37 75.6307 156.435 70.1492C147.599 57.9598 135.627 52.4294 120.642 53.8643C112.674 54.6249 105.559 57.8522 99.0321 62.3225C93.9118 65.8632 89.4542 70.0538 85.4441 74.8035C85.137 75.1619 84.83 75.5204 84.6127 75.8971C85.7918 77.9156 86.9891 79.8442 88.1324 81.8086C92.7229 89.81 96.0347 98.346 98.23 107.309C101.434 120.502 102.462 133.812 100.504 147.309C99.5253 153.94 97.7924 160.371 94.7302 166.437C92.7376 170.242 90.3325 173.775 86.9061 176.351C85.5715 177.389 84.0755 178.3 82.4906 178.959C77.3399 181.043 72.1128 179.603 68.1377 175.236C65.1472 172.006 63.3639 168.133 61.9592 164.01C61.6034 163.001 61.0671 162.19 60.2787 161.468C53.7568 155.365 48.5155 148.26 44.2844 140.332C37.1074 126.89 33.3506 112.508 33.0854 97.295C32.9693 90.066 33.7516 83.0203 35.9181 76.0697C37.4476 71.0947 39.6235 66.3919 43.1808 62.4856C48.3634 56.8054 54.6462 54.9055 62.0643 57.0738C66.9678 58.4952 71.1105 61.3522 74.9096 64.7473C77.4719 67.0947 79.8537 69.6393 81.911 72.3983C82.2868 72.8493 82.627 73.2462 83.0744 73.8054C83.5437 73.3397 83.9048 72.9454 84.32 72.5155C88.7812 67.3899 93.7978 62.752 99.5122 59.0517C106.849 54.2788 114.827 51.1807 123.675 50.927C140.039 50.5223 152.383 57.6724 160.925 71.5331C163.802 76.2373 165.796 81.3697 167.232 86.7157C167.356 87.2556 167.57 87.8139 167.765 88.462C168.359 88.3024 168.899 88.1786 169.439 88.0548C178.024 85.8761 186.584 85.6572 195.026 88.315C205.101 91.4465 212.593 97.8407 218.079 106.727C223.548 115.469 226.028 125.098 226.942 135.297C227.441 141.107 227.329 146.933 226.803 152.721C226.783 153.278 226.709 153.871 226.671 154.519C227.354 154.377 227.93 154.308 228.47 154.184C235.758 152.863 243.096 152.442 250.445 153.801C270.103 157.437 283.024 168.869 288.902 187.988C291.797 197.421 292.029 207.06 290.787 216.819C288.916 231.269 283.471 244.429 275.566 256.572C271.967 262.06 267.973 267.188 263.531 271.99C263.278 272.312 262.989 272.581 262.628 272.975C263.52 274.795 264.466 276.579 265.269 278.38C276.575 302.77 274.534 333.187 254.975 355.445C247.66 363.779 238.807 370.02 228.132 373.27C211.768 378.26 196.999 374.966 183.897 363.965C179.577 360.37 175.908 356.112 172.743 351.443C168.326 344.881 164.253 338.014 160.432 331.059C154.753 320.823 149.561 310.266 145.017 299.514C140.312 288.401 136.094 277.2 133.298 265.448C131.546 257.979 130.604 250.441 131.281 242.765C131.3 242.442 131.338 242.028 131.357 241.705C131.43 241.579 131.484 241.543 131.755 241.131ZM187.229 236.165C188.003 236.042 188.47 236.044 188.866 235.938C194.769 234.756 200.668 234.509 206.671 235.125C219.019 236.521 230.114 241.077 240.21 248.236C248.101 253.823 254.656 260.681 259.947 268.685C260.233 269.118 260.609 269.569 260.967 270.11C261.382 269.68 261.725 269.376 262.014 269.107C264.272 266.292 266.746 263.569 268.879 260.682C277.808 248.561 284.1 235.153 286.728 220.202C288.401 210.858 288.545 201.436 286.423 192.114C284.601 184.069 281.213 176.827 275.68 170.692C269.61 163.98 262.092 159.779 253.361 157.624C244.541 155.45 235.674 155.794 226.874 157.648C226.676 157.701 226.514 157.809 226.352 157.916C226.279 158.042 226.207 158.167 226.189 158.257C226.134 158.526 226.06 158.886 226.005 159.155C223.276 176.893 217.279 193.449 208.48 209.059C203.7 217.582 198.059 225.508 191.163 232.476C189.954 233.586 188.691 234.732 187.229 236.165ZM258.728 272.601C258.353 271.916 258.049 271.339 257.673 270.888C255.777 268.256 253.9 265.533 251.842 263.008C242.963 252.401 231.916 244.86 218.769 240.728C204.437 236.213 190.358 236.195 176.629 243.173C170.467 246.314 165.434 250.575 161.761 256.422C155.574 266.342 156.249 277.709 163.496 286.908C167.29 291.705 172.06 295.158 177.589 297.643C184.195 300.581 191.149 301.813 198.324 301.733C210.102 301.562 221.048 298.134 231.534 292.833C239.677 288.693 247.052 283.507 253.782 277.347C255.407 275.807 256.995 274.212 258.728 272.601ZM165.449 92.2472C164.855 92.4067 164.567 92.4416 164.261 92.5663C158.678 94.7026 153.524 97.7217 148.763 101.336C142.505 106.095 137.053 111.72 132.39 118.068C122.484 131.534 116.044 146.362 113.912 163.004C113.096 169.295 113.162 175.625 114.415 181.869C115.245 185.828 116.543 189.555 118.85 192.927C122.533 198.263 127.885 200.01 133.953 197.786C137.807 196.326 140.981 193.839 143.78 190.901C148.42 186.045 151.822 180.376 154.686 174.363C159.345 164.599 162.423 154.326 164.478 143.797C167.266 129.44 168.221 114.897 166.569 100.289C166.363 97.6272 165.87 95 165.449 92.2472ZM222.699 158.621C222.159 158.745 221.673 158.833 221.277 158.939C215.498 160.661 209.933 162.942 204.618 165.834C192.365 172.458 181.991 181.337 173.283 192.147C167.501 199.389 162.67 207.246 159.615 216.028C158.124 220.355 157.118 224.829 157.118 229.414C157.073 231.698 157.406 233.965 158.225 236.144C159.88 240.645 163.467 243.015 168.216 242.673C169.745 242.517 171.346 242.236 172.769 241.684C176.658 240.278 180.173 238.188 183.365 235.611C187.892 231.996 191.828 227.839 195.334 223.268C209.72 204.352 218.595 183.096 222.605 159.772C222.66 159.502 222.643 159.124 222.699 158.621ZM65.583 166.199C67.1683 170.125 69.2403 173.73 73.0439 175.956C76.004 177.729 79.1153 177.616 82.1237 176.171C83.0605 175.707 84.0698 175.117 84.8993 174.491C87.6043 172.469 89.5924 169.834 91.2578 166.945C93.9553 162.208 95.6471 157.126 96.7824 151.79C98.8341 141.962 99.0341 132.037 97.8856 122.071C96.3197 108.417 92.5932 95.4917 85.8784 83.4543C84.8781 81.7062 83.8238 79.9939 82.7694 78.2816C82.5531 78.4246 82.4092 78.4421 82.3551 78.4778C81.9216 78.9976 81.488 79.5174 81.1443 80.0555C67.9097 98.8314 61.2122 119.736 61.1059 142.734C61.0816 149.046 61.9026 155.342 63.6952 161.463C63.9794 162.363 64.4259 163.156 65.1969 163.734C66.8104 164.999 68.4055 166.354 70.0007 167.709C70.3234 167.962 70.5022 168.232 70.8249 168.485C68.7211 168.477 67.378 167.033 65.583 166.199ZM81.1953 76.1358C81.0165 75.8653 80.9276 75.6133 80.7846 75.3969C77.1174 70.4379 72.9809 65.9446 67.8692 62.5625C65.1071 60.7357 62.1451 59.4297 58.8927 58.8597C54.0946 58.0681 49.8999 59.3646 46.2371 62.6412C43.6027 65.0046 41.7036 67.8924 40.2169 71.0514C38.0961 75.4847 36.8552 80.1911 36.1892 85.0615C34.5639 96.2398 35.4925 107.284 38.2196 118.227C41.8499 132.77 48.3632 145.796 58.3358 157.001C58.9088 157.632 59.4818 158.264 60.1089 158.86C57.2705 144.104 58.297 129.669 62.0561 115.37C65.7795 101.017 72.1054 87.8967 81.1953 76.1358Z" fill="black"/>
</g>
</svg>
