<svg width="28" height="28" viewBox="0 0 28 28" fill="none" xmlns="http://www.w3.org/2000/svg">
<g id="Group 37350">
<circle id="Ellipse 264" cx="14" cy="14" r="14" fill="#FFDD88"/>
<g id="Group 37349">
<path id="Vector" d="M15.6135 14.681V14.6323L15.5664 14.6202C14.7826 14.4178 13.9629 14.3969 13.17 14.5603C12.3772 14.7237 11.6323 15.0664 10.9924 15.5622C10.3525 16.058 9.83455 16.6937 9.47831 17.4206C9.12207 18.1475 8.93696 18.9463 8.93717 19.7558L8.93718 19.8186L8.99997 19.8187L10.3101 19.8193L10.373 19.8194L10.373 19.7565C10.3729 19.1377 10.5212 18.5279 10.8056 17.9783C11.09 17.4287 11.5021 16.9554 12.0073 16.5981C12.5125 16.2408 13.0961 16.0099 13.709 15.9248C14.322 15.8398 14.9463 15.9031 15.5298 16.1093L15.6135 16.139V16.0501V14.681ZM10.2473 9.93042C10.2473 12.1367 12.0343 13.9237 14.2406 13.9237C16.4468 13.9237 18.2338 12.1367 18.2338 9.93042C18.2338 7.72416 16.4468 5.93717 14.2406 5.93717C12.0343 5.93717 10.2473 7.72416 10.2473 9.93042ZM16.798 9.93042C16.798 11.3434 15.6536 12.4879 14.2406 12.4879C12.8276 12.4879 11.6831 11.3434 11.6831 9.93042C11.6831 8.51742 12.8276 7.37298 14.2406 7.37298C15.6536 7.37298 16.798 8.51742 16.798 9.93042Z" fill="#333333" stroke="#333333" stroke-width="0.125669"/>
<path id="Star 7" d="M17.0013 13.9979L18.6192 16.341L21.3475 15.5263L19.6191 17.789L21.2369 20.1321L18.5508 19.1875L16.8224 21.4502L16.8907 18.6037L14.2046 17.6591L16.933 16.8444L17.0013 13.9979Z" fill="#333333"/>
</g>
</g>
</svg>
