<svg width="19" height="20" viewBox="0 0 19 20" fill="none" xmlns="http://www.w3.org/2000/svg">
<path d="M8.4298 2V0C7.32511 0 6.42954 0.89543 6.42954 2H8.4298ZM8.4298 3.63424V2H6.42954V3.63424H8.4298ZM6.65041 5.84277C6.83257 5.72073 7.02309 5.6104 7.22088 5.51283L6.33584 3.71924C6.05855 3.85603 5.79174 4.01056 5.53689 4.18131L6.65041 5.84277ZM3.0008 5.13397L4.41747 5.95176L5.41762 4.2197L4.00095 3.40192L3.0008 5.13397ZM3.0008 5.13397L4.00095 3.40192C3.04422 2.84963 1.82085 3.17738 1.26848 4.13397L3.0008 5.13397ZM2.00064 6.86602L3.0008 5.13397L1.26848 4.13397L0.268322 5.86602L2.00064 6.86602ZM2.00064 6.86602L0.268322 5.86602C-0.284044 6.82261 0.0437569 8.0458 1.00049 8.5981L2.00064 6.86602ZM3.41744 7.68388L2.00064 6.86602L1.00049 8.5981L2.41728 9.4159L3.41744 7.68388ZM4.42923 10C4.42923 9.8885 4.43286 9.778 4.44 9.6686L2.44393 9.5385C2.43397 9.6912 2.42892 9.8451 2.42892 10H4.42923ZM4.44 10.3314C4.43286 10.222 4.42923 10.1115 4.42923 10H2.42892C2.42892 10.1549 2.43397 10.3088 2.44393 10.4615L4.44 10.3314ZM2.00064 13.134L3.41744 12.3161L2.41728 10.5841L1.00049 11.4019L2.00064 13.134ZM2.00064 13.134L1.00049 11.4019C0.0437569 11.9542 -0.284044 13.1774 0.268322 14.134L2.00064 13.134ZM3.0008 14.866L2.00064 13.134L0.268322 14.134L1.26848 15.866L3.0008 14.866ZM3.0008 14.866L1.26848 15.866C1.82085 16.8226 3.04422 17.1504 4.00095 16.5981L3.0008 14.866ZM4.41746 14.0482L3.0008 14.866L4.00095 16.5981L5.41761 15.7803L4.41746 14.0482ZM7.22088 14.4872C7.02309 14.3896 6.83257 14.2793 6.6504 14.1572L5.53688 15.8187C5.79174 15.9894 6.05855 16.144 6.33584 16.2808L7.22088 14.4872ZM8.4298 18V16.3658H6.42954V18H8.4298ZM8.4298 18H6.42954C6.42954 19.1046 7.32511 20 8.4298 20V18ZM10.4301 18H8.4298V20H10.4301V18ZM10.4301 18V20C11.5349 20 12.4304 19.1046 12.4304 18H10.4301ZM10.4301 16.3658V18H12.4304V16.3658H10.4301ZM12.2096 14.1572C12.0275 14.2793 11.8369 14.3896 11.6391 14.4872L12.5241 16.2808C12.8015 16.144 13.0682 15.9894 13.3232 15.8187L12.2096 14.1572ZM15.8593 14.866L14.4425 14.0482L13.4424 15.7803L14.859 16.5981L15.8593 14.866ZM15.8593 14.866L14.859 16.5981C15.8156 17.1504 17.0391 16.8226 17.5915 15.866L15.8593 14.866ZM16.8594 13.134L15.8593 14.866L17.5915 15.866L18.5917 14.134L16.8594 13.134ZM16.8594 13.134L18.5917 14.134C19.1441 13.1774 18.8162 11.9542 17.8596 11.4019L16.8594 13.134ZM15.4426 12.3161L16.8594 13.134L17.8596 11.4019L16.4427 10.5841L15.4426 12.3161ZM14.4307 10C14.4307 10.1115 14.4271 10.222 14.42 10.3314L16.416 10.4615C16.426 10.3088 16.431 10.1549 16.431 10H14.4307ZM14.42 9.6686C14.4271 9.778 14.4307 9.8885 14.4307 10H16.431C16.431 9.8451 16.426 9.6912 16.416 9.5385L14.42 9.6686ZM16.8594 6.86602L15.4426 7.68388L16.4427 9.4159L17.8596 8.5981L16.8594 6.86602ZM16.8594 6.86602L17.8596 8.5981C18.8162 8.0458 19.1441 6.82261 18.5917 5.86602L16.8594 6.86602ZM15.8593 5.13397L16.8594 6.86602L18.5917 5.86602L17.5915 4.13397L15.8593 5.13397ZM15.8593 5.13397L17.5915 4.13397C17.0391 3.17738 15.8157 2.84963 14.8591 3.40192L15.8593 5.13397ZM14.4425 5.95175L15.8593 5.13397L14.8591 3.40192L13.4424 4.2197L14.4425 5.95175ZM11.6391 5.51283C11.8369 5.6104 12.0275 5.72072 12.2096 5.84277L13.3232 4.18131C13.0682 4.01056 12.8015 3.85603 12.5241 3.71924L11.6391 5.51283ZM10.4301 2V3.63423H12.4304V2H10.4301ZM10.4301 2H12.4304C12.4304 0.89543 11.5349 0 10.4301 0V2ZM8.4298 2H10.4301V0H8.4298V2ZM12.5241 3.71924C12.4814 3.69815 12.4535 3.67053 12.4397 3.65025C12.4275 3.63248 12.4304 3.62788 12.4304 3.63423H10.4301C10.4301 4.50299 10.9792 5.18731 11.6391 5.51283L12.5241 3.71924ZM13.4424 4.2197C13.4479 4.21655 13.4454 4.22132 13.4242 4.21972C13.3999 4.21789 13.3624 4.20762 13.3232 4.18131L12.2096 5.84277C12.8219 6.25303 13.6899 6.38623 14.4425 5.95175L13.4424 4.2197ZM16.416 9.5385C16.413 9.4913 16.4229 9.4537 16.4334 9.4318C16.4427 9.4126 16.4481 9.4128 16.4427 9.4159L15.4426 7.68388C14.6911 8.1177 14.3721 8.9342 14.42 9.6686L16.416 9.5385ZM13.3232 15.8187C13.3624 15.7924 13.3999 15.7821 13.4242 15.7803C13.4454 15.7787 13.4479 15.7834 13.4424 15.7803L14.4425 14.0482C13.6899 13.6138 12.8219 13.747 12.2096 14.1572L13.3232 15.8187ZM16.4427 10.5841C16.4481 10.5872 16.4427 10.5874 16.4334 10.5682C16.4229 10.5462 16.413 10.5087 16.416 10.4615L14.42 10.3314C14.3721 11.0658 14.6911 11.8823 15.4426 12.3161L16.4427 10.5841ZM6.33584 16.2808C6.37861 16.3019 6.40649 16.3295 6.42033 16.3497C6.43245 16.3675 6.42954 16.3721 6.42954 16.3658H8.4298C8.4298 15.497 7.88081 14.8127 7.22088 14.4872L6.33584 16.2808ZM5.41761 15.7803C5.41215 15.7834 5.41462 15.7787 5.43584 15.7803C5.46009 15.7821 5.4976 15.7924 5.53688 15.8187L6.6504 14.1572C6.03808 13.747 5.17011 13.6138 4.41746 14.0482L5.41761 15.7803ZM12.4304 16.3658C12.4304 16.3721 12.4275 16.3675 12.4397 16.3497C12.4535 16.3295 12.4814 16.3019 12.5241 16.2808L11.6391 14.4872C10.9792 14.8127 10.4301 15.497 10.4301 16.3658H12.4304ZM2.44393 10.4615C2.447 10.5086 2.4371 10.5462 2.42654 10.5682C2.41727 10.5874 2.41186 10.5872 2.41728 10.5841L3.41744 12.3161C4.16895 11.8823 4.48791 11.0658 4.44 10.3314L2.44393 10.4615ZM2.41728 9.4159C2.41186 9.4128 2.41727 9.4126 2.42654 9.4318C2.4371 9.4537 2.447 9.4913 2.44393 9.5385L4.44 9.6686C4.48791 8.9342 4.16895 8.1177 3.41744 7.68388L2.41728 9.4159ZM5.53689 4.18131C5.49761 4.20763 5.46009 4.21789 5.43585 4.21972C5.41463 4.22133 5.41216 4.21655 5.41762 4.2197L4.41747 5.95176C5.17011 6.38623 6.03809 6.25303 6.65041 5.84277L5.53689 4.18131ZM6.42954 3.63424C6.42954 3.62788 6.43245 3.63248 6.42033 3.65025C6.40649 3.67053 6.37861 3.69815 6.33584 3.71924L7.22088 5.51283C7.88081 5.18731 8.4298 4.50299 8.4298 3.63424H6.42954Z" fill="#8A8EA0"/>
<path fill-rule="evenodd" clip-rule="evenodd" d="M9.43015 8C8.32518 8 7.42969 8.89558 7.42969 10C7.42969 11.1044 8.32518 12 9.43015 12C10.5351 12 11.4306 11.1044 11.4306 10C11.4306 8.89558 10.5351 8 9.43015 8ZM5.42969 10C5.42969 7.79071 7.2209 6 9.43015 6C11.6394 6 13.4306 7.79071 13.4306 10C13.4306 12.2093 11.6394 14 9.43015 14C7.2209 14 5.42969 12.2093 5.42969 10Z" fill="#8A8EA0"/>
</svg>
