<svg width="36" height="42" viewBox="0 0 36 42" fill="none" xmlns="http://www.w3.org/2000/svg">
<path d="M27.7923 25.9438C26.7613 25.7823 25.7417 25.5754 24.7222 25.4652C23.1988 25.3255 21.8825 25.8175 20.8649 26.9642C20.1846 27.7362 19.5445 28.5425 18.9617 29.4114C17.4247 31.6604 16.2259 34.1148 14.9067 36.4666C14.7296 36.7847 14.61 37.1655 14.4558 37.4893C14.3988 37.62 14.336 37.7735 14.2388 37.8699C13.993 38.1708 13.6496 38.2782 13.3173 38.1467C12.985 38.0151 12.7783 37.6735 12.8521 37.2812C12.8805 37.0708 12.9374 36.8434 13.0401 36.6275C13.3939 35.7979 13.5587 34.9452 13.6776 34.0809C13.9098 32.3752 14.0733 30.6522 13.9447 28.9287C13.7526 26.8751 13.1599 24.9629 11.9032 23.271C11.2663 22.4109 10.6008 21.5677 9.94093 20.7018C8.9311 19.3859 7.65257 18.3651 6.31113 17.4011C6.10476 17.2528 5.83548 17.1612 5.58328 17.0014C5.41135 16.9101 5.21651 16.813 5.05596 16.6761C4.71195 16.3967 4.64832 15.97 4.83674 15.6064C5.01946 15.2656 5.4201 15.1242 5.82117 15.273C6.11336 15.3703 6.41708 15.5188 6.6922 15.6843C8.25694 16.6317 10.0269 16.954 11.8082 17.2308C12.4612 17.3459 13.1199 17.4383 13.7727 17.4568C15.3017 17.4771 16.6237 16.9623 17.624 15.7872C18.4129 14.8732 19.0527 13.8735 19.5951 12.777C20.4572 11.084 21.474 9.45387 22.1642 7.66949C22.5121 6.76593 22.883 5.8681 23.2366 4.9418C23.345 4.70316 23.4306 4.45878 23.5619 4.22588C23.762 4.01018 24.0195 3.85717 24.3231 3.909C24.6266 3.96083 24.8618 4.18883 24.8737 4.5301C24.9029 4.89985 24.9035 5.28659 24.8354 5.65613C24.5287 7.36739 24.2221 9.07866 23.9098 10.8127C23.6373 12.3875 23.319 13.9509 23.098 15.5144C22.9224 16.7994 23.0618 18.0908 23.5047 19.3372C23.9015 20.4756 24.6415 21.3132 25.5874 22.0091C26.2065 22.454 26.797 22.916 27.4275 23.3154C27.76 23.5436 28.1611 23.6923 28.5278 23.8808C29.2385 24.252 29.9777 24.6062 30.6827 25.0001C31.0036 25.1771 31.1701 25.4846 31.102 25.8541C31.0624 26.2067 30.7708 26.4961 30.37 26.5408C30.0952 26.5686 29.8032 26.568 29.5282 26.4991C28.9267 26.3727 28.3138 26.1951 27.718 26.046C27.7752 26.012 27.7866 25.9665 27.7923 25.9438Z" fill="#333333"/>
</svg>
