<svg width="625" height="1004" viewBox="0 0 625 1004" fill="none" xmlns="http://www.w3.org/2000/svg">
<path d="M285.201 0.52533C385.87 14.1422 449.186 33.8041 509.4 124.825C540.297 171.51 561.529 230.223 575.63 298.101C585.771 347.649 593.535 398.343 600.665 449.323C607.002 494.862 611.597 540.973 616.667 587.085C619.678 614.866 622.688 642.361 623.797 670.429C624.748 691.623 625.699 712.817 624.273 734.297C622.688 756.064 619.995 776.972 615.083 797.02C613.816 801.889 612.548 807.044 611.28 811.913C603.358 845.423 592.425 874.923 578.958 901.845C572.145 915.306 565.173 928.194 557.092 939.077C555.349 941.369 553.765 943.946 551.864 945.951C539.663 958.553 527.622 972.014 514.788 982.325C505.122 990.058 495.14 995.499 484.525 997.504C466.937 1000.94 449.508 1004.09 431.763 1002.66C413.225 1000.94 395.003 995.786 376.941 987.766C355.868 978.315 335.111 967.718 314.197 957.694C297.243 949.674 280.131 941.655 262.544 937.359C252.403 934.781 242.104 933.063 231.964 932.49C218.179 931.917 204.395 932.776 190.452 933.349C173.498 933.922 156.544 933.063 139.749 927.335C100.93 914.16 69.2414 878.932 44.2072 824.229C27.0951 786.996 15.8456 744.321 9.1909 697.351C1.42712 643.22 -1.58333 588.23 0.793336 532.954C2.53623 489.42 7.44801 446.746 15.0534 405.217C27.5705 337.339 42.4643 271.179 60.8438 207.883C69.083 179.529 78.7481 152.893 89.8392 128.262C123.707 53.6644 189.978 -6.26107 276.328 0.52533C279.18 0.811735 282.191 0.52533 285.201 0.52533Z" fill="#FFDC66"/>
</svg>
